SplineFontDB: 3.2
FontName: RITMeeraNew
FullName: RIT Meera New Regular
FamilyName: RIT Meera New
Weight: Regular
Copyright: Digitized data copyright (c) 2021-2024 Chitrajakumar R, Hussain KH, Rajeesh KV, Rachana Institute of Typography (http://rachana.org.in)
Version: 1.6.2
ItalicAngle: 0
UnderlinePosition: -750
UnderlineWidth: 33
Ascent: 1303
Descent: 745
InvalidEm: 0
sfntRevision: 0x00010000
LayerCount: 2
Layer: 0 1 "Back" 1
Layer: 1 1 "Fore" 0
XUID: [1021 545 -1898090762 6154]
StyleMap: 0x0020
FSType: 0
OS2Version: 4
OS2_WeightWidthSlopeOnly: 0
OS2_UseTypoMetrics: 1
CreationTime: 1418347145
ModificationTime: 1720498364
PfmFamily: 33
TTFWeight: 400
TTFWidth: 5
LineGap: 100
VLineGap: 0
Panose: 0 0 5 0 0 0 0 0 0 0
OS2TypoAscent: 1303
OS2TypoAOffset: 0
OS2TypoDescent: -745
OS2TypoDOffset: 0
OS2TypoLinegap: 0
OS2WinAscent: 1303
OS2WinAOffset: 0
OS2WinDescent: 745
OS2WinDOffset: 0
HheadAscent: 1303
HheadAOffset: 0
HheadDescent: -745
HheadDOffset: 0
OS2SubXSize: 1303
OS2SubYSize: 1210
OS2SubXOff: 0
OS2SubYOff: 261
OS2SupXSize: 1303
OS2SupYSize: 1210
OS2SupXOff: 0
OS2SupYOff: 888
OS2StrikeYSize: 93
OS2StrikeYPos: 464
OS2CapHeight: 1303
OS2XHeight: 1000
OS2Vendor: 'RIT '
OS2CodePages: 00000001.00000000
OS2UnicodeRanges: 80800001.00002002.00000000.00000000
MarkAttachClasses: 1
DEI: 91125
ShortTable: maxp 16
  1
  0
  786
  209
  9
  0
  0
  2
  0
  1
  1
  0
  64
  0
  0
  0
EndShort
LangName: 1033 "" "" "" "" "" "1.6.2" "" "" "RIT" "Hussain K H" "" "http://rachana.org.in" "" "OFL v1.1" "http://scripts.sil.org/OFL"
GaspTable: 1 65535 15 1
Encoding: Custom
UnicodeInterp: none
NameList: AGL For New Fonts
DisplaySize: -48
AntiAlias: 1
FitToEm: 0
BeginPrivate: 0
EndPrivate
Grid
-2048 924 m 4
 4096 924 l 1028
114 2264 m 0
 114 -1832 l 1024
-2048 857.699996948 m 0
 4096 857.699996948 l 1024
-3820.45117188 -726.109375 m 0
 7618.55957031 -726.109375 l 1024
-3813.00390625 1256.16894531 m 0
 7626.00683594 1256.16894531 l 1024
EndSplineSet
BeginChars: 675 675

StartChar: .notdef
Encoding: 235 -1 0
Width: 1027
VWidth: 4096
GlyphClass: 2
Flags: W
LayerCount: 2
Fore
SplineSet
938.474609375 90.2998046875 m 1,0,-1
 938.474609375 1713.54980469 l 1,1,-1
 211.775390625 1713.54980469 l 1,2,-1
 211.775390625 90.2998046875 l 1,3,-1
 938.474609375 90.2998046875 l 1,0,-1
123.625 1811.375 m 1,4,-1
 1027.70019531 1811.375 l 1,5,-1
 1027.70019531 0 l 1,6,-1
 123.625 0 l 1,7,-1
 123.625 1811.375 l 1,4,-1
EndSplineSet
EndChar

StartChar: exclam
Encoding: 4 33 6
Width: 296
VWidth: 2201
GlyphClass: 2
Flags: W
LayerCount: 2
Fore
SplineSet
282.724609375 178.450195312 m 5,0,1
 293.474609375 130.082518202 293.474609375 130.082518202 293.474609375 92.453856757 c 4,2,3
 293.474609375 54.8251953125 293.474609375 54.8251953125 282.724609375 11.8251953125 c 5,4,5
 207.016322543 -5.98828125 207.016322543 -5.98828125 126.849609375 11.8251953125 c 5,6,7
 116.099609375 54.8251953125 116.099609375 54.8251953125 116.099609375 92.4483641722 c 4,8,9
 116.099609375 130.071533032 116.099609375 130.071533032 126.849609375 178.450195312 c 5,10,11
 172.540161266 189.200195312 172.540161266 189.200195312 203.444274944 189.200195312 c 4,12,13
 234.348388622 189.200195312 234.348388622 189.200195312 282.724609375 178.450195312 c 5,0,1
280.575195312 868.599609375 m 1,14,-1
 238.650390625 320.349609375 l 1,15,-1
 178.450195312 320.349609375 l 1,16,-1
 137.599609375 868.599609375 l 1,17,-1
 137.599609375 1281.40039062 l 1,18,-1
 280.575195312 1281.40039062 l 1,19,-1
 280.575195312 868.599609375 l 1,14,-1
EndSplineSet
EndChar

StartChar: quotedbl
Encoding: 5 34 7
Width: 494
VWidth: 2201
GlyphClass: 2
Flags: W
LayerCount: 2
Fore
SplineSet
366.575195312 1281.40039062 m 1,0,1
 404.20141605 1292.15039062 404.20141605 1292.15039062 429.462402345 1292.15039062 c 128,-1,2
 454.72338864 1292.15039062 454.72338864 1292.15039062 492.349609375 1281.40039062 c 1,3,-1
 470.849609375 847.099609375 l 1,4,-1
 388.075195312 847.099609375 l 1,5,-1
 366.575195312 1281.40039062 l 1,0,1
120.400390625 1281.40039062 m 1,6,7
 158.02661136 1292.15039062 158.02661136 1292.15039062 185.975708024 1292.15039062 c 128,-1,8
 213.924804688 1292.15039062 213.924804688 1292.15039062 246.174804688 1281.40039062 c 1,9,-1
 224.674804688 847.099609375 l 1,10,-1
 141.900390625 847.099609375 l 1,11,-1
 120.400390625 1281.40039062 l 1,6,7
EndSplineSet
EndChar

StartChar: numbersign
Encoding: 6 35 8
Width: 922
VWidth: 1998
GlyphClass: 2
Flags: W
LayerCount: 2
Fore
SplineSet
406.349609375 760.025390625 m 1,0,-1
 368.724609375 480.525390625 l 1,1,-1
 610.599609375 480.525390625 l 1,2,-1
 645 760.025390625 l 1,3,-1
 406.349609375 760.025390625 l 1,0,-1
912.674804688 760.025390625 m 1,4,-1
 738.525390625 760.025390625 l 1,5,-1
 696.599609375 480.525390625 l 1,6,-1
 876.125 480.525390625 l 1,7,-1
 864.299804688 390.224609375 l 1,8,-1
 686.924804688 390.224609375 l 1,9,-1
 636.400390625 11.8251953125 l 1,10,-1
 548.25 11.8251953125 l 1,11,-1
 596.625 390.224609375 l 1,12,-1
 357.974609375 390.224609375 l 1,13,-1
 306.375 11.8251953125 l 1,14,-1
 220.375 11.8251953125 l 1,15,-1
 264.450195312 390.224609375 l 1,16,-1
 90.2998046875 390.224609375 l 1,17,-1
 99.974609375 480.525390625 l 1,18,-1
 280.575195312 480.525390625 l 1,19,-1
 311.75 760.025390625 l 1,20,-1
 137.599609375 760.025390625 l 1,21,-1
 148.349609375 848.174804688 l 1,22,-1
 327.875 848.174804688 l 1,23,-1
 380.549804688 1226.57519531 l 1,24,-1
 470.849609375 1226.57519531 l 1,25,-1
 420.325195312 848.174804688 l 1,26,-1
 660.049804688 848.174804688 l 1,27,-1
 708.424804688 1226.57519531 l 1,28,-1
 796.575195312 1226.57519531 l 1,29,-1
 748.200195312 848.174804688 l 1,30,-1
 928.799804688 848.174804688 l 1,31,-1
 912.674804688 760.025390625 l 1,4,-1
EndSplineSet
EndChar

StartChar: dollar
Encoding: 7 36 9
Width: 904
VWidth: 1998
GlyphClass: 2
Flags: W
LayerCount: 2
Fore
SplineSet
634.25 498.875 m 2,0,-1
 526.75 533.866210938 l 1,1,-1
 526.75 79.98046875 l 1,2,3
 656.825195312 86.978515625 656.825195312 86.978515625 717.5625 145.963867188 c 128,-1,4
 778.299804688 204.94921875 778.299804688 204.94921875 778.299804688 285.928710938 c 128,-1,5
 778.299804688 366.908203125 778.299804688 366.908203125 738.525390625 422.893554688 c 128,-1,6
 698.75 478.879882812 698.75 478.879882812 634.25 498.875 c 2,0,-1
470.849609375 1081.72949219 m 1,7,8
 354.75 1074.73144531 354.75 1074.73144531 296.700195312 1020.24414062 c 128,-1,9
 238.650390625 965.758789062 238.650390625 965.758789062 238.650390625 877.280761719 c 128,-1,10
 238.650390625 788.802734375 238.650390625 788.802734375 294.549804688 742.314453125 c 128,-1,11
 350.450195312 695.826171875 350.450195312 695.826171875 470.849609375 671.83203125 c 1,12,-1
 470.849609375 1081.72949219 l 1,7,8
526.75 -16.99609375 m 1,13,-1
 526.75 -180.955078125 l 1,14,-1
 470.849609375 -180.955078125 l 1,15,-1
 470.849609375 -16.99609375 l 1,16,17
 273.049804688 -5.9990234375 273.049804688 -5.9990234375 181.674804688 79.98046875 c 128,-1,18
 90.2998046875 165.958984375 90.2998046875 165.958984375 90.2998046875 345.9140625 c 1,19,-1
 211.775390625 345.9140625 l 1,20,21
 227.003279167 214.398862624 227.003279167 214.398862624 277.933554717 157.014441188 c 0,22,23
 328.863830267 99.6300197508 328.863830267 99.6300197508 470.849609375 75.9814453125 c 1,24,-1
 470.849609375 543.864257812 l 1,25,26
 256.322329111 601.455541411 256.322329111 601.455541411 184.0610669 666.005410154 c 0,27,28
 111.799804688 730.555278898 111.799804688 730.555278898 111.799804688 859.78515625 c 0,29,30
 111.799804688 1068.63456025 111.799804688 1068.63456025 317.125 1148.71289062 c 0,31,32
 383.775390625 1174.70605469 383.775390625 1174.70605469 470.849609375 1181.70507812 c 1,33,-1
 470.849609375 1286.67871094 l 1,34,-1
 526.75 1286.67871094 l 1,35,-1
 526.75 1181.70507812 l 1,36,37
 698.75 1168.70800781 698.75 1168.70800781 779.912109375 1095.22558594 c 128,-1,38
 861.075195312 1021.74511719 861.075195312 1021.74511719 872.900390625 883.779296875 c 1,39,-1
 752.5 883.779296875 l 1,40,41
 738.525390625 971.7578125 738.525390625 971.7578125 687.462890625 1016.24609375 c 128,-1,42
 636.400390625 1060.73535156 636.400390625 1060.73535156 526.75 1084.72851562 c 1,43,-1
 526.75 662.833984375 l 1,44,45
 759.74582404 596.307513385 759.74582404 596.307513385 837.424804688 527.8671875 c 0,46,47
 878.275390625 491.876953125 878.275390625 491.876953125 891.712890625 444.888671875 c 128,-1,48
 905.150390625 397.900390625 905.150390625 397.900390625 905.150390625 329.91796875 c 0,49,50
 905.150390625 173.956054688 905.150390625 173.956054688 813.237304688 83.978515625 c 128,-1,51
 721.325195312 -5.9990234375 721.325195312 -5.9990234375 526.75 -16.99609375 c 1,13,-1
EndSplineSet
EndChar

StartChar: percent
Encoding: 8 37 10
Width: 1310
VWidth: 1998
GlyphClass: 2
Flags: W
LayerCount: 2
Fore
SplineSet
350.450195312 1170.67480469 m 0,0,1
 194.575195312 1170.67480469 194.575195312 1170.67480469 194.575195312 916.437500001 c 128,-1,2
 194.575195312 662.200195312 194.575195312 662.200195312 346.6875 662.200195312 c 128,-1,3
 498.799804688 662.200195312 498.799804688 662.200195312 498.799804688 912.674804688 c 0,4,5
 498.799804688 1033.07519531 498.799804688 1033.07519531 461.712890625 1101.875 c 128,-1,6
 424.625 1170.67480469 424.625 1170.67480469 350.450195312 1170.67480469 c 0,0,1
1064.25 578.349609375 m 0,7,8
 908.375 578.349609375 908.375 578.349609375 908.375 324.112304688 c 128,-1,9
 908.375 69.875 908.375 69.875 1063.71240235 69.875 c 128,-1,10
 1219.04980469 69.875 1219.04980469 69.875 1219.04980469 324.650390625 c 0,11,12
 1219.04980469 445.049804688 1219.04980469 445.049804688 1178.73730469 511.700195312 c 128,-1,13
 1138.42480469 578.349609375 1138.42480469 578.349609375 1064.25 578.349609375 c 0,7,8
529.4375 672.412109375 m 128,-1,15
 462.25 588.025390625 462.25 588.025390625 344 588.025390625 c 128,-1,16
 225.75 588.025390625 225.75 588.025390625 162.862304688 672.412109375 c 128,-1,17
 99.974609375 756.799804688 99.974609375 756.799804688 99.974609375 914.824707034 c 128,-1,18
 99.974609375 1072.84960938 99.974609375 1072.84960938 165.012695312 1155.08789062 c 128,-1,19
 230.049804688 1237.32519531 230.049804688 1237.32519531 348.299804688 1237.32519531 c 128,-1,20
 466.549804688 1237.32519531 466.549804688 1237.32519531 531.587890625 1152.9375 c 128,-1,21
 596.625 1068.54980469 596.625 1068.54980469 596.625 912.674804688 c 128,-1,14
 596.625 756.799804688 596.625 756.799804688 529.4375 672.412109375 c 128,-1,15
402.049804688 -18.275390625 m 1,22,-1
 338.625 -18.275390625 l 1,23,-1
 1006.20019531 1254.52539062 l 1,24,-1
 1072.84960938 1254.52539062 l 1,25,-1
 402.049804688 -18.275390625 l 1,22,-1
1245.38769531 84.3876953125 m 128,-1,27
 1180.34960938 0 1180.34960938 0 1062.09960938 0 c 128,-1,28
 943.849609375 0 943.849609375 0 880.424804688 82.2373046875 c 128,-1,29
 817 164.474609375 817 164.474609375 817 324.650390625 c 128,-1,30
 817 484.825195312 817 484.825195312 882.037109375 566.525390625 c 128,-1,31
 947.075195312 648.224609375 947.075195312 648.224609375 1063.71240235 648.224609375 c 128,-1,32
 1180.34960938 648.224609375 1180.34960938 648.224609375 1245.38769531 564.375 c 128,-1,33
 1310.42480469 480.525390625 1310.42480469 480.525390625 1310.42480469 324.650390625 c 128,-1,26
 1310.42480469 168.775390625 1310.42480469 168.775390625 1245.38769531 84.3876953125 c 128,-1,27
EndSplineSet
EndChar

StartChar: ampersand
Encoding: 9 38 11
Width: 1082
VWidth: 1998
GlyphClass: 2
Flags: W
LayerCount: 2
Fore
SplineSet
443.974609375 626.724609375 m 1,0,1
 306.639214078 537.348674832 306.639214078 537.348674832 270.494411726 490.661642104 c 0,2,3
 211.775390625 414.816245764 211.775390625 414.816245764 211.775390625 349.308025226 c 0,4,5
 211.775390625 240.44693004 211.775390625 240.44693004 280.82095003 170.210769707 c 128,-1,6
 349.866509435 99.974609375 349.866509435 99.974609375 443.145657061 99.974609375 c 128,-1,7
 536.424804688 99.974609375 536.424804688 99.974609375 603.612304688 138.137695312 c 128,-1,8
 670.799804688 176.299804688 670.799804688 176.299804688 734.224609375 253.700195312 c 1,9,-1
 443.974609375 626.724609375 l 1,0,1
620.275390625 1125.52539062 m 128,-1,11
 580.5 1166.375 580.5 1166.375 511.700195312 1166.375 c 128,-1,12
 442.900390625 1166.375 442.900390625 1166.375 402.587890625 1125.52539062 c 128,-1,13
 362.275390625 1084.67480469 362.275390625 1084.67480469 362.275390625 1025.01220703 c 0,14,15
 362.275390625 907.091188836 362.275390625 907.091188836 492.349609375 775.075195312 c 1,16,17
 586.950195312 842.799804688 586.950195312 842.799804688 623.5 894.9375 c 128,-1,18
 660.049804688 947.075195312 660.049804688 947.075195312 660.049804688 1015.875 c 128,-1,10
 660.049804688 1084.67480469 660.049804688 1084.67480469 620.275390625 1125.52539062 c 128,-1,11
980.400390625 596.625 m 1,19,20
 954.21886824 422.878631534 954.21886824 422.878631534 876.125 280.575195312 c 1,21,-1
 1088.97460938 11.8251953125 l 1,22,-1
 924.5 11.8251953125 l 1,23,-1
 800.875 167.700195312 l 1,24,25
 674.681330747 19.9602425137 674.681330747 19.9602425137 543.412109375 -3.7626953125 c 0,26,27
 498.799804688 -11.8251953125 498.799804688 -11.8251953125 443.974609375 -11.8251953125 c 0,28,29
 276.275390625 -11.8251953125 276.275390625 -11.8251953125 183.287109375 77.9375 c 128,-1,30
 90.2998046875 167.700195312 90.2998046875 167.700195312 90.2998046875 313.541666666 c 128,-1,31
 90.2998046875 459.383138021 90.2998046875 459.383138021 147.859140591 536.128919225 c 128,-1,32
 205.418476494 612.874700429 205.418476494 612.874700429 371.950195312 714.875 c 1,33,34
 287.193986618 833.991496395 287.193986618 833.991496395 262.922188622 886.001783823 c 128,-1,35
 238.650390625 938.012071251 238.650390625 938.012071251 238.650390625 1002.74334032 c 0,36,37
 238.650390625 1124.44909137 238.650390625 1124.44909137 317.126026107 1202.92474099 c 128,-1,38
 395.601661588 1281.40039062 395.601661588 1281.40039062 517.075733138 1281.40039062 c 128,-1,39
 638.549804688 1281.40039062 638.549804688 1281.40039062 710.575195312 1210.98730469 c 128,-1,40
 782.599609375 1140.57519531 782.599609375 1140.57519531 782.599609375 1015.63259766 c 128,-1,41
 782.599609375 890.690000001 782.599609375 890.690000001 665.424804688 779.375 c 0,42,43
 622.424804688 738.525390625 622.424804688 738.525390625 554.700195312 688 c 1,44,-1
 800.875 383.775390625 l 1,45,46
 812.700195312 421.400390625 812.700195312 421.400390625 821.837890625 446.125 c 128,-1,47
 830.974609375 470.849609375 830.974609375 470.849609375 839.037109375 494.5 c 128,-1,48
 847.099609375 518.150390625 847.099609375 518.150390625 849.787109375 540.1875 c 128,-1,49
 852.474609375 562.224609375 852.474609375 562.224609375 856.775390625 596.625 c 1,50,-1
 980.400390625 596.625 l 1,19,20
EndSplineSet
EndChar

StartChar: quotesingle
Encoding: 10 39 12
Width: 245
VWidth: 2201
GlyphClass: 2
Flags: W
LayerCount: 2
Fore
SplineSet
120.400390625 1271.40039062 m 5,0,1
 158.02661136 1282.15039062 158.02661136 1282.15039062 185.975708024 1282.15039062 c 132,-1,2
 213.924804688 1282.15039062 213.924804688 1282.15039062 246.174804688 1271.40039062 c 5,3,-1
 224.674804688 837.099609375 l 5,4,-1
 141.900390625 837.099609375 l 5,5,-1
 120.400390625 1271.40039062 l 5,0,1
EndSplineSet
EndChar

StartChar: parenleft
Encoding: 11 40 13
Width: 419
VWidth: 1998
GlyphClass: 2
Flags: W
LayerCount: 2
Fore
SplineSet
427.849609375 -357.974609375 m 1,0,1
 190.716588068 12.5457364175 190.716588068 12.5457364175 154.799804688 271.4375 c 0,2,3
 141.900390625 364.424804688 141.900390625 364.424804688 141.900390625 472.462402344 c 0,4,5
 141.900390625 677.510521564 141.900390625 677.510521564 197.912797932 859.068766283 c 128,-1,6
 253.925205239 1040.627011 253.925205239 1040.627011 424.625 1307.20019531 c 1,7,-1
 502.025390625 1307.20019531 l 1,8,9
 367.093172563 1048.04651838 367.093172563 1048.04651838 321.684281594 866.410954501 c 128,-1,10
 276.275390625 684.775390625 276.275390625 684.775390625 276.275390625 463.973979521 c 128,-1,11
 276.275390625 243.172568417 276.275390625 243.172568417 320.610732946 86.1525701847 c 128,-1,12
 364.946075266 -70.8674280479 364.946075266 -70.8674280479 506.325195312 -357.974609375 c 1,13,-1
 427.849609375 -357.974609375 l 1,0,1
EndSplineSet
EndChar

StartChar: parenright
Encoding: 12 41 14
Width: 430
VWidth: 1998
GlyphClass: 2
Flags: W
LayerCount: 2
Fore
SplineSet
148.349609375 -357.974609375 m 1,0,-1
 69.875 -357.974609375 l 1,1,2
 260.585450619 8.31045451271 260.585450619 8.31045451271 285.412109375 274.125 c 0,3,4
 294.549804688 371.950195312 294.549804688 371.950195312 294.549804688 535.972161462 c 0,5,6
 294.549804688 699.994127612 294.549804688 699.994127612 251.431615283 861.926696041 c 128,-1,7
 208.313425878 1023.85926447 208.313425878 1023.85926447 67.724609375 1307.20019531 c 1,8,-1
 141.900390625 1307.20019531 l 1,9,10
 308.322848244 1040.92312926 308.322848244 1040.92312926 372.386521778 862.96745414 c 128,-1,11
 436.450195312 685.01177902 436.450195312 685.01177902 436.450195312 476.224609375 c 0,12,13
 436.450195312 173.553899674 436.450195312 173.553899674 281.650390625 -128.462890625 c 0,14,15
 226.825195312 -235.424804688 226.825195312 -235.424804688 148.349609375 -357.974609375 c 1,0,-1
EndSplineSet
EndChar

StartChar: asterisk
Encoding: 13 42 15
Width: 583
VWidth: 1998
GlyphClass: 2
Flags: W
LayerCount: 2
Fore
SplineSet
394.525390625 1017.15039062 m 5,0,-1
 513.849609375 848.375 l 5,1,-1
 446.125 801.075195312 l 5,2,-1
 336.474609375 976.299804688 l 5,3,-1
 220.375 801.075195312 l 5,4,-1
 151.575195312 848.375 l 5,5,-1
 271.974609375 1017.15039062 l 5,6,-1
 81.7001953125 1080.57519531 l 5,7,-1
 108.575195312 1154.75 l 5,8,-1
 294.549804688 1084.875 l 5,9,-1
 294.549804688 1289.125 l 5,10,-1
 371.950195312 1289.125 l 5,11,-1
 371.950195312 1084.875 l 5,12,-1
 557.924804688 1159.04980469 l 5,13,-1
 584.799804688 1080.57519531 l 5,14,-1
 394.525390625 1017.15039062 l 5,0,-1
EndSplineSet
EndChar

StartChar: plus
Encoding: 14 43 16
Width: 848
VWidth: 1998
GlyphClass: 2
Flags: W
LayerCount: 2
Fore
SplineSet
543.950195312 410.650390625 m 1,0,-1
 543.950195312 130.075195312 l 1,1,-1
 446.125 130.075195312 l 1,2,-1
 446.125 410.650390625 l 1,3,-1
 137.599609375 410.650390625 l 1,4,-1
 137.599609375 492.349609375 l 1,5,-1
 446.125 492.349609375 l 1,6,-1
 446.125 770.775390625 l 1,7,-1
 543.950195312 770.775390625 l 1,8,-1
 543.950195312 492.349609375 l 1,9,-1
 848.174804688 492.349609375 l 1,10,-1
 848.174804688 410.650390625 l 1,11,-1
 543.950195312 410.650390625 l 1,0,-1
EndSplineSet
EndChar

StartChar: comma
Encoding: 15 44 17
Width: 293
VWidth: 2201
GlyphClass: 2
Flags: W
LayerCount: 2
Fore
SplineSet
137.599609375 178.450195312 m 1,0,1
 183.290161266 189.200195312 183.290161266 189.200195312 218.495178289 189.200195312 c 128,-1,2
 253.700195312 189.200195312 253.700195312 189.200195312 294.549804688 178.450195312 c 1,3,-1
 294.549804688 13.974609375 l 2,4,5
 294.549804688 -209.250186439 294.549804688 -209.250186439 137.599609375 -249.400390625 c 1,6,-1
 137.599609375 -189.200195312 l 1,7,8
 215.723277474 -170.342251875 215.723277474 -170.342251875 226.287109375 -45.6875 c 0,9,10
 228.974609375 -13.974609375 228.974609375 -13.974609375 230.049804688 11.8251953125 c 1,11,-1
 137.599609375 11.8251953125 l 1,12,13
 126.849609375 54.8251953125 126.849609375 54.8251953125 126.849609375 91.105529741 c 0,14,15
 126.849609375 127.385864169 126.849609375 127.385864169 137.599609375 178.450195312 c 1,0,1
EndSplineSet
EndChar

StartChar: hyphen
Encoding: 16 45 18
Width: 754
VWidth: 2201
GlyphClass: 2
Flags: W
LayerCount: 2
Fore
SplineSet
753.575195312 319.275390625 m 1,0,-1
 126.849609375 319.275390625 l 1,1,-1
 126.849609375 433.224609375 l 1,2,-1
 753.575195312 433.224609375 l 1,3,-1
 753.575195312 319.275390625 l 1,0,-1
EndSplineSet
EndChar

StartChar: period
Encoding: 17 46 19
Width: 302
VWidth: 2201
GlyphClass: 2
Flags: W
LayerCount: 2
Fore
SplineSet
291.325195312 178.450195312 m 1,0,1
 302.075195312 130.071533043 302.075195312 130.071533043 302.075195312 92.4483641778 c 0,2,3
 302.075195312 54.8251953125 302.075195312 54.8251953125 291.325195312 11.8251953125 c 1,4,5
 215.612862727 -5.98828125 215.612862727 -5.98828125 135.450195312 11.8251953125 c 1,6,7
 124.700195312 54.8251953125 124.700195312 54.8251953125 124.700195312 92.4483641722 c 0,8,9
 124.700195312 130.071533032 124.700195312 130.071533032 135.450195312 178.450195312 c 1,10,11
 181.138305687 189.200195312 181.138305687 189.200195312 212.042419365 189.200195312 c 0,12,13
 242.946533043 189.200195312 242.946533043 189.200195312 291.325195312 178.450195312 c 1,0,1
EndSplineSet
EndChar

StartChar: slash
Encoding: 18 47 20
Width: 562
VWidth: 1998
GlyphClass: 2
Flags: W
LayerCount: 2
Fore
SplineSet
172 -18.275390625 m 1,0,-1
 86 -18.275390625 l 1,1,-1
 498.799804688 1294.72460938 l 5,2,-1
 588.025390625 1294.72460938 l 5,3,-1
 172 -18.275390625 l 1,0,-1
EndSplineSet
EndChar

StartChar: zero
Encoding: 19 48 21
Width: 792
VWidth: 1998
GlyphClass: 2
Flags: W
LayerCount: 2
Fore
SplineSet
260.150390625 496.650390625 m 0,0,1
 260.150390625 78.474609375 260.150390625 78.474609375 469.237792969 78.474609375 c 128,-1,2
 678.325195312 78.474609375 678.325195312 78.474609375 678.325195312 496.650390625 c 0,3,4
 678.325195312 694.450195312 678.325195312 694.450195312 624.575195312 799.799804688 c 128,-1,5
 570.825195312 905.150390625 570.825195312 905.150390625 468.700195312 905.150390625 c 128,-1,6
 366.575195312 905.150390625 366.575195312 905.150390625 313.362304688 798.724609375 c 128,-1,7
 260.150390625 692.299804688 260.150390625 692.299804688 260.150390625 496.650390625 c 0,0,1
470.849609375 -18.275390625 m 128,-1,9
 314.974609375 -18.275390625 314.974609375 -18.275390625 228.4375 113.950195312 c 128,-1,10
 141.900390625 246.174804688 141.900390625 246.174804688 141.900390625 496.650390625 c 128,-1,11
 141.900390625 747.125 141.900390625 747.125 226.825195312 878.8125 c 128,-1,12
 311.75 1010.5 311.75 1010.5 467.087402344 1010.5 c 128,-1,13
 622.424804688 1010.5 622.424804688 1010.5 709.5 876.662109375 c 128,-1,14
 796.575195312 742.825195312 796.575195312 742.825195312 796.575195312 492.349609375 c 128,-1,15
 796.575195312 241.875 796.575195312 241.875 711.650390625 111.799804688 c 128,-1,8
 626.724609375 -18.275390625 626.724609375 -18.275390625 470.849609375 -18.275390625 c 128,-1,9
EndSplineSet
EndChar

StartChar: one
Encoding: 20 49 22
Width: 463
VWidth: 1998
GlyphClass: 2
Flags: W
LayerCount: 2
Fore
SplineSet
350.450195312 4.2998046875 m 1,0,-1
 350.450195312 722.400390625 l 1,1,-1
 122.549804688 722.400390625 l 1,2,-1
 122.549804688 817 l 1,3,4
 249.418585174 825.054725102 249.418585174 825.054725102 306.375 862.6875 c 0,5,6
 336.474609375 882.575195312 336.474609375 882.575195312 352.599609375 918.587890625 c 128,-1,7
 368.724609375 954.599609375 368.724609375 954.599609375 383.775390625 1010.5 c 1,8,-1
 470.849609375 1010.5 l 1,9,-1
 470.849609375 4.2998046875 l 1,10,-1
 350.450195312 4.2998046875 l 1,0,-1
EndSplineSet
EndChar

StartChar: two
Encoding: 21 50 23
Width: 769
VWidth: 1998
GlyphClass: 2
Flags: W
LayerCount: 2
Fore
SplineSet
146.200195312 656.825195312 m 1,0,1
 154.570825383 1010.5 154.570825383 1010.5 466.549804688 1010.5 c 0,2,3
 598.789973883 1010.5 598.789973883 1010.5 684.782682254 930.09120738 c 0,4,5
 770.775390625 849.68241476 770.775390625 849.68241476 770.775390625 708.424804688 c 0,6,7
 770.775390625 605.38188595 770.775390625 605.38188595 735.837890625 553.703638287 c 128,-1,8
 700.900390625 502.025390625 700.900390625 502.025390625 650.912109375 463.325195312 c 128,-1,9
 600.924804688 424.625 600.924804688 424.625 518.150390625 376.25 c 2,10,-1
 413.875 316.049804688 l 2,11,12
 265.525390625 230.049804688 265.525390625 230.049804688 246.174804688 116.099609375 c 1,13,-1
 770.775390625 116.099609375 l 1,14,-1
 770.775390625 4.2998046875 l 1,15,-1
 120.400390625 4.2998046875 l 1,16,17
 132.224609375 146.200195312 132.224609375 146.200195312 181.137695312 239.1875 c 128,-1,18
 230.049804688 332.174804688 230.049804688 332.174804688 341.849609375 398.825195312 c 2,19,-1
 471.924804688 476.224609375 l 1,20,21
 588.609981288 544.290962392 588.609981288 544.290962392 620.567685957 592.226612177 c 0,22,23
 652.525390625 640.162261963 652.525390625 640.162261963 652.525390625 721.593826294 c 128,-1,24
 652.525390625 803.025390625 652.525390625 803.025390625 600.387695312 854.087890625 c 128,-1,25
 548.25 905.150390625 548.25 905.150390625 454.724609375 905.150390625 c 0,26,27
 257.803619226 905.150390625 257.803619226 905.150390625 253.700195312 656.825195312 c 1,28,-1
 146.200195312 656.825195312 l 1,0,1
EndSplineSet
EndChar

StartChar: three
Encoding: 22 51 24
Width: 774
VWidth: 1998
GlyphClass: 2
Flags: W
LayerCount: 2
Fore
SplineSet
380.549804688 574.049804688 m 1,0,1
 394.255309992 570.825195312 394.255309992 570.825195312 436.450195312 570.825195312 c 0,2,3
 526.75 570.825195312 526.75 570.825195312 578.349609375 613.825195312 c 128,-1,4
 629.950195312 656.825195312 629.950195312 656.825195312 629.950195312 736.912597656 c 128,-1,5
 629.950195312 817 629.950195312 817 579.424804688 861.075195312 c 128,-1,6
 528.900390625 905.150390625 528.900390625 905.150390625 439.137695312 905.150390625 c 128,-1,7
 349.375 905.150390625 349.375 905.150390625 304.762695312 853.012695312 c 128,-1,8
 260.150390625 800.875 260.150390625 800.875 253.700195312 686.924804688 c 1,9,-1
 141.900390625 686.924804688 l 1,10,11
 153.724609375 858.924804688 153.724609375 858.924804688 230.049804688 934.712890625 c 128,-1,12
 306.375 1010.5 306.375 1010.5 445.049804688 1010.5 c 128,-1,13
 583.724609375 1010.5 583.724609375 1010.5 664.349609375 937.400390625 c 128,-1,14
 744.974609375 864.299804688 744.974609375 864.299804688 744.974609375 744.974609375 c 0,15,16
 744.974609375 670.799804688 744.974609375 670.799804688 713.799804688 620.8125 c 128,-1,17
 682.625 570.825195312 682.625 570.825195312 606.299804688 536.424804688 c 1,18,19
 701.974609375 496.650390625 701.974609375 496.650390625 740.137695312 442.362304688 c 128,-1,20
 778.299804688 388.075195312 778.299804688 388.075195312 778.299804688 297.775390625 c 0,21,22
 778.299804688 151.575195312 778.299804688 151.575195312 686.924804688 66.650390625 c 128,-1,23
 595.549804688 -18.275390625 595.549804688 -18.275390625 446.795599081 -18.275390625 c 0,24,25
 298.041393474 -18.275390625 298.041393474 -18.275390625 223.0625 48.912109375 c 0,26,27
 129.962753978 132.339639506 129.962753978 132.339639506 120.400390625 306.375 c 1,28,-1
 234.349609375 306.375 l 1,29,30
 246.174804688 176.299804688 246.174804688 176.299804688 296.162109375 127.387695312 c 128,-1,31
 346.150390625 78.474609375 346.150390625 78.474609375 443.4375 78.474609375 c 128,-1,32
 540.724609375 78.474609375 540.724609375 78.474609375 600.387695312 136.525390625 c 128,-1,33
 660.049804688 194.575195312 660.049804688 194.575195312 660.049804688 283.800292969 c 128,-1,34
 660.049804688 373.025390625 660.049804688 373.025390625 604.150390625 422.474609375 c 128,-1,35
 548.25 471.924804688 548.25 471.924804688 446.125 471.924804688 c 2,36,-1
 427.849609375 471.924804688 l 1,37,-1
 380.549804688 471.924804688 l 1,38,-1
 380.549804688 574.049804688 l 1,0,1
EndSplineSet
EndChar

StartChar: four
Encoding: 23 52 25
Width: 783
VWidth: 1998
GlyphClass: 2
Flags: W
LayerCount: 2
Fore
SplineSet
552.549804688 838.5 m 1,0,-1
 224.674804688 354.75 l 1,1,-1
 552.549804688 354.75 l 1,2,-1
 552.549804688 838.5 l 1,0,-1
660.049804688 250.474609375 m 1,3,-1
 662.200195312 4.2998046875 l 1,4,-1
 552.549804688 4.2998046875 l 1,5,-1
 552.549804688 250.474609375 l 1,6,-1
 125.775390625 250.474609375 l 1,7,-1
 125.775390625 368.724609375 l 1,8,-1
 570.825195312 1010.5 l 1,9,-1
 662.200195312 1010.5 l 1,10,-1
 660.049804688 354.75 l 1,11,-1
 804.099609375 354.75 l 1,12,-1
 804.099609375 250.474609375 l 1,13,-1
 660.049804688 250.474609375 l 1,3,-1
EndSplineSet
EndChar

StartChar: five
Encoding: 24 53 26
Width: 762
VWidth: 1998
GlyphClass: 2
Flags: W
LayerCount: 2
Fore
SplineSet
592.325195312 479.987304688 m 128,-1,1
 532.125 543.950195312 532.125 543.950195312 430.84459417 543.950195312 c 128,-1,2
 329.56418834 543.950195312 329.56418834 543.950195312 253.700195312 446.125 c 1,3,-1
 151.575195312 450.424804688 l 1,4,-1
 227.900390625 986.849609375 l 1,5,-1
 718.099609375 986.849609375 l 1,6,-1
 718.099609375 872.900390625 l 1,7,-1
 310.674804688 872.900390625 l 1,8,-1
 264.450195312 578.349609375 l 1,9,10
 320.349609375 618.125 320.349609375 618.125 363.349609375 631.5625 c 128,-1,11
 406.349609375 645 406.349609375 645 466.012207031 645 c 0,12,13
 599.345715479 645 599.345715479 645 685.060553052 553.646044617 c 128,-1,14
 770.775390625 462.292089234 770.775390625 462.292089234 770.775390625 327.875 c 0,15,16
 770.775390625 88.4156340946 770.775390625 88.4156340946 577.275390625 8.0625 c 0,17,18
 513.849609375 -18.275390625 513.849609375 -18.275390625 405.8125 -18.275390625 c 128,-1,19
 297.775390625 -18.275390625 297.775390625 -18.275390625 219.837890625 43 c 128,-1,20
 141.900390625 104.275390625 141.900390625 104.275390625 120.400390625 250.474609375 c 1,21,-1
 234.349609375 250.474609375 l 1,22,23
 260.969830642 78.474609375 260.969830642 78.474609375 440.75 78.474609375 c 0,24,25
 536.424804688 78.474609375 536.424804688 78.474609375 594.474609375 143.512695312 c 128,-1,26
 652.525390625 208.549804688 652.525390625 208.549804688 652.525390625 312.287597656 c 128,-1,0
 652.525390625 416.025390625 652.525390625 416.025390625 592.325195312 479.987304688 c 128,-1,1
EndSplineSet
EndChar

StartChar: six
Encoding: 25 54 27
Width: 780
VWidth: 1998
GlyphClass: 2
Flags: W
LayerCount: 2
Fore
SplineSet
618.662109375 474.075195312 m 128,-1,1
 566.525390625 536.424804688 566.525390625 536.424804688 473.537597656 536.424804688 c 128,-1,2
 380.549804688 536.424804688 380.549804688 536.424804688 326.262695312 477.299804688 c 128,-1,3
 271.974609375 418.174804688 271.974609375 418.174804688 271.974609375 314.975097656 c 128,-1,4
 271.974609375 211.775390625 271.974609375 211.775390625 327.875 146.737304688 c 128,-1,5
 383.775390625 81.7001953125 383.775390625 81.7001953125 475.150390625 81.7001953125 c 128,-1,6
 566.525390625 81.7001953125 566.525390625 81.7001953125 618.662109375 146.737304688 c 128,-1,7
 670.799804688 211.775390625 670.799804688 211.775390625 670.799804688 311.75 c 128,-1,0
 670.799804688 411.724609375 670.799804688 411.724609375 618.662109375 474.075195312 c 128,-1,1
660.049804688 748.200195312 m 1,8,9
 624.9437337 905.150390625 624.9437337 905.150390625 492.349609375 905.150390625 c 0,10,11
 392.375 905.150390625 392.375 905.150390625 328.412109375 808.9375 c 128,-1,12
 264.450195312 712.724609375 264.450195312 712.724609375 250.474609375 496.650390625 c 1,13,14
 302.075195312 578.349609375 302.075195312 578.349609375 357.974609375 609.525390625 c 128,-1,15
 413.875 640.700195312 413.875 640.700195312 484.825195312 640.700195312 c 128,-1,16
 555.775390625 640.700195312 555.775390625 640.700195312 608.987304688 618.662109375 c 128,-1,17
 662.200195312 596.625 662.200195312 596.625 703.587890625 553.625 c 0,18,19
 790.125 463.714617744 790.125 463.714617744 790.125 319.03510647 c 128,-1,20
 790.125 174.355595197 790.125 174.355595197 700.608431753 78.0401022858 c 128,-1,21
 611.091863506 -18.275390625 611.091863506 -18.275390625 460.883334097 -18.275390625 c 128,-1,22
 310.674804688 -18.275390625 310.674804688 -18.275390625 224.137695312 104.8125 c 128,-1,23
 137.599609375 227.900390625 137.599609375 227.900390625 137.599609375 475.150390625 c 128,-1,24
 137.599609375 722.400390625 137.599609375 722.400390625 232.737304688 866.450195312 c 128,-1,25
 327.875 1010.5 327.875 1010.5 488.049804688 1010.5 c 0,26,27
 604.150390625 1010.5 604.150390625 1010.5 676.174804688 943.3125 c 128,-1,28
 748.200195312 876.125 748.200195312 876.125 768.625 748.200195312 c 1,29,-1
 660.049804688 748.200195312 l 1,8,9
EndSplineSet
EndChar

StartChar: seven
Encoding: 26 55 28
Width: 762
VWidth: 1998
GlyphClass: 2
Flags: W
LayerCount: 2
Fore
SplineSet
770.775390625 878.275390625 m 1,0,1
 455.811735509 507.467187767 455.811735509 507.467187767 371.950195312 4.2998046875 c 1,2,-1
 250.474609375 4.2998046875 l 1,3,4
 320.028055603 441.177822798 320.028055603 441.177822798 648.224609375 872.900390625 c 1,5,-1
 111.799804688 872.900390625 l 1,6,-1
 111.799804688 986.849609375 l 1,7,-1
 770.775390625 986.849609375 l 1,8,-1
 770.775390625 878.275390625 l 1,0,1
EndSplineSet
EndChar

StartChar: eight
Encoding: 27 56 29
Width: 762
VWidth: 1998
GlyphClass: 2
Flags: W
LayerCount: 2
Fore
SplineSet
605.224609375 426.237304688 m 128,-1,1
 550.400390625 480.525390625 550.400390625 480.525390625 455.262695312 480.525390625 c 128,-1,2
 360.125 480.525390625 360.125 480.525390625 303.150390625 426.237304688 c 128,-1,3
 246.174804688 371.950195312 246.174804688 371.950195312 246.174804688 279.5 c 128,-1,4
 246.174804688 187.049804688 246.174804688 187.049804688 304.224609375 132.762695312 c 128,-1,5
 362.275390625 78.474609375 362.275390625 78.474609375 457.950195312 78.474609375 c 128,-1,6
 553.625 78.474609375 553.625 78.474609375 606.837890625 128.462890625 c 128,-1,7
 660.049804688 178.450195312 660.049804688 178.450195312 660.049804688 275.200195312 c 128,-1,0
 660.049804688 371.950195312 660.049804688 371.950195312 605.224609375 426.237304688 c 128,-1,1
446.125 905.150390625 m 128,-1,9
 367.650390625 905.150390625 367.650390625 905.150390625 321.962890625 862.6875 c 128,-1,10
 276.275390625 820.224609375 276.275390625 820.224609375 276.275390625 747.662109375 c 128,-1,11
 276.275390625 675.099609375 276.275390625 675.099609375 326.262695312 627.799804688 c 128,-1,12
 376.25 580.5 376.25 580.5 450.424804688 580.5 c 128,-1,13
 524.599609375 580.5 524.599609375 580.5 575.662109375 627.262695312 c 128,-1,14
 626.724609375 674.025390625 626.724609375 674.025390625 626.724609375 744.4375 c 128,-1,15
 626.724609375 814.849609375 626.724609375 814.849609375 575.662109375 860 c 128,-1,8
 524.599609375 905.150390625 524.599609375 905.150390625 446.125 905.150390625 c 128,-1,9
214.213258607 64.4924366171 m 128,-1,17
 125.775390625 147.260263859 125.775390625 147.260263859 125.775390625 280.575195312 c 0,18,19
 125.775390625 375.174804688 125.775390625 375.174804688 163.9375 433.762695312 c 128,-1,20
 202.099609375 492.349609375 202.099609375 492.349609375 297.775390625 536.424804688 c 1,21,22
 223.599609375 574.049804688 223.599609375 574.049804688 191.887695312 620.275390625 c 128,-1,23
 160.174804688 666.5 160.174804688 666.5 160.174804688 734.224609375 c 0,24,25
 160.174804688 856.775390625 160.174804688 856.775390625 240.262695312 933.637695312 c 128,-1,26
 320.349609375 1010.5 320.349609375 1010.5 450.424804688 1010.5 c 128,-1,27
 580.5 1010.5 580.5 1010.5 661.662109375 937.400390625 c 128,-1,28
 742.825195312 864.299804688 742.825195312 864.299804688 742.825195312 748.200195312 c 0,29,30
 742.825195312 678.325195312 742.825195312 678.325195312 714.875 629.412109375 c 128,-1,31
 686.924804688 580.5 686.924804688 580.5 614.900390625 536.424804688 c 1,32,33
 705.200195312 488.049804688 705.200195312 488.049804688 741.75 430 c 128,-1,34
 778.299804688 371.950195312 778.299804688 371.950195312 778.299804688 296.162597656 c 0,35,36
 778.299804688 146.69796631 778.299804688 146.69796631 692.599763956 64.2112878425 c 128,-1,37
 606.899723223 -18.275390625 606.899723223 -18.275390625 454.775424906 -18.275390625 c 128,-1,16
 302.651126589 -18.275390625 302.651126589 -18.275390625 214.213258607 64.4924366171 c 128,-1,17
EndSplineSet
EndChar

StartChar: nine
Encoding: 28 57 30
Width: 762
VWidth: 1998
GlyphClass: 2
Flags: W
LayerCount: 2
Fore
SplineSet
238.650390625 666.5 m 0,0,1
 238.650390625 446.125 238.650390625 446.125 436.450195312 446.125 c 0,2,3
 531.049804688 446.125 531.049804688 446.125 580.5 508.474609375 c 128,-1,4
 629.950195312 570.825195312 629.950195312 570.825195312 629.950195312 676.712402344 c 128,-1,5
 629.950195312 782.599609375 629.950195312 782.599609375 578.349609375 843.875 c 128,-1,6
 526.75 905.150390625 526.75 905.150390625 434.299804688 905.150390625 c 128,-1,7
 341.849609375 905.150390625 341.849609375 905.150390625 290.25 841.724609375 c 128,-1,8
 238.650390625 778.299804688 238.650390625 778.299804688 238.650390625 666.5 c 0,0,1
432.150390625 1010.5 m 0,9,10
 764.325195312 1010.5 764.325195312 1010.5 764.325195312 530.067065618 c 0,11,12
 764.325195312 285.058935925 764.325195312 285.058935925 670.799804688 132.224609375 c 0,13,14
 626.724609375 60.2001953125 626.724609375 60.2001953125 563.299804688 20.962890625 c 128,-1,15
 499.875 -18.275390625 499.875 -18.275390625 395.600097656 -18.275390625 c 128,-1,16
 291.325195312 -18.275390625 291.325195312 -18.275390625 218.762695312 46.7626953125 c 128,-1,17
 146.200195312 111.799804688 146.200195312 111.799804688 134.375 238.650390625 c 1,18,-1
 246.174804688 238.650390625 l 1,19,20
 264.450195312 74.1748046875 264.450195312 74.1748046875 413.875 74.1748046875 c 0,21,22
 509.191417868 74.1748046875 509.191417868 74.1748046875 561.746979347 154.441361033 c 128,-1,23
 614.302540827 234.707917378 614.302540827 234.707917378 660.049804688 498.799804688 c 1,24,25
 608.450195312 408.5 608.450195312 408.5 552.549804688 375.174804688 c 128,-1,26
 496.650390625 341.849609375 496.650390625 341.849609375 420.325195312 341.849609375 c 0,27,28
 285.950195312 341.849609375 285.950195312 341.849609375 204.25 432.150390625 c 128,-1,29
 122.549804688 522.450195312 122.549804688 522.450195312 122.549804688 666.5 c 0,30,31
 122.549804688 895.248119825 122.549804688 895.248119825 306.375 983.625 c 0,32,33
 362.275390625 1010.5 362.275390625 1010.5 432.150390625 1010.5 c 0,9,10
EndSplineSet
EndChar

StartChar: colon
Encoding: 29 58 31
Width: 302
VWidth: 2201
GlyphClass: 2
Flags: W
LayerCount: 2
Fore
SplineSet
291.325195312 791.200195312 m 1,0,1
 302.075195312 742.821533043 302.075195312 742.821533043 302.075195312 705.198364178 c 0,2,3
 302.075195312 667.575195312 302.075195312 667.575195312 291.325195312 624.575195312 c 1,4,5
 250.204528738 614.900390625 250.204528738 614.900390625 214.596221905 614.900390625 c 0,6,7
 178.987915071 614.900390625 178.987915071 614.900390625 135.450195312 624.575195312 c 1,8,9
 124.700195312 667.575195312 124.700195312 667.575195312 124.700195312 705.198364172 c 0,10,11
 124.700195312 742.821533032 124.700195312 742.821533032 135.450195312 791.200195312 c 1,12,13
 181.138305687 801.950195312 181.138305687 801.950195312 216.881164563 801.950195312 c 0,14,15
 252.624023438 801.950195312 252.624023438 801.950195312 291.325195312 791.200195312 c 1,0,1
291.325195312 296.700195312 m 1,16,17
 302.075195312 248.321533043 302.075195312 248.321533043 302.075195312 210.698364178 c 0,18,19
 302.075195312 173.075195312 302.075195312 173.075195312 291.325195312 130.075195312 c 1,20,21
 250.204528738 120.400390625 250.204528738 120.400390625 214.596221905 120.400390625 c 0,22,23
 178.987915071 120.400390625 178.987915071 120.400390625 135.450195312 130.075195312 c 1,24,25
 124.700195312 173.075195312 124.700195312 173.075195312 124.700195312 210.698364172 c 0,26,27
 124.700195312 248.321533032 124.700195312 248.321533032 135.450195312 296.700195312 c 1,28,29
 181.138305687 307.450195312 181.138305687 307.450195312 216.881164563 307.450195312 c 0,30,31
 252.624023438 307.450195312 252.624023438 307.450195312 291.325195312 296.700195312 c 1,16,17
EndSplineSet
EndChar

StartChar: semicolon
Encoding: 30 59 32
Width: 293
VWidth: 2201
GlyphClass: 2
Flags: W
LayerCount: 2
Fore
SplineSet
291.325195312 662.200195312 m 1,0,1
 302.075195312 613.821533043 302.075195312 613.821533043 302.075195312 576.198364178 c 0,2,3
 302.075195312 538.575195312 302.075195312 538.575195312 291.325195312 495.575195312 c 1,4,5
 250.204528738 485.900390625 250.204528738 485.900390625 214.596221905 485.900390625 c 0,6,7
 178.987915071 485.900390625 178.987915071 485.900390625 135.450195312 495.575195312 c 1,8,9
 124.700195312 538.575195312 124.700195312 538.575195312 124.700195312 576.198364172 c 0,10,11
 124.700195312 613.821533032 124.700195312 613.821533032 135.450195312 662.200195312 c 1,12,13
 181.138305687 672.950195312 181.138305687 672.950195312 212.042419365 672.950195312 c 0,14,15
 242.946533043 672.950195312 242.946533043 672.950195312 291.325195312 662.200195312 c 1,0,1
137.599609375 178.450195312 m 1,16,17
 183.290161266 189.200195312 183.290161266 189.200195312 218.495178289 189.200195312 c 128,-1,18
 253.700195312 189.200195312 253.700195312 189.200195312 294.549804688 178.450195312 c 1,19,-1
 294.549804688 13.974609375 l 2,20,21
 294.549804688 -209.250186439 294.549804688 -209.250186439 137.599609375 -249.400390625 c 1,22,-1
 137.599609375 -189.200195312 l 1,23,24
 215.723277474 -170.342251875 215.723277474 -170.342251875 226.287109375 -45.6875 c 0,25,26
 228.974609375 -13.974609375 228.974609375 -13.974609375 230.049804688 11.8251953125 c 1,27,-1
 137.599609375 11.8251953125 l 1,28,29
 126.849609375 54.8251953125 126.849609375 54.8251953125 126.849609375 91.105529741 c 0,30,31
 126.849609375 127.385864169 126.849609375 127.385864169 137.599609375 178.450195312 c 1,16,17
EndSplineSet
EndChar

StartChar: less
Encoding: 31 60 33
Width: 701
VWidth: 1998
GlyphClass: 2
Flags: W
LayerCount: 2
Fore
SplineSet
141.900390625 420.325195312 m 1,0,-1
 141.900390625 480.525390625 l 1,1,-1
 704.125 991.150390625 l 1,2,-1
 704.125 872.900390625 l 1,3,-1
 238.650390625 450.424804688 l 1,4,-1
 704.125 30.099609375 l 1,5,-1
 704.125 -90.2998046875 l 1,6,-1
 141.900390625 420.325195312 l 1,0,-1
EndSplineSet
EndChar

StartChar: equal
Encoding: 32 61 34
Width: 885
VWidth: 1998
GlyphClass: 2
Flags: W
LayerCount: 2
Fore
SplineSet
141.900390625 250.474609375 m 1,0,-1
 141.900390625 327.875 l 1,1,-1
 891.174804688 327.875 l 1,2,-1
 891.174804688 250.474609375 l 1,3,-1
 141.900390625 250.474609375 l 1,0,-1
141.900390625 574.049804688 m 1,4,-1
 141.900390625 652.525390625 l 1,5,-1
 891.174804688 652.525390625 l 1,6,-1
 891.174804688 574.049804688 l 1,7,-1
 141.900390625 574.049804688 l 1,4,-1
EndSplineSet
EndChar

StartChar: greater
Encoding: 33 62 35
Width: 701
VWidth: 1998
GlyphClass: 2
Flags: W
LayerCount: 2
Fore
SplineSet
141.900390625 -90.2998046875 m 1,0,-1
 141.900390625 30.099609375 l 1,1,-1
 604.150390625 450.424804688 l 1,2,-1
 141.900390625 872.900390625 l 1,3,-1
 141.900390625 991.150390625 l 1,4,-1
 704.125 480.525390625 l 1,5,-1
 704.125 420.325195312 l 1,6,-1
 141.900390625 -90.2998046875 l 1,0,-1
EndSplineSet
EndChar

StartChar: question
Encoding: 34 63 36
Width: 847
VWidth: 2201
GlyphClass: 2
Flags: W
LayerCount: 2
Fore
SplineSet
488.049804688 1180.34960938 m 0,0,1
 254.439446028 1180.34960938 254.439446028 1180.34960938 249.400390625 903 c 1,2,-1
 123.625 903 l 1,3,4
 123.625 1179.44438217 123.625 1179.44438217 332.174804688 1267.42480469 c 0,5,6
 400.974609375 1296.45019531 400.974609375 1296.45019531 484.824707031 1296.45019531 c 0,7,8
 647.989668528 1296.45019531 647.989668528 1296.45019531 747.007529577 1204.1827622 c 128,-1,9
 846.025390625 1111.9153291 846.025390625 1111.9153291 846.025390625 970.58156426 c 128,-1,10
 846.025390625 829.24779942 846.025390625 829.24779942 753.037109375 731 c 0,11,12
 724.549804688 700.900390625 724.549804688 700.900390625 661.1778138 636.581510338 c 0,13,14
 597.805822913 572.26263005 597.805822913 572.26263005 567.652911456 520.331263166 c 128,-1,15
 537.5 468.399896282 537.5 468.399896282 537.5 362.275390625 c 2,16,-1
 537.5 341.849609375 l 1,17,-1
 409.575195312 341.849609375 l 1,18,19
 409.575195312 474.01323087 409.575195312 474.01323087 435.375 529.406517779 c 128,-1,20
 461.174804688 584.799804688 461.174804688 584.799804688 492.349609375 621.887695312 c 128,-1,21
 523.525390625 658.974609375 523.525390625 658.974609375 560.075195312 698.212402344 c 128,-1,22
 596.625 737.450195312 596.625 737.450195312 622.424804688 763.787109375 c 128,-1,23
 648.224609375 790.125 648.224609375 790.125 668.112304688 818.612304688 c 0,24,25
 711.650390625 880.976630977 711.650390625 880.976630977 711.650390625 971.001010799 c 128,-1,26
 711.650390625 1061.02539062 711.650390625 1061.02539062 651.987304688 1120.6875 c 128,-1,27
 592.325195312 1180.34960938 592.325195312 1180.34960938 488.049804688 1180.34960938 c 0,0,1
549.325195312 178.450195312 m 1,28,29
 560.075195312 130.071533043 560.075195312 130.071533043 560.075195312 92.4483641778 c 128,-1,30
 560.075195312 54.8251953125 560.075195312 54.8251953125 549.325195312 11.8251953125 c 1,31,32
 473.612862727 -5.98828125 473.612862727 -5.98828125 393.450195312 11.8251953125 c 1,33,34
 382.700195312 54.8251953125 382.700195312 54.8251953125 382.700195312 92.4483641722 c 128,-1,35
 382.700195312 130.071533032 382.700195312 130.071533032 393.450195312 178.450195312 c 1,36,37
 439.138305687 189.200195312 439.138305687 189.200195312 474.881164563 189.200195312 c 128,-1,38
 510.624023438 189.200195312 510.624023438 189.200195312 549.325195312 178.450195312 c 1,28,29
EndSplineSet
EndChar

StartChar: at
Encoding: 35 64 37
Width: 1320
VWidth: 1998
GlyphClass: 2
Flags: W
LayerCount: 2
Fore
SplineSet
563.098309546 774.476322948 m 128,-1,1
 476.224609375 663.65772402 476.224609375 663.65772402 476.224609375 527.631835938 c 0,2,3
 476.224609375 455.681640625 476.224609375 455.681640625 519.224609375 403.544921875 c 128,-1,4
 562.224609375 351.407226562 562.224609375 351.407226562 622.424804688 351.407226562 c 0,5,6
 732.7838551 351.407226562 732.7838551 351.407226562 818.967122863 465.923214965 c 128,-1,7
 905.150390625 580.439203369 905.150390625 580.439203369 905.150390625 709.0703125 c 0,8,9
 905.150390625 772.224519224 905.150390625 772.224519224 860.223651676 828.75972055 c 128,-1,10
 815.296912728 885.294921875 815.296912728 885.294921875 732.634461223 885.294921875 c 128,-1,0
 649.972009718 885.294921875 649.972009718 885.294921875 563.098309546 774.476322948 c 128,-1,1
1267.42480469 263.815429688 m 1,11,12
 1075.98321562 -17.7275390625 1075.98321562 -17.7275390625 748.200195312 -17.7275390625 c 0,13,14
 483.56899297 -17.7275390625 483.56899297 -17.7275390625 293.922191798 168.473640385 c 128,-1,15
 104.275390625 354.674819832 104.275390625 354.674819832 104.275390625 628.778320312 c 0,16,17
 104.275390625 762.25 104.275390625 762.25 154.262695312 882.166992188 c 128,-1,18
 204.25 1002.08300781 204.25 1002.08300781 292.400390625 1088.109375 c 128,-1,19
 380.549804688 1174.13671875 380.549804688 1174.13671875 497.724609375 1224.70996094 c 128,-1,20
 614.900390625 1275.28320312 614.900390625 1275.28320312 740.137695312 1275.28320312 c 128,-1,21
 865.375 1275.28320312 865.375 1275.28320312 971.262695312 1233.57324219 c 128,-1,22
 1077.15039062 1191.86328125 1077.15039062 1191.86328125 1155.08789062 1119.91308594 c 128,-1,23
 1233.02539062 1047.96386719 1233.02539062 1047.96386719 1278.17480469 949.9453125 c 128,-1,24
 1323.32519531 851.926757812 1323.32519531 851.926757812 1323.32519531 750.779785156 c 128,-1,25
 1323.32519531 649.6328125 1323.32519531 649.6328125 1287.84960938 561.521484375 c 128,-1,26
 1252.375 473.408203125 1252.375 473.408203125 1196.47460938 402.501953125 c 128,-1,27
 1140.57519531 331.59375 1140.57519531 331.59375 1067.47460938 289.883789062 c 128,-1,28
 994.375 248.173828125 994.375 248.173828125 937.399902344 248.173828125 c 128,-1,29
 880.424804688 248.173828125 880.424804688 248.173828125 855.700195312 275.286132812 c 128,-1,30
 830.974609375 302.397460938 830.974609375 302.397460938 826.674804688 376.432617188 c 1,31,32
 752.5 304.483398438 752.5 304.483398438 702.512695312 276.329101562 c 128,-1,33
 652.525390625 248.173828125 652.525390625 248.173828125 602.537597656 248.173828125 c 0,34,35
 498.100252923 248.173828125 498.100252923 248.173828125 430.187821774 325.214876018 c 128,-1,36
 362.275390625 402.255923912 362.275390625 402.255923912 362.275390625 511.346223675 c 0,37,38
 362.275390625 712.877114401 362.275390625 712.877114401 475.318830083 849.659260325 c 128,-1,39
 588.362269542 986.44140625 588.362269542 986.44140625 748.200195312 986.44140625 c 0,40,41
 812.700195312 986.44140625 812.700195312 986.44140625 857.849609375 954.116210938 c 128,-1,42
 903 921.791015625 903 921.791015625 950.299804688 831.072265625 c 1,43,-1
 991.150390625 957.244140625 l 1,44,-1
 1084.67480469 957.244140625 l 1,45,-1
 1006.20019531 687.171875 l 2,46,47
 930.950195312 426.76955483 930.950195312 426.76955483 930.950195312 400.036632884 c 128,-1,48
 930.950195312 373.303710938 930.950195312 373.303710938 940.625 356.62109375 c 128,-1,49
 950.299804688 339.936523438 950.299804688 339.936523438 989.537597654 339.936523438 c 128,-1,50
 1028.77539062 339.936523438 1028.77539062 339.936523438 1075 373.826171875 c 128,-1,51
 1121.22460938 407.715820312 1121.22460938 407.715820312 1158.84960938 464.0234375 c 0,52,53
 1237.32519531 581.46795278 1237.32519531 581.46795278 1237.32519531 734.095703125 c 0,54,55
 1237.32519531 831.072265625 1237.32519531 831.072265625 1200.23730469 916.577148438 c 128,-1,56
 1163.15039062 1002.08300781 1163.15039062 1002.08300781 1098.11230469 1060.99804688 c 0,57,58
 955.950017052 1189.77832031 955.950017052 1189.77832031 737.757378523 1189.77832031 c 128,-1,59
 519.564739994 1189.77832031 519.564739994 1189.77832031 364.057272341 1027.84525923 c 128,-1,60
 208.549804688 865.912198152 208.549804688 865.912198152 208.549804688 625.521977675 c 128,-1,61
 208.549804688 385.131757198 208.549804688 385.131757198 364.309599869 225.412070005 c 128,-1,62
 520.069395051 65.6923828125 520.069395051 65.6923828125 762.814239647 65.6923828125 c 128,-1,63
 1005.55908424 65.6923828125 1005.55908424 65.6923828125 1180.34960938 263.815429688 c 1,64,-1
 1267.42480469 263.815429688 l 1,11,12
EndSplineSet
EndChar

StartChar: A
Encoding: 36 65 38
Width: 1168
VWidth: 1998
GlyphClass: 2
Flags: W
LayerCount: 2
Fore
SplineSet
636.400390625 1144.875 m 1,0,-1
 418.174804688 522.450195312 l 1,1,-1
 838.5 522.450195312 l 1,2,-1
 636.400390625 1144.875 l 1,0,-1
1012.65039062 11.8251953125 m 1,3,-1
 891.174804688 388.075195312 l 1,4,-1
 376.25 388.075195312 l 1,5,-1
 246.174804688 11.8251953125 l 1,6,-1
 99.974609375 11.8251953125 l 1,7,-1
 554.700195312 1281.40039062 l 1,8,-1
 731 1281.40039062 l 1,9,-1
 1170.67480469 11.8251953125 l 1,10,-1
 1012.65039062 11.8251953125 l 1,3,-1
EndSplineSet
EndChar

StartChar: B
Encoding: 37 66 39
Width: 1034
VWidth: 1998
GlyphClass: 2
Flags: W
LayerCount: 2
Fore
SplineSet
891.174804688 388.075195312 m 0,0,1
 891.174804688 614.900390625 891.174804688 614.900390625 588.025390625 614.900390625 c 2,2,-1
 250.474609375 614.900390625 l 1,3,-1
 250.474609375 137.599609375 l 1,4,-1
 622.424804688 137.599609375 l 2,5,6
 748.200195312 137.599609375 748.200195312 137.599609375 819.6875 201.025390625 c 128,-1,7
 891.174804688 264.450195312 891.174804688 264.450195312 891.174804688 388.075195312 c 0,0,1
830.974609375 950.299804688 m 0,8,9
 830.974609375 1154.54980469 830.974609375 1154.54980469 562.224609375 1154.54980469 c 2,10,-1
 250.474609375 1154.54980469 l 1,11,-1
 250.474609375 734.224609375 l 1,12,-1
 562.224609375 734.224609375 l 2,13,14
 699.825195312 734.224609375 699.825195312 734.224609375 765.400390625 786.362304688 c 128,-1,15
 830.974609375 838.5 830.974609375 838.5 830.974609375 950.299804688 c 0,8,9
629.950195312 11.8251953125 m 2,16,-1
 104.275390625 11.8251953125 l 1,17,-1
 104.275390625 1281.40039062 l 1,18,-1
 636.400390625 1281.40039062 l 2,19,20
 787.974609375 1281.40039062 787.974609375 1281.40039062 882.575195312 1195.9375 c 128,-1,21
 977.174804688 1110.47460938 977.174804688 1110.47460938 977.174804688 964.275390625 c 0,22,23
 977.174804688 873.974609375 977.174804688 873.974609375 935.787109375 811.087890625 c 128,-1,24
 894.400390625 748.200195312 894.400390625 748.200195312 796.575195312 696.599609375 c 1,25,26
 931.859282179 636.473782045 931.859282179 636.473782045 984.079543434 567.182152237 c 128,-1,27
 1036.29980469 497.89052243 1036.29980469 497.89052243 1036.29980469 399.982858871 c 0,28,29
 1036.29980469 219.332651295 1036.29980469 219.332651295 924.476975908 115.578923304 c 128,-1,30
 812.654147126 11.8251953125 812.654147126 11.8251953125 629.950195312 11.8251953125 c 2,16,-1
EndSplineSet
EndChar

StartChar: C
Encoding: 38 67 40
Width: 1164
VWidth: 1998
GlyphClass: 2
Flags: W
LayerCount: 2
Fore
SplineSet
1024.47460938 907.8046875 m 1,0,1
 952.822322238 1168.54589844 952.822322238 1168.54589844 689.074707031 1168.54589844 c 0,2,3
 473.136703237 1168.54589844 473.136703237 1168.54589844 363.418449274 1024.08020834 c 128,-1,4
 253.700195312 879.614518237 253.700195312 879.614518237 253.700195312 630.839973963 c 128,-1,5
 253.700195312 382.065429688 253.700195312 382.065429688 360.125 246.374023438 c 128,-1,6
 466.549804688 110.681640625 466.549804688 110.681640625 662.200195312 110.681640625 c 0,7,8
 804.099609375 110.681640625 804.099609375 110.681640625 897.625 192.096679688 c 128,-1,9
 991.150390625 273.512695312 991.150390625 273.512695312 1036.29980469 461.884765625 c 1,10,-1
 1172.82519531 461.884765625 l 1,11,12
 1131.68848703 258.265102007 1131.68848703 258.265102007 1054.57519531 164.426757812 c 0,13,14
 904.586595459 -18.0927734375 904.586595459 -18.0927734375 650.362233683 -18.0927734375 c 128,-1,15
 396.137871908 -18.0927734375 396.137871908 -18.0927734375 250.206631266 160.052428712 c 128,-1,16
 104.275390625 338.197630862 104.275390625 338.197630862 104.275390625 642.50723276 c 128,-1,17
 104.275390625 946.816834659 104.275390625 946.816834659 257.226899315 1124.19699155 c 128,-1,18
 410.178408005 1301.57714844 410.178408005 1301.57714844 670.799804688 1301.57714844 c 0,19,20
 868.599609375 1301.57714844 868.599609375 1301.57714844 998.674804688 1200.47363281 c 128,-1,21
 1128.75 1099.37011719 1128.75 1099.37011719 1163.15039062 907.8046875 c 1,22,-1
 1024.47460938 907.8046875 l 1,0,1
EndSplineSet
EndChar

StartChar: D
Encoding: 39 68 41
Width: 1029
VWidth: 1998
GlyphClass: 2
Flags: W
LayerCount: 2
Fore
SplineSet
574.049804688 1154.54980469 m 2,0,-1
 246.174804688 1154.54980469 l 1,1,-1
 246.174804688 137.599609375 l 1,2,-1
 580.5 137.599609375 l 2,3,4
 756.904582932 137.599609375 756.904582932 137.599609375 855.752096153 273.789327262 c 0,5,6
 954.599609375 409.979045149 954.599609375 409.979045149 954.599609375 650.576924918 c 128,-1,7
 954.599609375 891.174804688 954.599609375 891.174804688 857.3125 1022.86230469 c 128,-1,8
 760.025390625 1154.54980469 760.025390625 1154.54980469 574.049804688 1154.54980469 c 2,0,-1
584.799804688 11.8251953125 m 2,9,-1
 104.275390625 11.8251953125 l 1,10,-1
 104.275390625 1281.40039062 l 1,11,-1
 592.325195312 1281.40039062 l 2,12,13
 831.094563249 1281.40039062 831.094563249 1281.40039062 964.872476934 1113.34965369 c 0,14,15
 1098.65039062 945.298916758 1098.65039062 945.298916758 1098.65039062 660.049804688 c 0,16,17
 1098.65039062 211.221469363 1098.65039062 211.221469363 807.862304688 61.8125 c 0,18,19
 710.575195312 11.8251953125 710.575195312 11.8251953125 584.799804688 11.8251953125 c 2,9,-1
EndSplineSet
EndChar

StartChar: E
Encoding: 40 69 42
Width: 969
VWidth: 1998
GlyphClass: 2
Flags: W
LayerCount: 2
Fore
SplineSet
99.974609375 11.8251953125 m 1,0,-1
 99.974609375 1281.40039062 l 1,1,-1
 977.174804688 1281.40039062 l 1,2,-1
 977.174804688 1147.02539062 l 1,3,-1
 246.174804688 1147.02539062 l 1,4,-1
 246.174804688 731 l 1,5,-1
 920.200195312 731 l 1,6,-1
 920.200195312 596.625 l 1,7,-1
 246.174804688 596.625 l 1,8,-1
 246.174804688 146.200195312 l 1,9,-1
 986.849609375 146.200195312 l 1,10,-1
 986.849609375 11.8251953125 l 1,11,-1
 99.974609375 11.8251953125 l 1,0,-1
EndSplineSet
EndChar

StartChar: F
Encoding: 41 70 43
Width: 922
VWidth: 1998
GlyphClass: 2
Flags: W
LayerCount: 2
Fore
SplineSet
246.174804688 1147.02539062 m 1,0,-1
 246.174804688 731 l 1,1,-1
 848.174804688 731 l 1,2,-1
 848.174804688 596.625 l 1,3,-1
 246.174804688 596.625 l 1,4,-1
 246.174804688 11.8251953125 l 1,5,-1
 99.974609375 11.8251953125 l 1,6,-1
 99.974609375 1281.40039062 l 1,7,-1
 930.950195312 1281.40039062 l 1,8,-1
 930.950195312 1147.02539062 l 1,9,-1
 246.174804688 1147.02539062 l 1,0,-1
EndSplineSet
EndChar

StartChar: G
Encoding: 42 71 44
Width: 1198
VWidth: 1998
GlyphClass: 2
Flags: W
LayerCount: 2
Fore
SplineSet
1038.45019531 903.547851562 m 1,0,1
 963.419640173 1168.54589844 963.419640173 1168.54589844 666.5 1168.54589844 c 0,2,3
 474.855831257 1168.54589844 474.855831257 1168.54589844 358.365415629 1022.17049196 c 128,-1,4
 241.875 875.795085487 241.875 875.795085487 241.875 626.269613056 c 128,-1,5
 241.875 376.744140625 241.875 376.744140625 352.0625 239.98828125 c 128,-1,6
 462.25 103.232421875 462.25 103.232421875 670.799804688 103.232421875 c 0,7,8
 952.14200355 103.232421875 952.14200355 103.232421875 1035.22460938 346.9453125 c 0,9,10
 1064.25 432.0859375 1064.25 432.0859375 1064.25 549.153320312 c 1,11,-1
 682.625 549.153320312 l 1,12,-1
 682.625 675.798828125 l 1,13,-1
 1200.77539062 675.798828125 l 1,14,-1
 1200.77539062 11.70703125 l 1,15,-1
 1114.77539062 11.70703125 l 1,16,-1
 1072.84960938 195.822265625 l 1,17,18
 972.875 71.3046875 972.875 71.3046875 870.75 26.6064453125 c 128,-1,19
 768.625 -18.0927734375 768.625 -18.0927734375 641.774902344 -18.0927734375 c 0,20,21
 396.28237859 -18.0927734375 396.28237859 -18.0927734375 245.440993982 163.802778532 c 128,-1,22
 94.599609375 345.698330501 94.599609375 345.698330501 94.599609375 635.053873432 c 128,-1,23
 94.599609375 924.409416364 94.599609375 924.409416364 250.351638691 1112.9932824 c 128,-1,24
 406.103668007 1301.57714844 406.103668007 1301.57714844 666.5 1301.57714844 c 0,25,26
 856.420062781 1301.57714844 856.420062781 1301.57714844 999.226999046 1195.54144564 c 128,-1,27
 1142.03393531 1089.50574284 1142.03393531 1089.50574284 1177.125 903.547851562 c 1,28,-1
 1038.45019531 903.547851562 l 1,0,1
EndSplineSet
EndChar

StartChar: H
Encoding: 43 72 45
Width: 1064
VWidth: 1998
GlyphClass: 2
Flags: W
LayerCount: 2
Fore
SplineSet
920.200195312 11.8251953125 m 1,0,-1
 920.200195312 614.900390625 l 1,1,-1
 250.474609375 614.900390625 l 1,2,-1
 250.474609375 11.8251953125 l 1,3,-1
 104.275390625 11.8251953125 l 1,4,-1
 104.275390625 1281.40039062 l 1,5,-1
 250.474609375 1281.40039062 l 1,6,-1
 250.474609375 744.974609375 l 1,7,-1
 920.200195312 744.974609375 l 1,8,-1
 920.200195312 1281.40039062 l 1,9,-1
 1063.17480469 1281.40039062 l 1,10,-1
 1063.17480469 11.8251953125 l 1,11,-1
 920.200195312 11.8251953125 l 1,0,-1
EndSplineSet
EndChar

StartChar: I
Encoding: 44 73 46
Width: 244
VWidth: 1998
GlyphClass: 2
Flags: W
LayerCount: 2
Fore
SplineSet
104.275390625 11.8251953125 m 1,0,-1
 104.275390625 1281.40039062 l 1,1,-1
 246.174804688 1281.40039062 l 1,2,-1
 246.174804688 11.8251953125 l 1,3,-1
 104.275390625 11.8251953125 l 1,0,-1
EndSplineSet
EndChar

StartChar: J
Encoding: 45 74 47
Width: 783
VWidth: 1998
GlyphClass: 2
Flags: W
LayerCount: 2
Fore
SplineSet
786.900390625 350.450195312 m 2,0,1
 786.900390625 168.775390625 786.900390625 168.775390625 695.525390625 75.25 c 128,-1,2
 604.150390625 -18.275390625 604.150390625 -18.275390625 444.512695312 -18.275390625 c 0,3,4
 284.875 -18.275390625 284.875 -18.275390625 192.424804688 63.962890625 c 128,-1,5
 99.974609375 146.200195312 99.974609375 146.200195312 99.974609375 285.950195312 c 2,6,-1
 99.974609375 402.049804688 l 1,7,-1
 234.349609375 402.049804688 l 1,8,-1
 234.349609375 327.875 l 2,9,10
 234.349609375 103.200195312 234.349609375 103.200195312 436.450195312 104.275390625 c 0,11,12
 640.700195312 104.275390625 640.700195312 104.275390625 640.700195312 338.625 c 2,13,-1
 640.700195312 1281.40039062 l 1,14,-1
 786.900390625 1281.40039062 l 1,15,-1
 786.900390625 350.450195312 l 2,0,1
EndSplineSet
EndChar

StartChar: K
Encoding: 46 75 48
Width: 1082
VWidth: 1998
GlyphClass: 2
Flags: W
LayerCount: 2
Fore
SplineSet
894.400390625 11.8251953125 m 1,0,-1
 457.950195312 666.5 l 1,1,-1
 250.474609375 457.950195312 l 1,2,-1
 250.474609375 11.8251953125 l 1,3,-1
 104.275390625 11.8251953125 l 1,4,-1
 104.275390625 1281.40039062 l 1,5,-1
 250.474609375 1281.40039062 l 1,6,-1
 250.474609375 636.400390625 l 1,7,-1
 868.599609375 1281.40039062 l 1,8,-1
 1063.17480469 1281.40039062 l 1,9,-1
 557.924804688 770.775390625 l 1,10,-1
 1084.67480469 11.8251953125 l 1,11,-1
 894.400390625 11.8251953125 l 1,0,-1
EndSplineSet
EndChar

StartChar: L
Encoding: 47 76 49
Width: 866
VWidth: 1998
GlyphClass: 2
Flags: W
LayerCount: 2
Fore
SplineSet
99.974609375 11.8251953125 m 1,0,-1
 99.974609375 1281.40039062 l 1,1,-1
 246.174804688 1281.40039062 l 1,2,-1
 246.174804688 146.200195312 l 1,3,-1
 872.900390625 146.200195312 l 1,4,-1
 872.900390625 11.8251953125 l 1,5,-1
 99.974609375 11.8251953125 l 1,0,-1
EndSplineSet
EndChar

StartChar: M
Encoding: 48 77 50
Width: 1262
VWidth: 1998
GlyphClass: 2
Flags: W
LayerCount: 2
Fore
SplineSet
1133.04980469 11.8251953125 m 1,0,-1
 1133.04980469 1177.125 l 1,1,-1
 756.799804688 11.8251953125 l 1,2,-1
 610.599609375 11.8251953125 l 1,3,-1
 241.875 1172.82519531 l 1,4,-1
 241.875 11.8251953125 l 1,5,-1
 104.275390625 11.8251953125 l 1,6,-1
 104.275390625 1281.40039062 l 1,7,-1
 320.349609375 1281.40039062 l 1,8,-1
 686.924804688 151.575195312 l 1,9,-1
 1047.04980469 1281.40039062 l 1,10,-1
 1263.125 1281.40039062 l 1,11,-1
 1263.125 11.8251953125 l 1,12,-1
 1133.04980469 11.8251953125 l 1,0,-1
EndSplineSet
EndChar

StartChar: N
Encoding: 49 78 51
Width: 1064
VWidth: 1998
GlyphClass: 2
Flags: W
LayerCount: 2
Fore
SplineSet
894.400390625 11.8251953125 m 1,0,-1
 238.650390625 1094.34960938 l 1,1,-1
 238.650390625 11.8251953125 l 1,2,-1
 99.974609375 11.8251953125 l 1,3,-1
 99.974609375 1281.40039062 l 1,4,-1
 280.575195312 1281.40039062 l 1,5,-1
 924.5 197.799804688 l 1,6,-1
 924.5 1281.40039062 l 1,7,-1
 1063.17480469 1281.40039062 l 1,8,-1
 1063.17480469 11.8251953125 l 1,9,-1
 894.400390625 11.8251953125 l 1,0,-1
EndSplineSet
EndChar

StartChar: O
Encoding: 50 79 52
Width: 1284
VWidth: 1998
GlyphClass: 2
Flags: W
LayerCount: 2
Fore
SplineSet
373.174178754 1027.26757812 m 128,-1,1
 253.700195312 885.98925781 253.700195312 885.98925781 253.700195312 640.413574218 c 128,-1,2
 253.700195312 394.837890626 253.700195312 394.837890626 371.119375227 252.759765625 c 128,-1,3
 488.538555142 110.681640625 488.538555142 110.681640625 693.192457789 110.681640625 c 128,-1,4
 897.846360437 110.681640625 897.846360437 110.681640625 1017.59798491 259.972791521 c 128,-1,5
 1137.34960938 409.263942417 1137.34960938 409.263942417 1137.34960938 639.828060873 c 128,-1,6
 1137.34960938 870.392179329 1137.34960938 870.392179329 1018.70929141 1019.46903888 c 128,-1,7
 900.068973434 1168.54589844 900.068973434 1168.54589844 696.358567815 1168.54589844 c 128,-1,0
 492.648162197 1168.54589844 492.648162197 1168.54589844 373.174178754 1027.26757812 c 128,-1,1
263.138556738 164.47866194 m 128,-1,9
 104.275390625 347.050097318 104.275390625 347.050097318 104.275390625 640.99728223 c 128,-1,10
 104.275390625 934.944467143 104.275390625 934.944467143 265.876038076 1118.26080779 c 128,-1,11
 427.476685527 1301.57714844 427.476685527 1301.57714844 693.255395971 1301.57714844 c 128,-1,12
 959.034106415 1301.57714844 959.034106415 1301.57714844 1121.76269531 1117.46289062 c 128,-1,13
 1284.625 933.195331295 1284.625 933.195331295 1284.625 643.587638304 c 128,-1,14
 1284.625 353.979945314 1284.625 353.979945314 1128.40694558 167.943585938 c 128,-1,15
 972.18889115 -18.0927734375 972.18889115 -18.0927734375 697.095307 -18.0927734375 c 128,-1,8
 422.001722851 -18.0927734375 422.001722851 -18.0927734375 263.138556738 164.47866194 c 128,-1,9
EndSplineSet
EndChar

StartChar: P
Encoding: 51 80 53
Width: 996
VWidth: 1998
GlyphClass: 2
Flags: W
LayerCount: 2
Fore
SplineSet
596.625 1154.54980469 m 2,0,-1
 246.174804688 1154.54980469 l 1,1,-1
 246.174804688 682.625 l 1,2,-1
 584.799804688 682.625 l 2,3,4
 849.25 682.625 849.25 682.625 852.474609375 924.5 c 0,5,6
 852.474609375 1154.54980469 852.474609375 1154.54980469 596.625 1154.54980469 c 2,0,-1
645 557.924804688 m 2,7,-1
 246.174804688 557.924804688 l 1,8,-1
 246.174804688 11.8251953125 l 1,9,-1
 99.974609375 11.8251953125 l 1,10,-1
 99.974609375 1281.40039062 l 1,11,-1
 645 1281.40039062 l 2,12,13
 797.938782166 1281.40039062 797.938782166 1281.40039062 898.306793427 1184.45463121 c 0,14,15
 998.674804688 1087.50887179 998.674804688 1087.50887179 998.674804688 922.15433824 c 128,-1,16
 998.674804688 756.799804688 998.674804688 756.799804688 904.075195312 657.362304688 c 128,-1,17
 809.474609375 557.924804688 809.474609375 557.924804688 645 557.924804688 c 2,7,-1
EndSplineSet
EndChar

StartChar: Q
Encoding: 52 81 54
Width: 1280
VWidth: 1998
GlyphClass: 2
Flags: W
LayerCount: 2
Fore
SplineSet
369.34898347 1025.3250913 m 128,-1,1
 250.474609375 882.10428416 250.474609375 882.10428416 250.474609375 643.711384286 c 128,-1,2
 250.474609375 405.318484411 250.474609375 405.318484411 366.45611947 258.000062518 c 128,-1,3
 482.437629565 110.681640625 482.437629565 110.681640625 688 110.681640625 c 0,4,5
 801.948613146 110.681640625 801.948613146 110.681640625 898.700195312 158.573242188 c 1,6,-1
 760.025390625 264.998046875 l 1,7,-1
 830.974609375 354.39453125 l 1,8,-1
 986.849609375 227.749023438 l 1,9,10
 1065.32519531 321.404296875 1065.32519531 321.404296875 1099.1875 417.186523438 c 128,-1,11
 1133.04980469 512.96875 1133.04980469 512.96875 1133.04980469 635.357421875 c 0,12,13
 1133.04980469 876.922595165 1133.04980469 876.922595165 1012.0249832 1022.7342468 c 128,-1,14
 891.000161717 1168.54589844 891.000161717 1168.54589844 689.611759641 1168.54589844 c 128,-1,0
 488.223357566 1168.54589844 488.223357566 1168.54589844 369.34898347 1025.3250913 c 128,-1,1
1094.34960938 136.223632812 m 1,15,-1
 1263.125 4.2568359375 l 1,16,-1
 1196.47460938 -80.8828125 l 1,17,-1
 1010.5 67.046875 l 1,18,19
 932.025390625 19.15625 932.025390625 19.15625 859.462890625 0.53125 c 128,-1,20
 786.900390625 -18.0927734375 786.900390625 -18.0927734375 664.350097656 -18.0927734375 c 128,-1,21
 541.799804688 -18.0927734375 541.799804688 -18.0927734375 434.837890625 33.5234375 c 128,-1,22
 327.875 85.1396484375 327.875 85.1396484375 252.087890625 175.069335938 c 0,23,24
 99.974609375 355.56408165 99.974609375 355.56408165 99.974609375 642.546181712 c 128,-1,25
 99.974609375 929.528281773 99.974609375 929.528281773 259.579977557 1115.55271511 c 128,-1,26
 419.185345739 1301.57714844 419.185345739 1301.57714844 692.196371658 1301.57714844 c 128,-1,27
 965.207397577 1301.57714844 965.207397577 1301.57714844 1123.3038941 1113.3048737 c 128,-1,28
 1281.40039062 925.03259896 1281.40039062 925.03259896 1281.40039062 641.7421875 c 0,29,30
 1281.40039062 420.945745326 1281.40039062 420.945745326 1186.79980469 263.93359375 c 0,31,32
 1150.25 203.271484375 1150.25 203.271484375 1094.34960938 136.223632812 c 1,15,-1
EndSplineSet
EndChar

StartChar: R
Encoding: 53 82 55
Width: 1056
VWidth: 1998
GlyphClass: 2
Flags: W
LayerCount: 2
Fore
SplineSet
678.325195312 1154.54980469 m 2,0,-1
 246.174804688 1154.54980469 l 1,1,-1
 246.174804688 692.299804688 l 1,2,-1
 645 692.299804688 l 2,3,4
 909.450195312 692.299804688 909.450195312 692.299804688 908.375 928.799804688 c 1,5,6
 912.674804688 1154.54980469 912.674804688 1154.54980469 678.325195312 1154.54980469 c 2,0,-1
924.5 11.8251953125 m 1,7,8
 898.700195312 98.6036448279 898.700195312 98.6036448279 898.700195312 324.650390625 c 0,9,10
 898.700195312 454.724609375 898.700195312 454.724609375 842.799804688 510.625 c 128,-1,11
 786.900390625 566.525390625 786.900390625 566.525390625 662.200195312 566.525390625 c 2,12,-1
 246.174804688 566.525390625 l 1,13,-1
 246.174804688 11.8251953125 l 1,14,-1
 104.275390625 11.8251953125 l 1,15,-1
 104.275390625 1281.40039062 l 1,16,-1
 662.200195312 1281.40039062 l 2,17,18
 856.775390625 1281.40039062 856.775390625 1281.40039062 957.825195312 1195.9375 c 128,-1,19
 1058.875 1110.47460938 1058.875 1110.47460938 1058.875 951.523381912 c 0,20,21
 1058.875 792.572154445 1058.875 792.572154445 963.737304688 700.362304688 c 0,22,23
 928.799804688 666.5 928.799804688 666.5 872.900390625 634.25 c 1,24,25
 964.730432674 596.172640102 964.730432674 596.172640102 997.22102176 550.303620414 c 0,26,27
 1029.71161085 504.434600725 1029.71161085 504.434600725 1036.29980469 390.224609375 c 1,28,-1
 1042.75 155.875 l 1,29,30
 1047.04980469 95.6748046875 1047.04980469 95.6748046875 1057.79980469 69.875 c 128,-1,31
 1068.54980469 44.0751953125 1068.54980469 44.0751953125 1107.25 21.5 c 1,32,-1
 1107.25 11.8251953125 l 1,33,-1
 924.5 11.8251953125 l 1,7,8
EndSplineSet
EndChar

StartChar: S
Encoding: 54 83 56
Width: 1034
VWidth: 1998
GlyphClass: 2
Flags: W
LayerCount: 2
Fore
SplineSet
570.825195312 -18.0927734375 m 0,0,1
 233.173265347 -18.0927734375 233.173265347 -18.0927734375 127.387695312 208.060546875 c 0,2,3
 90.2998046875 287.34765625 90.2998046875 287.34765625 86 402.286132812 c 1,4,-1
 220.375 402.286132812 l 1,5,6
 224.674804688 252.227539062 224.674804688 252.227539062 319.275390625 177.73046875 c 128,-1,7
 413.875 103.232421875 413.875 103.232421875 571.899902344 103.232421875 c 128,-1,8
 729.924804688 103.232421875 729.924804688 103.232421875 819.150390625 162.830078125 c 128,-1,9
 908.375 222.427734375 908.375 222.427734375 908.375 327.481611021 c 0,10,11
 908.375 432.535487666 908.375 432.535487666 850.441950869 480.832065339 c 0,12,13
 792.508901739 529.128643013 792.508901739 529.128643013 636.400390625 568.309570312 c 1,14,-1
 383.775390625 627.907226562 l 1,15,16
 130.075195312 691.762695312 130.075195312 691.762695312 125.775390625 921.640625 c 1,17,18
 125.775390625 1180.7853248 125.775390625 1180.7853248 370.337890625 1271.77832031 c 0,19,20
 450.424804688 1301.57714844 450.424804688 1301.57714844 557.924804688 1301.57714844 c 0,21,22
 1002.20094973 1301.57714844 1002.20094973 1301.57714844 1010.5 919.51171875 c 1,23,-1
 878.275390625 919.51171875 l 1,24,25
 873.974609375 1052.54296875 873.974609375 1052.54296875 783.137695312 1116.93066406 c 128,-1,26
 692.299804688 1181.31738281 692.299804688 1181.31738281 556.3125 1181.31738281 c 128,-1,27
 420.325195312 1181.31738281 420.325195312 1181.31738281 342.387695312 1119.59179688 c 128,-1,28
 264.450195312 1057.86425781 264.450195312 1057.86425781 264.450195312 945.053710938 c 0,29,30
 264.450195312 804.573242188 264.450195312 804.573242188 420.325195312 767.32421875 c 1,31,-1
 770.775390625 681.120117188 l 1,32,33
 1042.75 617.264648438 1042.75 617.264648438 1042.75 351.202148438 c 0,34,35
 1042.75 176.666015625 1042.75 176.666015625 919.125 79.287109375 c 128,-1,36
 795.5 -18.0927734375 795.5 -18.0927734375 570.825195312 -18.0927734375 c 0,0,1
EndSplineSet
EndChar

StartChar: T
Encoding: 55 84 57
Width: 1050
VWidth: 1998
GlyphClass: 2
Flags: W
LayerCount: 2
Fore
SplineSet
652.525390625 1147.02539062 m 1,0,-1
 652.525390625 11.8251953125 l 1,1,-1
 510.625 11.8251953125 l 1,2,-1
 510.625 1147.02539062 l 1,3,-1
 90.2998046875 1147.02539062 l 1,4,-1
 90.2998046875 1281.40039062 l 1,5,-1
 1068.54980469 1281.40039062 l 1,6,-1
 1068.54980469 1147.02539062 l 1,7,-1
 652.525390625 1147.02539062 l 1,0,-1
EndSplineSet
EndChar

StartChar: U
Encoding: 56 85 58
Width: 1052
VWidth: 1998
GlyphClass: 2
Flags: W
LayerCount: 2
Fore
SplineSet
575.662109375 -18.275390625 m 128,-1,1
 351.564704759 -18.275390625 351.564704759 -18.275390625 230.069950036 105.427801847 c 128,-1,2
 108.575195312 229.130994319 108.575195312 229.130994319 108.575195312 427.849609375 c 2,3,-1
 108.575195312 1281.40039062 l 1,4,-1
 253.700195312 1281.40039062 l 1,5,-1
 253.700195312 476.224609375 l 2,6,7
 253.700195312 299.924804688 253.700195312 299.924804688 337.012695312 205.862304688 c 128,-1,8
 420.325195312 111.799804688 420.325195312 111.799804688 580.5 111.799804688 c 128,-1,9
 740.674804688 111.799804688 740.674804688 111.799804688 826.674804688 206.9375 c 128,-1,10
 912.674804688 302.075195312 912.674804688 302.075195312 912.674804688 476.224609375 c 2,11,-1
 912.674804688 1281.40039062 l 1,12,-1
 1058.875 1281.40039062 l 1,13,-1
 1058.875 454.724609375 l 2,14,15
 1058.875 245.25795135 1058.875 245.25795135 929.323383206 113.491280363 c 128,-1,0
 799.771766412 -18.275390625 799.771766412 -18.275390625 575.662109375 -18.275390625 c 128,-1,1
EndSplineSet
EndChar

StartChar: V
Encoding: 57 86 59
Width: 1098
VWidth: 1998
GlyphClass: 2
Flags: W
LayerCount: 2
Fore
SplineSet
682.625 11.8251953125 m 1,0,-1
 522.450195312 11.8251953125 l 1,1,-1
 74.1748046875 1281.40039062 l 1,2,-1
 238.650390625 1281.40039062 l 1,3,-1
 604.150390625 146.200195312 l 1,4,-1
 961.049804688 1281.40039062 l 1,5,-1
 1124.45019531 1281.40039062 l 1,6,-1
 682.625 11.8251953125 l 1,0,-1
EndSplineSet
EndChar

StartChar: W
Encoding: 58 87 60
Width: 1588
VWidth: 1998
GlyphClass: 2
Flags: W
LayerCount: 2
Fore
SplineSet
1296.45019531 11.8251953125 m 1,0,-1
 1140.57519531 11.8251953125 l 1,1,-1
 847.099609375 1124.45019531 l 1,2,-1
 552.549804688 11.8251953125 l 1,3,-1
 390.224609375 11.8251953125 l 1,4,-1
 78.474609375 1281.40039062 l 1,5,-1
 230.049804688 1281.40039062 l 1,6,-1
 471.924804688 181.674804688 l 1,7,-1
 764.325195312 1281.40039062 l 1,8,-1
 928.799804688 1281.40039062 l 1,9,-1
 1219.04980469 181.674804688 l 1,10,-1
 1460.92480469 1281.40039062 l 1,11,-1
 1616.79980469 1281.40039062 l 1,12,-1
 1296.45019531 11.8251953125 l 1,0,-1
EndSplineSet
EndChar

StartChar: X
Encoding: 59 88 61
Width: 1094
VWidth: 1998
GlyphClass: 2
Flags: W
LayerCount: 2
Fore
SplineSet
934.174804688 11.8251953125 m 1,0,-1
 600.924804688 554.700195312 l 1,1,-1
 250.474609375 11.8251953125 l 1,2,-1
 74.1748046875 11.8251953125 l 1,3,-1
 510.625 662.200195312 l 1,4,-1
 104.275390625 1281.40039062 l 1,5,-1
 282.724609375 1281.40039062 l 1,6,-1
 604.150390625 775.075195312 l 1,7,-1
 924.5 1281.40039062 l 1,8,-1
 1094.34960938 1281.40039062 l 1,9,-1
 688 662.200195312 l 1,10,-1
 1114.77539062 11.8251953125 l 1,11,-1
 934.174804688 11.8251953125 l 1,0,-1
EndSplineSet
EndChar

StartChar: Y
Encoding: 60 89 62
Width: 1120
VWidth: 1998
GlyphClass: 2
Flags: W
LayerCount: 2
Fore
SplineSet
678.325195312 526.75 m 1,0,-1
 678.325195312 11.8251953125 l 1,1,-1
 536.424804688 11.8251953125 l 1,2,-1
 536.424804688 526.75 l 1,3,-1
 78.474609375 1281.40039062 l 1,4,-1
 246.174804688 1281.40039062 l 1,5,-1
 606.299804688 645 l 1,6,-1
 968.575195312 1281.40039062 l 1,7,-1
 1137.34960938 1281.40039062 l 1,8,-1
 678.325195312 526.75 l 1,0,-1
EndSplineSet
EndChar

StartChar: Z
Encoding: 61 90 63
Width: 1042
VWidth: 1998
GlyphClass: 2
Flags: W
LayerCount: 2
Fore
SplineSet
95.6748046875 11.8251953125 m 1,0,-1
 95.6748046875 146.200195312 l 1,1,-1
 868.599609375 1147.02539062 l 1,2,-1
 151.575195312 1147.02539062 l 1,3,-1
 151.575195312 1281.40039062 l 1,4,-1
 1047.04980469 1281.40039062 l 1,5,-1
 1047.04980469 1144.875 l 1,6,-1
 276.275390625 146.200195312 l 1,7,-1
 1047.04980469 146.200195312 l 1,8,-1
 1047.04980469 11.8251953125 l 1,9,-1
 95.6748046875 11.8251953125 l 1,0,-1
EndSplineSet
EndChar

StartChar: bracketleft
Encoding: 62 91 64
Width: 376
VWidth: 1998
GlyphClass: 2
Flags: W
LayerCount: 2
Fore
SplineSet
141.900390625 -338.625 m 1,0,-1
 141.900390625 1288.92480469 l 1,1,-1
 440.75 1288.92480469 l 1,2,-1
 440.75 1180.34960938 l 1,3,-1
 253.700195312 1180.34960938 l 1,4,-1
 253.700195312 -234.349609375 l 1,5,-1
 440.75 -234.349609375 l 1,6,-1
 440.75 -338.625 l 1,7,-1
 141.900390625 -338.625 l 1,0,-1
EndSplineSet
EndChar

StartChar: backslash
Encoding: 63 92 65
Width: 576
VWidth: 1998
GlyphClass: 2
Flags: W
LayerCount: 2
Fore
SplineSet
502.025390625 -18.0927734375 m 1,0,-1
 90.2998046875 1301.57714844 l 1,1,-1
 176.299804688 1301.57714844 l 1,2,-1
 592.325195312 -18.0927734375 l 1,3,-1
 502.025390625 -18.0927734375 l 1,0,-1
EndSplineSet
EndChar

StartChar: bracketright
Encoding: 64 93 66
Width: 371
VWidth: 1998
GlyphClass: 2
Flags: W
LayerCount: 2
Fore
SplineSet
78.474609375 -338.625 m 1,0,-1
 78.474609375 -234.349609375 l 1,1,-1
 264.450195312 -234.349609375 l 1,2,-1
 264.450195312 1180.34960938 l 1,3,-1
 78.474609375 1180.34960938 l 1,4,-1
 78.474609375 1288.92480469 l 1,5,-1
 380.549804688 1288.92480469 l 1,6,-1
 380.549804688 -338.625 l 1,7,-1
 78.474609375 -338.625 l 1,0,-1
EndSplineSet
EndChar

StartChar: asciicircum
Encoding: 65 94 67
Width: 892
VWidth: 1998
GlyphClass: 2
Flags: W
LayerCount: 2
Fore
SplineSet
794.424804688 548.25 m 1,0,-1
 492.349609375 1184.65039062 l 1,1,-1
 185.974609375 548.25 l 1,2,-1
 78.474609375 548.25 l 1,3,-1
 436.450195312 1284.625 l 1,4,-1
 543.950195312 1284.625 l 1,5,-1
 898.700195312 548.25 l 1,6,-1
 794.424804688 548.25 l 1,0,-1
EndSplineSet
EndChar

StartChar: underscore
Encoding: 66 95 68
Width: 955
VWidth: 1998
GlyphClass: 2
Flags: W
LayerCount: 2
Fore
SplineSet
74.1748046875 -208.549804688 m 1,0,-1
 74.1748046875 -146.200195312 l 1,1,-1
 1010.5 -146.200195312 l 1,2,-1
 1010.5 -208.549804688 l 1,3,-1
 74.1748046875 -208.549804688 l 1,0,-1
EndSplineSet
EndChar

StartChar: grave
Encoding: 67 96 69
Width: 416
VWidth: 1998
GlyphClass: 2
Flags: W
LayerCount: 2
Fore
SplineSet
336.474609375 1064.25 m 1,0,-1
 130.075195312 1293.22460938 l 1,1,-1
 282.724609375 1293.22460938 l 1,2,-1
 420.325195312 1064.25 l 1,3,-1
 336.474609375 1064.25 l 1,0,-1
EndSplineSet
EndChar

StartChar: a
Encoding: 68 97 70
Width: 908
VWidth: 1998
GlyphClass: 2
Flags: W
LayerCount: 2
Fore
SplineSet
692.299804688 506.325195312 m 1,0,1
 652.619990812 475.979563059 652.619990812 475.979563059 599.2290262 462.632288267 c 128,-1,2
 545.838061589 449.285013475 545.838061589 449.285013475 434.706628451 435.879811425 c 128,-1,3
 323.575195312 422.474609375 323.575195312 422.474609375 275.737304688 380.549804688 c 128,-1,4
 227.900390625 338.625 227.900390625 338.625 227.900390625 260.150390625 c 128,-1,5
 227.900390625 181.674804688 227.900390625 181.674804688 271.974609375 138.137695312 c 128,-1,6
 316.049804688 94.599609375 316.049804688 94.599609375 389.149902344 94.599609375 c 0,7,8
 523.363642583 94.599609375 523.363642583 94.599609375 607.831723635 164.025775001 c 128,-1,9
 692.299804688 233.451940627 692.299804688 233.451940627 692.299804688 327.875 c 2,10,-1
 692.299804688 506.325195312 l 1,0,1
924.5 7.525390625 m 1,11,12
 798.273336864 -24.0333228305 798.273336864 -24.0333228305 742.825195312 27.9501953125 c 0,13,14
 708.424804688 60.2001953125 708.424804688 60.2001953125 700.900390625 151.575195312 c 1,15,16
 581.849033258 20.9096504016 581.849033258 20.9096504016 458.487304688 -3.7626953125 c 0,17,18
 418.174804688 -11.8251953125 418.174804688 -11.8251953125 368.724609375 -11.8251953125 c 0,19,20
 242.950195312 -11.8251953125 242.950195312 -11.8251953125 169.3125 56.974609375 c 128,-1,21
 95.6748046875 125.775390625 95.6748046875 125.775390625 95.6748046875 248.325195312 c 128,-1,22
 95.6748046875 370.875 95.6748046875 370.875 162.862304688 442.362304688 c 128,-1,23
 230.049804688 513.849609375 230.049804688 513.849609375 357.974609375 528.900390625 c 2,24,-1
 606.299804688 557.924804688 l 1,25,26
 696.599609375 571.972170136 696.599609375 571.972170136 696.599609375 682.625 c 0,27,28
 696.599609375 848.174804688 696.599609375 848.174804688 476.224609375 848.174804688 c 0,29,30
 376.25 848.174804688 376.25 848.174804688 316.049804688 808.400390625 c 128,-1,31
 255.849609375 768.625 255.849609375 768.625 253.700195312 666.5 c 1,32,-1
 141.900390625 666.5 l 1,33,34
 150.134048565 956.75 150.134048565 956.75 488.049804688 956.75 c 0,35,36
 643.924804688 956.75 643.924804688 956.75 732.075195312 889.5625 c 128,-1,37
 820.224609375 822.375 820.224609375 822.375 820.224609375 708.424804688 c 2,38,-1
 820.224609375 164.474609375 l 2,39,40
 820.224609375 95.6748046875 820.224609375 95.6748046875 882.575195312 95.6748046875 c 2,41,42
 882.575195312 95.6748046875 882.575195312 95.6748046875 892.787597656 95.6748046875 c 128,-1,43
 903 95.6748046875 903 95.6748046875 924.5 99.974609375 c 1,44,-1
 924.5 7.525390625 l 1,11,12
EndSplineSet
EndChar

StartChar: b
Encoding: 69 98 71
Width: 860
VWidth: 1998
GlyphClass: 2
Flags: W
LayerCount: 2
Fore
SplineSet
734.224609375 480.525390625 m 0,0,1
 734.224609375 842.799804688 734.224609375 842.799804688 478.375 842.799804688 c 0,2,3
 350.450195312 842.799804688 350.450195312 842.799804688 285.412109375 739.599609375 c 128,-1,4
 220.375 636.400390625 220.375 636.400390625 220.375 457.412597656 c 128,-1,5
 220.375 278.424804688 220.375 278.424804688 289.174804688 189.200195312 c 128,-1,6
 357.974609375 99.974609375 357.974609375 99.974609375 478.375 99.974609375 c 128,-1,7
 598.775390625 99.974609375 598.775390625 99.974609375 666.5 203.174804688 c 128,-1,8
 734.224609375 306.375 734.224609375 306.375 734.224609375 480.525390625 c 0,0,1
483.80826062 -11.8251953125 m 0,9,10
 396.791325928 -11.8251953125 396.791325928 -11.8251953125 335.489694995 27.9672285541 c 128,-1,11
 274.188064062 67.7596524207 274.188064062 67.7596524207 220.375 167.700195312 c 1,12,-1
 220.375 11.8251953125 l 1,13,-1
 99.974609375 11.8251953125 l 1,14,-1
 99.974609375 1281.40039062 l 1,15,-1
 227.900390625 1281.40039062 l 1,16,-1
 227.900390625 782.599609375 l 1,17,18
 313.107228599 892.151258199 313.107228599 892.151258199 353.816309612 915.312933787 c 0,19,20
 426.646311871 956.75 426.646311871 956.75 505.72305828 956.75 c 0,21,22
 666.575557788 956.75 666.575557788 956.75 765.400390625 830.974609375 c 128,-1,23
 864.299804688 705.103741602 864.299804688 705.103741602 864.299804688 484.053997984 c 128,-1,24
 864.299804688 263.004254366 864.299804688 263.004254366 758.412109375 125.237304688 c 0,25,26
 653.066330412 -11.8251953125 653.066330412 -11.8251953125 483.80826062 -11.8251953125 c 0,9,10
EndSplineSet
EndChar

StartChar: c
Encoding: 70 99 72
Width: 839
VWidth: 1998
GlyphClass: 2
Flags: W
LayerCount: 2
Fore
SplineSet
722.400390625 636.400390625 m 1,0,1
 704.125 740.674804688 704.125 740.674804688 652.525390625 791.737304688 c 128,-1,2
 600.924804688 842.799804688 600.924804688 842.799804688 488.587402344 842.799804688 c 128,-1,3
 376.25 842.799804688 376.25 842.799804688 309.0625 741.75 c 128,-1,4
 241.875 640.700195312 241.875 640.700195312 241.875 467.625 c 128,-1,5
 241.875 294.549804688 241.875 294.549804688 305.299804688 197.262695312 c 128,-1,6
 368.724609375 99.974609375 368.724609375 99.974609375 496.650390625 99.974609375 c 0,7,8
 675.099609375 99.974609375 675.099609375 99.974609375 722.400390625 320.349609375 c 1,9,-1
 847.099609375 320.349609375 l 1,10,11
 791.200195312 -11.8251953125 791.200195312 -11.8251953125 496.650390625 -11.8251953125 c 0,12,13
 219.180702912 -11.8251953125 219.180702912 -11.8251953125 132.224609375 259.075195312 c 0,14,15
 104.275390625 346.150390625 104.275390625 346.150390625 104.275390625 458.487792969 c 0,16,17
 104.275390625 683.95809376 104.275390625 683.95809376 216.999140365 820.35404688 c 128,-1,18
 329.722890104 956.75 329.722890104 956.75 518.150390625 956.75 c 0,19,20
 664.349609375 956.75 664.349609375 956.75 745.512695312 878.8125 c 128,-1,21
 826.674804688 800.875 826.674804688 800.875 848.174804688 636.400390625 c 1,22,-1
 722.400390625 636.400390625 l 1,0,1
EndSplineSet
EndChar

StartChar: d
Encoding: 71 100 73
Width: 869
VWidth: 1998
GlyphClass: 2
Flags: W
LayerCount: 2
Fore
SplineSet
492.349609375 842.799804688 m 0,0,1
 234.349609375 842.799804688 234.349609375 842.799804688 234.349609375 484.825195312 c 0,2,3
 234.349609375 306.375 234.349609375 306.375 299.387695312 203.174804688 c 128,-1,4
 364.424804688 99.974609375 364.424804688 99.974609375 487.512207031 99.974609375 c 128,-1,5
 610.599609375 99.974609375 610.599609375 99.974609375 677.787109375 191.349609375 c 128,-1,6
 744.974609375 282.724609375 744.974609375 282.724609375 744.974609375 457.412109375 c 128,-1,7
 744.974609375 632.099609375 744.974609375 632.099609375 681.549804688 737.450195312 c 128,-1,8
 618.125 842.799804688 618.125 842.799804688 492.349609375 842.799804688 c 0,0,1
756.799804688 11.8251953125 m 1,9,-1
 756.799804688 181.674804688 l 1,10,11
 663.442512539 18.2962305358 663.442512539 18.2962305358 564.912109375 -3.7626953125 c 0,12,13
 528.900390625 -11.8251953125 528.900390625 -11.8251953125 463.862792969 -11.8251953125 c 128,-1,14
 398.825195312 -11.8251953125 398.825195312 -11.8251953125 327.337890625 24.1875 c 128,-1,15
 255.849609375 60.2001953125 255.849609375 60.2001953125 205.862304688 125.237304688 c 0,16,17
 99.974609375 263.006945808 99.974609375 263.006945808 99.974609375 485.482647575 c 0,18,19
 99.974609375 707.958349342 99.974609375 707.958349342 202.156765996 832.354174671 c 0,20,21
 304.338922617 956.75 304.338922617 956.75 448.434463425 956.75 c 0,22,23
 592.530004232 956.75 592.530004232 956.75 681.549804688 851.9375 c 0,24,25
 714.875 812.700195312 714.875 812.700195312 748.200195312 752.5 c 1,26,-1
 748.200195312 1281.40039062 l 1,27,-1
 876.125 1281.40039062 l 1,28,-1
 876.125 11.8251953125 l 1,29,-1
 756.799804688 11.8251953125 l 1,9,-1
EndSplineSet
EndChar

StartChar: e
Encoding: 72 101 74
Width: 896
VWidth: 1998
GlyphClass: 2
Flags: W
LayerCount: 2
Fore
SplineSet
764.325195312 532.125 m 1,0,1
 737.92682022 842.799804688 737.92682022 842.799804688 510.625 842.799804688 c 0,2,3
 394.525390625 842.799804688 394.525390625 842.799804688 320.349609375 758.412109375 c 128,-1,4
 246.174804688 674.025390625 246.174804688 674.025390625 238.650390625 532.125 c 1,5,-1
 764.325195312 532.125 l 1,0,1
878.275390625 282.724609375 m 1,6,7
 808.968396878 -11.8251953125 808.968396878 -11.8251953125 502.025390625 -11.8251953125 c 0,8,9
 316.049804688 -11.8251953125 316.049804688 -11.8251953125 208.012695312 111.262695312 c 128,-1,10
 99.974609375 234.349609375 99.974609375 234.349609375 99.974609375 459.153260741 c 0,11,12
 99.974609375 683.956912108 99.974609375 683.956912108 212.698847396 820.353456054 c 0,13,14
 325.423085417 956.75 325.423085417 956.75 508.972423658 956.75 c 0,15,16
 692.521761898 956.75 692.521761898 956.75 788.475410365 833.07615563 c 0,17,18
 884.429058832 709.40231126 884.429058832 709.40231126 898.700195312 432.150390625 c 1,19,-1
 238.650390625 432.150390625 l 1,20,21
 252.656697065 99.974609375 252.656697065 99.974609375 506.325195312 99.974609375 c 0,22,23
 600.924804688 99.974609375 600.924804688 99.974609375 671.875 151.037109375 c 128,-1,24
 742.825195312 202.099609375 742.825195312 202.099609375 756.799804688 282.724609375 c 1,25,-1
 878.275390625 282.724609375 l 1,6,7
EndSplineSet
EndChar

StartChar: f
Encoding: 73 102 75
Width: 476
VWidth: 1998
GlyphClass: 2
Flags: W
LayerCount: 2
Fore
SplineSet
492.349609375 1165.35351562 m 1,0,1
 492.349609375 1165.35351562 492.349609375 1165.35351562 440.75 1168.54589844 c 1,2,3
 340.775390625 1168.54589844 340.775390625 1168.54589844 338.625 1048.28613281 c 1,4,-1
 338.625 921.640625 l 1,5,-1
 492.349609375 921.640625 l 1,6,-1
 492.349609375 814.151367188 l 1,7,-1
 338.625 814.151367188 l 1,8,-1
 338.625 11.70703125 l 1,9,-1
 211.775390625 11.70703125 l 1,10,-1
 211.775390625 814.151367188 l 1,11,-1
 86 814.151367188 l 1,12,-1
 86 921.640625 l 1,13,-1
 211.775390625 921.640625 l 1,14,-1
 211.775390625 1091.92089844 l 2,15,16
 211.775390625 1284.54980469 211.775390625 1284.54980469 427.849609375 1287.7421875 c 1,17,18
 427.849609375 1287.7421875 427.849609375 1287.7421875 445.049804688 1287.7421875 c 128,-1,19
 462.25 1287.7421875 462.25 1287.7421875 492.349609375 1283.48535156 c 1,20,-1
 492.349609375 1165.35351562 l 1,0,1
EndSplineSet
EndChar

StartChar: g
Encoding: 74 103 76
Width: 869
VWidth: 1998
GlyphClass: 2
Flags: W
LayerCount: 2
Fore
SplineSet
492.349609375 842.799804688 m 0,0,1
 234.349609375 842.799804688 234.349609375 842.799804688 234.349609375 484.825195312 c 0,2,3
 234.349609375 306.375 234.349609375 306.375 299.387695312 203.174804688 c 128,-1,4
 364.424804688 99.974609375 364.424804688 99.974609375 489.125 99.974609375 c 128,-1,5
 613.825195312 99.974609375 613.825195312 99.974609375 679.400390625 192.962890625 c 128,-1,6
 744.974609375 285.950195312 744.974609375 285.950195312 744.974609375 457.950195312 c 128,-1,7
 744.974609375 629.950195312 744.974609375 629.950195312 681.549804688 736.375 c 128,-1,8
 618.125 842.799804688 618.125 842.799804688 492.349609375 842.799804688 c 0,0,1
255.849609375 -125.775390625 m 1,9,10
 297.082691333 -276.275390625 297.082691333 -276.275390625 451.715092869 -276.275390625 c 0,11,12
 606.347494406 -276.275390625 606.347494406 -276.275390625 674.5625 -201.5625 c 128,-1,13
 742.825195312 -126.797376928 742.825195312 -126.797376928 742.825195312 67.724609375 c 2,14,-1
 742.825195312 146.200195312 l 1,15,16
 682.625 51.599609375 682.625 51.599609375 622.424804688 19.8876953125 c 128,-1,17
 562.224609375 -11.8251953125 562.224609375 -11.8251953125 478.375 -11.8251953125 c 0,18,19
 311.208083651 -11.8251953125 311.208083651 -11.8251953125 205.591346513 125.590875248 c 128,-1,20
 99.974609375 263.006945808 99.974609375 263.006945808 99.974609375 485.482647575 c 128,-1,21
 99.974609375 707.958349342 99.974609375 707.958349342 202.156765996 832.354174671 c 128,-1,22
 304.338922617 956.75 304.338922617 956.75 462.25 956.75 c 0,23,24
 550.713000978 956.75 550.713000978 956.75 597.856500489 925.575195312 c 0,25,26
 680.583409403 870.869981348 680.583409403 870.869981348 748.200195312 764.325195312 c 1,27,-1
 748.200195312 930.950195312 l 1,28,-1
 868.599609375 930.950195312 l 1,29,-1
 868.599609375 78.474609375 l 2,30,31
 868.599609375 -167.700195312 868.599609375 -167.700195312 765.400390625 -275.737304688 c 128,-1,32
 662.200195312 -383.775390625 662.200195312 -383.775390625 466.549804688 -383.775390625 c 0,33,34
 328.950195312 -383.775390625 328.950195312 -383.775390625 246.712890625 -325.724609375 c 128,-1,35
 164.474609375 -267.674804688 164.474609375 -267.674804688 130.075195312 -125.775390625 c 1,36,-1
 255.849609375 -125.775390625 l 1,9,10
EndSplineSet
EndChar

StartChar: h
Encoding: 75 104 77
Width: 810
VWidth: 1998
GlyphClass: 2
Flags: W
LayerCount: 2
Fore
SplineSet
688 11.8251953125 m 1,0,-1
 688 614.900390625 l 2,1,2
 688 731 688 731 644.462890625 786.900390625 c 128,-1,3
 600.924804688 842.799804688 600.924804688 842.799804688 484.824707031 842.799804688 c 128,-1,4
 368.724609375 842.799804688 368.724609375 842.799804688 300.462402344 756.799804688 c 128,-1,5
 232.200195312 670.799804688 232.200195312 670.799804688 230.049804688 513.849609375 c 1,6,-1
 230.049804688 11.8251953125 l 1,7,-1
 104.275390625 11.8251953125 l 1,8,-1
 104.275390625 1281.40039062 l 1,9,-1
 230.049804688 1281.40039062 l 1,10,-1
 230.049804688 775.075195312 l 1,11,12
 311.60596391 889.692335263 311.60596391 889.692335263 379.680772657 923.221167631 c 0,13,14
 447.755581403 956.75 447.755581403 956.75 522.450195312 956.75 c 0,15,16
 660.049804688 956.75 660.049804688 956.75 738.525390625 875.587890625 c 128,-1,17
 817 794.424804688 817 794.424804688 817 640.700195312 c 2,18,-1
 817 11.8251953125 l 1,19,-1
 688 11.8251953125 l 1,0,-1
EndSplineSet
EndChar

StartChar: i
Encoding: 76 105 78
Width: 230
VWidth: 1998
GlyphClass: 2
Flags: W
LayerCount: 2
Fore
SplineSet
104.275390625 11.8251953125 m 1,0,-1
 104.275390625 930.950195312 l 1,1,-1
 230.049804688 930.950195312 l 1,2,-1
 230.049804688 11.8251953125 l 1,3,-1
 104.275390625 11.8251953125 l 1,0,-1
90.2998046875 1102.95019531 m 1,4,-1
 90.2998046875 1254.52539062 l 1,5,-1
 246.174804688 1254.52539062 l 1,6,-1
 246.174804688 1102.95019531 l 1,7,-1
 90.2998046875 1102.95019531 l 1,4,-1
EndSplineSet
EndChar

StartChar: j
Encoding: 77 106 79
Width: 307
VWidth: 1998
GlyphClass: 2
Flags: W
LayerCount: 2
Fore
SplineSet
90.2998046875 -364.424804688 m 1,0,1
 90.2998046875 -364.424804688 90.2998046875 -364.424804688 34.400390625 -362.275390625 c 1,2,-1
 34.400390625 -246.174804688 l 1,3,-1
 51.599609375 -246.174804688 l 2,4,5
 123.80220532 -246.174804688 123.80220532 -246.174804688 145.751200316 -227.362304688 c 128,-1,6
 167.700195312 -208.549804688 167.700195312 -208.549804688 172 -182.212890625 c 128,-1,7
 176.299804688 -155.875 176.299804688 -155.875 176.299804688 -120.400390625 c 2,8,-1
 176.299804688 930.950195312 l 1,9,-1
 302.075195312 930.950195312 l 1,10,-1
 302.075195312 -137.599609375 l 2,11,12
 302.075195312 -258 302.075195312 -258 252.087890625 -311.212890625 c 128,-1,13
 202.099609375 -364.424804688 202.099609375 -364.424804688 90.2998046875 -364.424804688 c 1,0,1
164.474609375 1102.95019531 m 1,14,-1
 164.474609375 1254.52539062 l 1,15,-1
 316.049804688 1254.52539062 l 1,16,-1
 316.049804688 1102.95019531 l 1,17,-1
 164.474609375 1102.95019531 l 1,14,-1
EndSplineSet
EndChar

StartChar: k
Encoding: 78 107 80
Width: 792
VWidth: 1998
GlyphClass: 2
Flags: W
LayerCount: 2
Fore
SplineSet
656.825195312 11.8251953125 m 1,0,-1
 371.950195312 496.650390625 l 1,1,-1
 230.049804688 362.275390625 l 1,2,-1
 230.049804688 11.8251953125 l 1,3,-1
 104.275390625 11.8251953125 l 1,4,-1
 104.275390625 1281.40039062 l 1,5,-1
 230.049804688 1281.40039062 l 1,6,-1
 230.049804688 513.849609375 l 1,7,-1
 636.400390625 930.950195312 l 1,8,-1
 794.424804688 930.950195312 l 1,9,-1
 462.25 592.325195312 l 1,10,-1
 822.375 11.8251953125 l 1,11,-1
 656.825195312 11.8251953125 l 1,0,-1
EndSplineSet
EndChar

StartChar: l
Encoding: 79 108 81
Width: 230
VWidth: 1998
GlyphClass: 2
Flags: W
LayerCount: 2
Fore
SplineSet
108.575195312 11.8251953125 m 1,0,-1
 108.575195312 1281.40039062 l 1,1,-1
 234.349609375 1281.40039062 l 1,2,-1
 234.349609375 11.8251953125 l 1,3,-1
 108.575195312 11.8251953125 l 1,0,-1
EndSplineSet
EndChar

StartChar: m
Encoding: 80 109 82
Width: 1288
VWidth: 1998
GlyphClass: 2
Flags: W
LayerCount: 2
Fore
SplineSet
1166.375 11.8251953125 m 1,0,-1
 1166.375 606.299804688 l 2,1,2
 1166.375 722.400390625 1166.375 722.400390625 1125.52539062 782.599609375 c 128,-1,3
 1084.67480469 842.799804688 1084.67480469 842.799804688 990.637624698 842.799804688 c 0,4,5
 896.600444705 842.799804688 896.600444705 842.799804688 830.462820009 766.033239245 c 0,6,7
 764.325195312 689.266673803 764.325195312 689.266673803 764.325195312 574.049804688 c 2,8,-1
 764.325195312 11.8251953125 l 1,9,-1
 636.400390625 11.8251953125 l 1,10,-1
 636.400390625 652.525390625 l 2,11,12
 636.400390625 738.525390625 636.400390625 738.525390625 595.549804688 790.662109375 c 128,-1,13
 554.700195312 842.799804688 554.700195312 842.799804688 480.525390625 842.799804688 c 0,14,15
 360.125 842.799804688 360.125 842.799804688 296.700195312 750.349609375 c 1,16,17
 231.125 662.200195312 231.125 662.200195312 230.049804688 513.849609375 c 1,18,-1
 230.049804688 11.8251953125 l 1,19,-1
 104.275390625 11.8251953125 l 1,20,-1
 104.275390625 930.950195312 l 1,21,-1
 224.674804688 930.950195312 l 1,22,-1
 224.674804688 764.325195312 l 1,23,24
 301.721488751 878.793354637 301.721488751 878.793354637 367.037717616 917.771677319 c 0,25,26
 432.353946481 956.75 432.353946481 956.75 512.339570897 956.75 c 128,-1,27
 592.325195312 956.75 592.325195312 956.75 646.612304688 921.8125 c 128,-1,28
 700.900390625 886.875 700.900390625 886.875 748.200195312 794.424804688 c 1,29,30
 822.542363971 884.842287725 822.542363971 884.842287725 883.149779127 920.796143863 c 0,31,32
 943.757194283 956.75 943.757194283 956.75 1021.25 956.75 c 0,33,34
 1147.02539062 956.75 1147.02539062 956.75 1220.125 876.662109375 c 128,-1,35
 1293.22460938 796.575195312 1293.22460938 796.575195312 1293.22460938 652.525390625 c 2,36,-1
 1293.22460938 11.8251953125 l 1,37,-1
 1166.375 11.8251953125 l 1,0,-1
EndSplineSet
EndChar

StartChar: n
Encoding: 81 110 83
Width: 810
VWidth: 1998
GlyphClass: 2
Flags: W
LayerCount: 2
Fore
SplineSet
688 11.8251953125 m 1,0,-1
 688 580.5 l 2,1,2
 688 710.575195312 688 710.575195312 642.3125 776.6875 c 128,-1,3
 596.625 842.799804688 596.625 842.799804688 483.212402344 842.799804688 c 0,4,5
 369.799804688 842.799804688 369.799804688 842.799804688 299.924804688 752.5 c 128,-1,6
 230.049804688 662.200195312 230.049804688 662.200195312 230.049804688 513.849609375 c 2,7,-1
 230.049804688 11.8251953125 l 1,8,-1
 104.275390625 11.8251953125 l 1,9,-1
 104.275390625 930.950195312 l 1,10,-1
 224.674804688 930.950195312 l 1,11,-1
 224.674804688 764.325195312 l 1,12,13
 298.849609375 876.125 298.849609375 876.125 365.5 916.4375 c 128,-1,14
 432.150390625 956.75 432.150390625 956.75 522.450195312 956.75 c 0,15,16
 660.049804688 956.75 660.049804688 956.75 738.525390625 875.587890625 c 128,-1,17
 817 794.424804688 817 794.424804688 817 640.700195312 c 2,18,-1
 817 11.8251953125 l 1,19,-1
 688 11.8251953125 l 1,0,-1
EndSplineSet
EndChar

StartChar: o
Encoding: 82 111 84
Width: 911
VWidth: 1998
GlyphClass: 2
Flags: W
LayerCount: 2
Fore
SplineSet
309.0625 741.75 m 128,-1,1
 234.349609375 640.700195312 234.349609375 640.700195312 234.349609375 473.538010817 c 128,-1,2
 234.349609375 306.375826321 234.349609375 306.375826321 308.064194039 203.175217848 c 128,-1,3
 381.778778704 99.974609375 381.778778704 99.974609375 505.71030051 99.974609375 c 128,-1,4
 629.641822317 99.974609375 629.641822317 99.974609375 703.970813502 200.928526348 c 128,-1,5
 778.299804688 301.882443321 778.299804688 301.882443321 778.299804688 469.791448427 c 128,-1,6
 778.299804688 637.700453533 778.299804688 637.700453533 705.974904401 740.25012911 c 128,-1,7
 633.650004113 842.799804688 633.650004113 842.799804688 508.712697369 842.799804688 c 128,-1,0
 383.775390625 842.799804688 383.775390625 842.799804688 309.0625 741.75 c 128,-1,1
506.325195312 -11.8251953125 m 0,8,9
 335.71409808 -11.8251953125 335.71409808 -11.8251953125 217.844353727 121.367187501 c 128,-1,10
 99.974609375 254.559570314 99.974609375 254.559570314 99.974609375 469.237597657 c 128,-1,11
 99.974609375 683.915625001 99.974609375 683.915625001 215.582751398 820.3328125 c 128,-1,12
 331.190893422 956.75 331.190893422 956.75 510.975539016 956.75 c 128,-1,13
 690.760184611 956.75 690.760184611 956.75 801.717494649 821.770645742 c 128,-1,14
 912.674804688 686.791291484 912.674804688 686.791291484 912.674804688 471.924804688 c 0,15,16
 912.674804688 141.620511323 912.674804688 141.620511323 670.799804688 24.1875 c 0,17,18
 596.625 -11.8251953125 596.625 -11.8251953125 506.325195312 -11.8251953125 c 0,8,9
EndSplineSet
EndChar

StartChar: p
Encoding: 83 112 85
Width: 869
VWidth: 1998
GlyphClass: 2
Flags: W
LayerCount: 2
Fore
SplineSet
224.674804688 440.75 m 0,0,1
 224.674804688 284.875 224.674804688 284.875 291.325195312 192.424804688 c 128,-1,2
 357.974609375 99.974609375 357.974609375 99.974609375 480.525390625 99.974609375 c 128,-1,3
 603.075195312 99.974609375 603.075195312 99.974609375 668.650390625 205.325195312 c 128,-1,4
 734.224609375 310.674804688 734.224609375 310.674804688 734.224609375 485.362304688 c 0,5,6
 734.224609375 842.799804688 734.224609375 842.799804688 479.449707031 842.799804688 c 128,-1,7
 224.674804688 842.799804688 224.674804688 842.799804688 224.674804688 440.75 c 0,0,1
492.904094672 -11.8251953125 m 0,8,9
 411.758384656 -11.8251953125 411.758384656 -11.8251953125 347.541813109 21.3535496313 c 128,-1,10
 283.325241562 54.5322945752 283.325241562 54.5322945752 227.900390625 146.200195312 c 1,11,-1
 227.900390625 -357.974609375 l 1,12,-1
 99.974609375 -357.974609375 l 1,13,-1
 99.974609375 930.950195312 l 1,14,-1
 220.375 930.950195312 l 1,15,-1
 220.375 764.325195312 l 1,16,17
 317.719943071 920.077609548 317.719943071 920.077609548 426.237304688 947.612304688 c 0,18,19
 462.25 956.75 462.25 956.75 523.524902344 956.75 c 128,-1,20
 584.799804688 956.75 584.799804688 956.75 651.450195312 923.962890625 c 0,21,22
 868.599609375 817.136540393 868.599609375 817.136540393 868.599609375 485.482606695 c 0,23,24
 868.599609375 263.005675213 868.599609375 263.005675213 762.712890625 125.237304688 c 0,25,26
 657.365053603 -11.8251953125 657.365053603 -11.8251953125 492.904094672 -11.8251953125 c 0,8,9
EndSplineSet
EndChar

StartChar: q
Encoding: 84 113 86
Width: 862
VWidth: 1998
GlyphClass: 2
Flags: W
LayerCount: 2
Fore
SplineSet
492.349609375 842.799804688 m 0,0,1
 234.349609375 842.799804688 234.349609375 842.799804688 234.349609375 488.049804688 c 0,2,3
 234.349609375 309.599609375 234.349609375 309.599609375 299.387695312 204.787109375 c 128,-1,4
 364.424804688 99.974609375 364.424804688 99.974609375 489.125 99.974609375 c 128,-1,5
 613.825195312 99.974609375 613.825195312 99.974609375 679.400390625 191.349609375 c 128,-1,6
 744.974609375 282.724609375 744.974609375 282.724609375 744.974609375 459.024902344 c 128,-1,7
 744.974609375 635.325195312 744.974609375 635.325195312 681.549804688 739.0625 c 128,-1,8
 618.125 842.799804688 618.125 842.799804688 492.349609375 842.799804688 c 0,0,1
742.825195312 -357.974609375 m 1,9,-1
 742.825195312 146.200195312 l 1,10,11
 677.480332082 50.5180841549 677.480332082 50.5180841549 617.148571369 19.3464444212 c 128,-1,12
 556.816810657 -11.8251953125 556.816810657 -11.8251953125 475.671100641 -11.8251953125 c 0,13,14
 311.208083651 -11.8251953125 311.208083651 -11.8251953125 205.591346513 125.590875248 c 128,-1,15
 99.974609375 263.006945808 99.974609375 263.006945808 99.974609375 485.482647575 c 128,-1,16
 99.974609375 707.958349342 99.974609375 707.958349342 202.156765996 832.354174671 c 128,-1,17
 304.338922617 956.75 304.338922617 956.75 462.25 956.75 c 0,18,19
 552.495511603 956.75 552.495511603 956.75 596.597853458 925.575195312 c 0,20,21
 670.768536182 873.145858224 670.768536182 873.145858224 748.200195312 764.325195312 c 1,22,-1
 748.200195312 930.950195312 l 1,23,-1
 868.599609375 930.950195312 l 1,24,-1
 868.599609375 -357.974609375 l 1,25,-1
 742.825195312 -357.974609375 l 1,9,-1
EndSplineSet
EndChar

StartChar: r
Encoding: 85 114 87
Width: 511
VWidth: 1998
GlyphClass: 2
Flags: W
LayerCount: 2
Fore
SplineSet
471.924804688 812.700195312 m 2,0,1
 366.378785199 812.700195312 366.378785199 812.700195312 298.214294943 737.719075521 c 0,2,3
 230.049804688 662.737955729 230.049804688 662.737955729 230.049804688 548.25 c 2,4,-1
 230.049804688 11.8251953125 l 1,5,-1
 104.275390625 11.8251953125 l 1,6,-1
 104.275390625 930.950195312 l 1,7,-1
 224.674804688 930.950195312 l 1,8,-1
 224.674804688 738.525390625 l 1,9,10
 297.984267344 864.198755178 297.984267344 864.198755178 359.049804688 910.525390625 c 128,-1,11
 419.983372224 956.75 419.983372224 956.75 492.349609375 956.75 c 0,12,13
 510.625 956.75 510.625 956.75 518.150390625 954.599609375 c 1,14,-1
 518.150390625 812.700195312 l 1,15,-1
 471.924804688 812.700195312 l 2,0,1
EndSplineSet
EndChar

StartChar: s
Encoding: 86 115 88
Width: 799
VWidth: 1998
GlyphClass: 2
Flags: W
LayerCount: 2
Fore
SplineSet
710.037109375 66.650390625 m 128,-1,1
 615.974609375 -11.8251953125 615.974609375 -11.8251953125 446.125 -11.8251953125 c 128,-1,2
 276.275390625 -11.8251953125 276.275390625 -11.8251953125 188.125 56.974609375 c 128,-1,3
 99.974609375 125.775390625 99.974609375 125.775390625 90.2998046875 290.25 c 1,4,-1
 208.549804688 290.25 l 1,5,6
 220.375 190.275390625 220.375 190.275390625 279.5 145.125 c 128,-1,7
 338.625 99.974609375 338.625 99.974609375 446.662597656 99.974609375 c 128,-1,8
 554.700195312 99.974609375 554.700195312 99.974609375 618.662109375 140.825195312 c 128,-1,9
 682.625 181.674804688 682.625 181.674804688 682.625 260.736069866 c 0,10,11
 682.625 339.797335043 682.625 339.797335043 579.424804688 377.325195312 c 0,12,13
 543.950195312 390.224609375 543.950195312 390.224609375 492.349609375 406.349609375 c 1,14,-1
 316.049804688 450.424804688 l 1,15,16
 211.775390625 480.525390625 211.775390625 480.525390625 163.9375 532.662109375 c 128,-1,17
 116.099609375 584.799804688 116.099609375 584.799804688 116.099609375 670.799804688 c 0,18,19
 116.099609375 800.875 116.099609375 800.875 205.325195312 878.8125 c 128,-1,20
 294.549804688 956.75 294.549804688 956.75 444.512207031 956.75 c 128,-1,21
 594.474609375 956.75 594.474609375 956.75 679.400390625 888.487304688 c 128,-1,22
 764.325195312 820.224609375 764.325195312 820.224609375 775.075195312 686.924804688 c 1,23,-1
 656.825195312 686.924804688 l 1,24,25
 638.549804688 842.799804688 638.549804688 842.799804688 440.75 842.799804688 c 0,26,27
 350.450195312 842.799804688 350.450195312 842.799804688 294.549804688 805.712890625 c 128,-1,28
 238.650390625 768.625 238.650390625 768.625 238.650390625 704.634361879 c 0,29,30
 238.650390625 640.643723758 238.650390625 640.643723758 272.299591597 616.734530566 c 0,31,32
 305.948792569 592.825337373 305.948792569 592.825337373 410.650390625 557.924804688 c 1,33,-1
 562.224609375 522.450195312 l 1,34,35
 699.825195312 484.825195312 699.825195312 484.825195312 751.962890625 430.537109375 c 128,-1,36
 804.099609375 376.25 804.099609375 376.25 804.099609375 282.724609375 c 0,37,0
 804.099609375 145.125 804.099609375 145.125 710.037109375 66.650390625 c 128,-1,1
EndSplineSet
EndChar

StartChar: t
Encoding: 87 116 89
Width: 476
VWidth: 1998
GlyphClass: 2
Flags: W
LayerCount: 2
Fore
SplineSet
480.525390625 11.8251953125 m 1,0,1
 420.318847324 4.2998046875 420.318847324 4.2998046875 402.049804688 4.2998046875 c 1,2,3
 390.224609375 0 390.224609375 0 389.418457031 0 c 2,4,5
 389.418457031 0 389.418457031 0 376.25 0 c 0,6,7
 290.25 0 290.25 0 251.012695312 45.150390625 c 128,-1,8
 211.775390625 90.2998046875 211.775390625 90.2998046875 211.775390625 185.974609375 c 2,9,-1
 211.775390625 822.375 l 1,10,-1
 90.2998046875 822.375 l 1,11,-1
 90.2998046875 930.950195312 l 1,12,-1
 211.775390625 930.950195312 l 1,13,-1
 211.775390625 1193.25 l 1,14,-1
 338.625 1193.25 l 1,15,-1
 338.625 930.950195312 l 1,16,-1
 484.825195312 930.950195312 l 1,17,-1
 484.825195312 822.375 l 1,18,-1
 338.625 822.375 l 1,19,-1
 338.625 197.799804688 l 2,20,21
 338.625 111.799804688 338.625 111.799804688 443.974609375 111.799804688 c 2,22,-1
 480.525390625 111.799804688 l 1,23,-1
 480.525390625 11.8251953125 l 1,0,1
EndSplineSet
EndChar

StartChar: u
Encoding: 88 117 90
Width: 796
VWidth: 1998
GlyphClass: 2
Flags: W
LayerCount: 2
Fore
SplineSet
227.900390625 316.049804688 m 2,0,1
 227.900390625 99.974609375 227.900390625 99.974609375 418.174804688 99.974609375 c 0,2,3
 538.575195312 99.974609375 538.575195312 99.974609375 608.450195312 188.125 c 128,-1,4
 678.325195312 276.275390625 678.325195312 276.275390625 678.325195312 420.325195312 c 2,5,-1
 678.325195312 930.950195312 l 1,6,-1
 800.875 930.950195312 l 1,7,-1
 800.875 11.8251953125 l 1,8,-1
 686.924804688 11.8251953125 l 1,9,-1
 686.924804688 190.275390625 l 1,10,11
 588.287440369 21.1827660779 588.287440369 21.1827660779 473.537109375 -3.7626953125 c 0,12,13
 436.450195312 -11.8251953125 436.450195312 -11.8251953125 388.075195312 -11.8251953125 c 0,14,15
 253.700195312 -11.8251953125 253.700195312 -11.8251953125 176.837890625 59.125 c 128,-1,16
 99.974609375 130.075195312 99.974609375 130.075195312 99.974609375 264.450195312 c 2,17,-1
 99.974609375 930.950195312 l 1,18,-1
 227.900390625 930.950195312 l 1,19,-1
 227.900390625 316.049804688 l 2,0,1
EndSplineSet
EndChar

StartChar: v
Encoding: 89 118 91
Width: 866
VWidth: 1998
GlyphClass: 2
Flags: W
LayerCount: 2
Fore
SplineSet
554.700195312 11.8251953125 m 1,0,-1
 413.875 11.8251953125 l 1,1,-1
 94.599609375 930.950195312 l 1,2,-1
 238.650390625 930.950195312 l 1,3,-1
 484.825195312 125.775390625 l 1,4,-1
 748.200195312 930.950195312 l 1,5,-1
 886.875 930.950195312 l 1,6,-1
 554.700195312 11.8251953125 l 1,0,-1
EndSplineSet
EndChar

StartChar: w
Encoding: 90 119 92
Width: 1228
VWidth: 1998
GlyphClass: 2
Flags: W
LayerCount: 2
Fore
SplineSet
986.849609375 11.8251953125 m 1,0,-1
 852.474609375 11.8251953125 l 1,1,-1
 660.049804688 790.125 l 1,2,-1
 470.849609375 11.8251953125 l 1,3,-1
 336.474609375 11.8251953125 l 1,4,-1
 78.474609375 930.950195312 l 1,5,-1
 220.375 930.950195312 l 1,6,-1
 402.049804688 141.900390625 l 1,7,-1
 588.025390625 930.950195312 l 1,8,-1
 738.525390625 930.950195312 l 1,9,-1
 924.5 141.900390625 l 1,10,-1
 1119.07519531 930.950195312 l 1,11,-1
 1244.84960938 930.950195312 l 1,12,-1
 986.849609375 11.8251953125 l 1,0,-1
EndSplineSet
EndChar

StartChar: x
Encoding: 91 120 93
Width: 843
VWidth: 1998
GlyphClass: 2
Flags: W
LayerCount: 2
Fore
SplineSet
696.599609375 11.8251953125 m 1,0,-1
 466.549804688 380.549804688 l 1,1,-1
 241.875 11.8251953125 l 1,2,-1
 81.7001953125 11.8251953125 l 1,3,-1
 390.224609375 484.825195312 l 1,4,-1
 95.6748046875 930.950195312 l 1,5,-1
 260.150390625 930.950195312 l 1,6,-1
 476.224609375 588.025390625 l 1,7,-1
 692.299804688 930.950195312 l 1,8,-1
 848.174804688 930.950195312 l 1,9,-1
 552.549804688 484.825195312 l 1,10,-1
 861.075195312 11.8251953125 l 1,11,-1
 696.599609375 11.8251953125 l 1,0,-1
EndSplineSet
EndChar

StartChar: y
Encoding: 92 121 94
Width: 860
VWidth: 1998
GlyphClass: 2
Flags: W
LayerCount: 2
Fore
SplineSet
155.875 -241.875 m 1,0,1
 184.59245459 -253.700195312 184.59245459 -253.700195312 239.0339505 -253.700195312 c 0,2,3
 293.475446411 -253.700195312 293.475446411 -253.700195312 321.809053379 -220.643410797 c 128,-1,4
 350.142660348 -187.586626283 350.142660348 -187.586626283 368.724609375 -122.549804688 c 1,5,-1
 410.650390625 -21.5 l 1,6,-1
 78.474609375 930.950195312 l 1,7,-1
 224.674804688 930.950195312 l 1,8,-1
 471.924804688 125.775390625 l 1,9,-1
 731 930.950195312 l 1,10,-1
 868.599609375 930.950195312 l 1,11,-1
 548.25 21.5 l 1,12,13
 456.259117258 -248.340665531 456.259117258 -248.340665531 402.919964751 -310.145430421 c 0,14,15
 349.580812244 -371.950195312 349.580812244 -371.950195312 251.549804688 -371.950195312 c 0,16,17
 220.375 -371.950195312 220.375 -371.950195312 155.875 -362.275390625 c 1,18,-1
 155.875 -241.875 l 1,0,1
EndSplineSet
EndChar

StartChar: z
Encoding: 93 122 95
Width: 818
VWidth: 1998
GlyphClass: 2
Flags: W
LayerCount: 2
Fore
SplineSet
94.599609375 11.8251953125 m 1,0,-1
 94.599609375 120.400390625 l 1,1,-1
 652.525390625 822.375 l 1,2,-1
 134.375 822.375 l 1,3,-1
 134.375 930.950195312 l 1,4,-1
 812.700195312 930.950195312 l 1,5,-1
 812.700195312 817 l 1,6,-1
 255.849609375 120.400390625 l 1,7,-1
 822.375 120.400390625 l 1,8,-1
 822.375 11.8251953125 l 1,9,-1
 94.599609375 11.8251953125 l 1,0,-1
EndSplineSet
EndChar

StartChar: braceleft
Encoding: 94 123 96
Width: 506
VWidth: 1998
GlyphClass: 2
Flags: W
LayerCount: 2
Fore
SplineSet
216.075195312 476.224609375 m 1,0,1
 390.224609375 403.662196568 390.224609375 403.662196568 390.224609375 216.075195312 c 2,2,-1
 390.224609375 -86 l 2,3,4
 390.224609375 -155.875 390.224609375 -155.875 413.337890625 -201.025390625 c 128,-1,5
 436.450195312 -246.174804688 436.450195312 -246.174804688 484.825195312 -246.174804688 c 2,6,-1
 548.25 -246.174804688 l 1,7,-1
 548.25 -338.625 l 1,8,-1
 443.974609375 -338.625 l 2,9,10
 376.25 -338.625 376.25 -338.625 328.412109375 -277.349609375 c 128,-1,11
 280.575195312 -216.075195312 280.575195312 -216.075195312 280.575195312 -120.400390625 c 2,12,-1
 280.575195312 185.974609375 l 2,13,14
 280.575195312 271.974609375 280.575195312 271.974609375 250.474609375 345.075195312 c 128,-1,15
 220.375 418.174804688 220.375 418.174804688 141.900390625 432.150390625 c 1,16,-1
 141.900390625 522.450195312 l 1,17,18
 280.575195312 550.182996656 280.575195312 550.182996656 280.575195312 760.025390625 c 2,19,-1
 280.575195312 1068.54980469 l 2,20,21
 280.575195312 1164.22460938 280.575195312 1164.22460938 328.412109375 1226.57519531 c 128,-1,22
 376.25 1288.92480469 376.25 1288.92480469 443.974609375 1288.92480469 c 2,23,-1
 548.25 1288.92480469 l 1,24,-1
 548.25 1196.47460938 l 1,25,-1
 484.825195312 1196.47460938 l 2,26,27
 390.224609375 1196.47460938 390.224609375 1196.47460938 390.224609375 1036.29980469 c 2,28,-1
 390.224609375 731 l 2,29,30
 390.224609375 645 390.224609375 645 346.150390625 575.662109375 c 128,-1,31
 302.075195312 506.325195312 302.075195312 506.325195312 216.075195312 476.224609375 c 1,0,1
EndSplineSet
EndChar

StartChar: bar
Encoding: 95 124 97
Width: 237
VWidth: 1998
GlyphClass: 2
Flags: W
LayerCount: 2
Fore
SplineSet
141.900390625 -338.625 m 1,0,-1
 141.900390625 1288.92480469 l 1,1,-1
 238.650390625 1288.92480469 l 1,2,-1
 238.650390625 -338.625 l 1,3,-1
 141.900390625 -338.625 l 1,0,-1
EndSplineSet
EndChar

StartChar: braceright
Encoding: 96 125 98
Width: 485
VWidth: 1998
GlyphClass: 2
Flags: W
LayerCount: 2
Fore
SplineSet
492.349609375 432.150390625 m 1,0,1
 350.450195312 403.769034604 350.450195312 403.769034604 350.450195312 185.974609375 c 2,2,-1
 350.450195312 -120.400390625 l 2,3,4
 350.450195312 -216.075195312 350.450195312 -216.075195312 303.150390625 -277.349609375 c 128,-1,5
 255.849609375 -338.625 255.849609375 -338.625 185.974609375 -338.625 c 2,6,-1
 86 -338.625 l 1,7,-1
 86 -246.174804688 l 1,8,-1
 148.349609375 -246.174804688 l 2,9,10
 238.650390625 -246.174804688 238.650390625 -246.174804688 238.650390625 -86 c 2,11,-1
 238.650390625 216.075195312 l 2,12,13
 238.650390625 405.697785046 238.650390625 405.697785046 418.174804688 476.224609375 c 1,14,15
 332.174804688 510.625 332.174804688 510.625 285.412109375 577.8125 c 128,-1,16
 238.650390625 645 238.650390625 645 238.650390625 731 c 2,17,-1
 238.650390625 1036.29980469 l 2,18,19
 238.650390625 1196.47460938 238.650390625 1196.47460938 148.349609375 1196.47460938 c 2,20,-1
 86 1196.47460938 l 1,21,-1
 86 1288.92480469 l 1,22,-1
 185.974609375 1288.92480469 l 2,23,24
 255.849609375 1288.92480469 255.849609375 1288.92480469 303.150390625 1227.65039062 c 128,-1,25
 350.450195312 1166.375 350.450195312 1166.375 350.450195312 1068.54980469 c 2,26,-1
 350.450195312 760.025390625 l 2,27,28
 350.450195312 547.256776226 350.450195312 547.256776226 492.349609375 518.150390625 c 1,29,-1
 492.349609375 432.150390625 l 1,0,1
EndSplineSet
EndChar

StartChar: asciitilde
Encoding: 97 126 99
Width: 855
VWidth: 1998
GlyphClass: 2
Flags: W
LayerCount: 2
Fore
SplineSet
94.599609375 648.224609375 m 1,0,1
 170.691069038 790.125 170.691069038 790.125 290.25 790.125 c 0,2,3
 342.156623678 790.125 342.156623678 790.125 407.040714183 762.174804688 c 128,-1,4
 471.924804688 734.224609375 471.924804688 734.224609375 546.258010617 700.362304688 c 0,5,6
 620.591216547 666.5 620.591216547 666.5 662.200195312 666.5 c 0,7,8
 726.700195312 666.5 726.700195312 666.5 790.125 752.5 c 1,9,-1
 856.775390625 696.599609375 l 1,10,11
 805.174804688 622.424804688 805.174804688 622.424804688 761.099609375 590.174804688 c 128,-1,12
 717.025390625 557.924804688 717.025390625 557.924804688 668.112792969 557.924804688 c 128,-1,13
 619.200195312 557.924804688 619.200195312 557.924804688 583.724609375 569.212890625 c 128,-1,14
 548.25 580.5 548.25 580.5 488.049804688 614.900390625 c 0,15,16
 369.529334996 682.625 369.529334996 682.625 289.199067327 682.625 c 128,-1,17
 208.868799657 682.625 208.868799657 682.625 155.875 600.924804688 c 1,18,-1
 94.599609375 648.224609375 l 1,0,1
EndSplineSet
EndChar

StartChar: exclamdown
Encoding: 99 161 101
Width: 476
VWidth: 1998
GlyphClass: 2
Flags: W
LayerCount: 2
Fore
SplineSet
172 -338.625 m 1,0,-1
 172 74.1748046875 l 1,1,-1
 211.775390625 622.424804688 l 1,2,-1
 271.974609375 622.424804688 l 1,3,-1
 311.75 74.1748046875 l 1,4,-1
 311.75 -338.625 l 1,5,-1
 172 -338.625 l 1,0,-1
172 770.775390625 m 1,6,-1
 172 930.950195312 l 1,7,-1
 311.75 930.950195312 l 1,8,-1
 311.75 770.775390625 l 1,9,-1
 172 770.775390625 l 1,6,-1
EndSplineSet
EndChar

StartChar: cent
Encoding: 100 162 102
Width: 869
VWidth: 1998
GlyphClass: 2
Flags: W
LayerCount: 2
Fore
SplineSet
513.849609375 842.799804688 m 0,0,1
 376.25 842.799804688 376.25 842.799804688 302.075195312 739.599609375 c 128,-1,2
 227.900390625 636.400390625 227.900390625 636.400390625 227.900390625 454.724609375 c 0,3,4
 227.900390625 228.436835401 227.900390625 228.436835401 371.950195312 120.400390625 c 1,5,-1
 570.825195312 838.5 l 1,6,7
 552.549804688 842.799804688 552.549804688 842.799804688 549.190429688 842.799804688 c 2,8,9
 549.190429688 842.799804688 549.190429688 842.799804688 513.849609375 842.799804688 c 0,0,1
872.900390625 316.049804688 m 1,10,11
 806.034592285 -18.275390625 806.034592285 -18.275390625 498.799804688 -18.275390625 c 0,12,13
 471.577366699 -18.275390625 471.577366699 -18.275390625 383.775390625 -7.525390625 c 1,14,-1
 327.875 -194.575195312 l 1,15,-1
 282.724609375 -194.575195312 l 1,16,-1
 338.625 4.2998046875 l 1,17,18
 212.849609375 78.474609375 212.849609375 78.474609375 156.412109375 182.212890625 c 128,-1,19
 99.974609375 285.950195312 99.974609375 285.950195312 99.974609375 450.424804688 c 0,20,21
 99.974609375 689.075195312 99.974609375 689.075195312 210.162109375 822.912109375 c 128,-1,22
 320.349609375 956.75 320.349609375 956.75 510.625 956.75 c 0,23,24
 548.708685261 956.75 548.708685261 956.75 596.625 942.775390625 c 1,25,-1
 640.700195312 1110.47460938 l 1,26,-1
 682.625 1110.47460938 l 1,27,-1
 640.700195312 934.174804688 l 1,28,29
 830.562696472 865.910659141 830.562696472 865.910659141 864.299804688 634.25 c 1,30,-1
 744.974609375 634.25 l 1,31,32
 726.700195312 708.424804688 726.700195312 708.424804688 698.75 752.5 c 128,-1,33
 670.799804688 796.575195312 670.799804688 796.575195312 610.599609375 822.375 c 1,34,-1
 413.875 99.974609375 l 1,35,36
 440.751220759 94.599609375 440.751220759 94.599609375 488.049804688 94.599609375 c 0,37,38
 596.625 94.599609375 596.625 94.599609375 655.75 144.587890625 c 128,-1,39
 714.875 194.575195312 714.875 194.575195312 744.974609375 316.049804688 c 1,40,-1
 872.900390625 316.049804688 l 1,10,11
EndSplineSet
EndChar

StartChar: sterling
Encoding: 101 163 103
Width: 929
VWidth: 1998
GlyphClass: 2
Flags: W
LayerCount: 2
Fore
SplineSet
947.075195312 60.2001953125 m 1,0,1
 834.811364354 -13.974609375 834.811364354 -13.974609375 744.974609375 -13.974609375 c 0,2,3
 692.573976337 -13.974609375 692.573976337 -13.974609375 551.612183481 25.2626953125 c 128,-1,4
 410.650390625 64.5 410.650390625 64.5 383.775390625 64.5 c 0,5,6
 282.963936507 64.5 282.963936507 64.5 181.674804688 -4.2998046875 c 1,7,-1
 111.799804688 99.974609375 l 1,8,9
 316.049804688 257.090268469 316.049804688 257.090268469 316.049804688 440.75 c 0,10,11
 316.049804688 497.18953444 316.049804688 497.18953444 282.724609375 580.5 c 1,12,-1
 99.974609375 580.5 l 1,13,-1
 99.974609375 670.799804688 l 1,14,-1
 227.900390625 670.799804688 l 1,15,16
 154.591004451 829.63310837 154.591004451 829.63310837 150.395599882 867.391749497 c 128,-1,17
 146.200195312 905.150390625 146.200195312 905.150390625 146.200195312 956.212890623 c 128,-1,18
 146.200195312 1007.27539062 146.200195312 1007.27539062 175.224609375 1072.3125 c 128,-1,19
 204.25 1137.34960938 204.25 1137.34960938 257.462890625 1183.03710938 c 0,20,21
 372.025921395 1281.40039062 372.025921395 1281.40039062 548.446285122 1281.40039062 c 128,-1,22
 724.866648849 1281.40039062 724.866648849 1281.40039062 820.920629112 1176.51321377 c 128,-1,23
 916.974609375 1071.62603693 916.974609375 1071.62603693 916.974609375 908.375 c 2,24,-1
 916.974609375 894.400390625 l 1,25,-1
 790.125 894.400390625 l 1,26,-1
 790.125 898.700195312 l 2,27,28
 790.125 1014.48250454 790.125 1014.48250454 718.852142429 1090.42875227 c 128,-1,29
 647.579284858 1166.375 647.579284858 1166.375 539.28215545 1166.375 c 128,-1,30
 430.985026042 1166.375 430.985026042 1166.375 356.854817708 1097.94711538 c 128,-1,31
 282.724609375 1029.51923077 282.724609375 1029.51923077 282.724609375 930.326088931 c 128,-1,32
 282.724609375 831.132947092 282.724609375 831.132947092 376.25 670.799804688 c 1,33,-1
 660.049804688 670.799804688 l 1,34,-1
 660.049804688 580.5 l 1,35,-1
 418.174804688 580.5 l 1,36,37
 436.450195312 512.383458167 436.450195312 512.383458167 436.450195312 438.404131427 c 0,38,39
 436.450195312 277.174559659 436.450195312 277.174559659 220.375 116.099609375 c 1,40,-1
 234.349609375 95.6748046875 l 1,41,42
 368.433095137 172 368.433095137 172 466.549804688 172 c 0,43,44
 492.956279736 172 492.956279736 172 613.858800889 140.287597656 c 128,-1,45
 734.761322043 108.575195312 734.761322043 108.575195312 756.799804688 108.575195312 c 0,46,47
 824.525390625 108.575195312 824.525390625 108.575195312 886.875 155.875 c 1,48,-1
 947.075195312 60.2001953125 l 1,0,1
EndSplineSet
EndChar

StartChar: currency
Encoding: 102 164 104
Width: 748
VWidth: 1998
GlyphClass: 2
Flags: W
LayerCount: 2
Fore
SplineSet
269.653416016 606.773391624 m 128,-1,1
 204.25 551.346587935 204.25 551.346587935 204.25 470.805050813 c 128,-1,2
 204.25 390.26351369 204.25 390.26351369 271.661683822 335.419354501 c 128,-1,3
 339.073367645 280.575195312 339.073367645 280.575195312 429.328770951 280.575195312 c 128,-1,4
 519.584174258 280.575195312 519.584174258 280.575195312 586.054782441 337.550467352 c 128,-1,5
 652.525390625 394.525739391 652.525390625 394.525739391 652.525390625 470.716321663 c 128,-1,6
 652.525390625 546.906903935 652.525390625 546.906903935 587.96088672 604.553549623 c 128,-1,7
 523.396382814 662.200195312 523.396382814 662.200195312 429.226607423 662.200195312 c 128,-1,0
 335.056832032 662.200195312 335.056832032 662.200195312 269.653416016 606.773391624 c 128,-1,1
238.650390625 688 m 1,8,9
 335.981026541 744.974609375 335.981026541 744.974609375 428.721321865 744.974609375 c 128,-1,10
 521.461617189 744.974609375 521.461617189 744.974609375 614.900390625 688 c 1,11,-1
 682.625 744.974609375 l 1,12,-1
 748.200195312 688 l 1,13,-1
 682.625 634.25 l 1,14,15
 747.125 555.775390625 747.125 555.775390625 746.049804688 470.850097656 c 128,-1,16
 744.974609375 385.924804688 744.974609375 385.924804688 682.625 310.674804688 c 1,17,-1
 748.200195312 253.700195312 l 1,18,-1
 682.625 197.799804688 l 1,19,-1
 614.900390625 250.474609375 l 1,20,21
 524.599609375 202.099609375 524.599609375 202.099609375 426.237304688 202.099609375 c 128,-1,22
 327.875 202.099609375 327.875 202.099609375 238.650390625 250.474609375 c 1,23,-1
 176.299804688 197.799804688 l 1,24,-1
 104.275390625 253.700195312 l 1,25,-1
 172 310.674804688 l 1,26,27
 107.5 389.150390625 107.5 389.150390625 108.037597656 473.537597656 c 128,-1,28
 108.575195312 557.924804688 108.575195312 557.924804688 172 634.25 c 1,29,-1
 104.275390625 688 l 1,30,-1
 176.299804688 744.974609375 l 1,31,-1
 238.650390625 688 l 1,8,9
EndSplineSet
EndChar

StartChar: yen
Encoding: 103 165 105
Width: 996
VWidth: 1998
GlyphClass: 2
Flags: W
LayerCount: 2
Fore
SplineSet
662.200195312 682.625 m 1,0,-1
 942.775390625 682.625 l 1,1,-1
 942.775390625 600.924804688 l 1,2,-1
 606.299804688 600.924804688 l 1,3,-1
 606.299804688 424.625 l 1,4,-1
 942.775390625 424.625 l 1,5,-1
 942.775390625 341.849609375 l 1,6,-1
 606.299804688 341.849609375 l 1,7,-1
 606.299804688 11.8251953125 l 1,8,-1
 480.525390625 11.8251953125 l 1,9,-1
 480.525390625 341.849609375 l 1,10,-1
 151.575195312 341.849609375 l 1,11,-1
 151.575195312 424.625 l 1,12,-1
 480.525390625 424.625 l 1,13,-1
 480.525390625 600.924804688 l 1,14,-1
 151.575195312 600.924804688 l 1,15,-1
 151.575195312 682.625 l 1,16,-1
 424.625 682.625 l 1,17,-1
 94.599609375 1226.57519531 l 1,18,-1
 238.650390625 1226.57519531 l 1,19,-1
 543.950195312 682.625 l 1,20,-1
 852.474609375 1226.57519531 l 1,21,-1
 998.674804688 1226.57519531 l 1,22,-1
 662.200195312 682.625 l 1,0,-1
EndSplineSet
EndChar

StartChar: brokenbar
Encoding: 104 166 106
Width: 199
VWidth: 1998
GlyphClass: 2
Flags: W
LayerCount: 2
Fore
SplineSet
99.974609375 -338.625 m 1,0,-1
 99.974609375 294.549804688 l 1,1,-1
 202.099609375 294.549804688 l 1,2,-1
 202.099609375 -338.625 l 1,3,-1
 99.974609375 -338.625 l 1,0,-1
99.974609375 652.525390625 m 1,4,-1
 99.974609375 1288.92480469 l 1,5,-1
 202.099609375 1288.92480469 l 1,6,-1
 202.099609375 652.525390625 l 1,7,-1
 99.974609375 652.525390625 l 1,4,-1
EndSplineSet
EndChar

StartChar: section
Encoding: 105 167 107
Width: 882
VWidth: 1998
GlyphClass: 2
Flags: W
LayerCount: 2
Fore
SplineSet
660.049804688 576.32421875 m 1,0,-1
 354.75 771.241210938 l 1,1,2
 284.875 732.256835938 284.875 732.256835938 254.775390625 689.5859375 c 128,-1,3
 224.674804688 646.915039062 224.674804688 646.915039062 224.674804688 584.752929688 c 0,4,5
 224.674804688 482.551757812 224.674804688 482.551757812 306.375 423.55078125 c 1,6,-1
 640.700195312 204.399414062 l 1,7,8
 714.875 254.973632812 714.875 254.973632812 742.825195312 297.118164062 c 128,-1,9
 770.775390625 339.26171875 770.775390625 339.26171875 770.775390625 394.048828125 c 0,10,11
 776.150390625 507.838867188 776.150390625 507.838867188 660.049804688 576.32421875 c 1,0,-1
708.424804688 148.55859375 m 1,12,13
 764.325195312 85.341796875 764.325195312 85.341796875 782.599609375 44.7783203125 c 128,-1,14
 800.875 4.2138671875 800.875 4.2138671875 800.875 -52.6806640623 c 0,15,16
 800.875 -170.302032161 800.875 -170.302032161 709.040091613 -247.933730924 c 128,-1,17
 617.205183227 -325.565429688 617.205183227 -325.565429688 481.677786926 -325.565429688 c 128,-1,18
 346.150390625 -325.565429688 346.150390625 -325.565429688 266.0625 -249.178710938 c 128,-1,19
 185.974609375 -172.791992188 185.974609375 -172.791992188 176.299804688 -13.6962890625 c 1,20,-1
 302.075195312 -13.6962890625 l 1,21,22
 313.900390625 -211.775390625 313.900390625 -211.775390625 484.825195312 -211.775390625 c 0,23,24
 570.825195312 -211.775390625 570.825195312 -211.775390625 624.575195312 -169.630859375 c 128,-1,25
 678.325195312 -127.486328125 678.325195312 -127.486328125 678.325195312 -71.6455078125 c 128,-1,26
 678.325195312 -15.8046875 678.325195312 -15.8046875 654.137695312 19.4912109375 c 128,-1,27
 629.950195312 54.7880859375 629.950195312 54.7880859375 578.349609375 92.716796875 c 1,28,-1
 211.775390625 339.26171875 l 1,29,30
 104.275390625 416.085797555 104.275390625 416.085797555 104.275390625 551.036132812 c 0,31,32
 104.275390625 639.540039062 104.275390625 639.540039062 142.974609375 699.595703125 c 128,-1,33
 181.674804688 759.651367188 181.674804688 759.651367188 282.724609375 821.814453125 c 1,34,35
 231.125 885.030273438 231.125 885.030273438 214.462890625 921.379882812 c 128,-1,36
 197.799804688 957.729492188 197.799804688 957.729492188 197.799804688 1012.51660156 c 0,37,38
 197.799804688 1129.46632353 197.799804688 1129.46632353 278.961384643 1209.01392348 c 128,-1,39
 360.122964598 1288.56152344 360.122964598 1288.56152344 498.799804688 1288.56152344 c 0,40,41
 781.525390625 1288.56152344 781.525390625 1288.56152344 796.575195312 990.390625 c 1,42,-1
 678.325195312 990.390625 l 1,43,44
 666.5 1084.16210938 666.5 1084.16210938 625.650390625 1130.52050781 c 128,-1,45
 584.799804688 1176.87988281 584.799804688 1176.87988281 504.712402344 1176.87988281 c 128,-1,46
 424.625 1176.87988281 424.625 1176.87988281 374.637695312 1136.84179688 c 128,-1,47
 324.650390625 1096.80566406 324.650390625 1096.80566406 324.650390625 1036.22363281 c 128,-1,48
 324.650390625 975.641601562 324.650390625 975.641601562 356.362304688 935.076171875 c 128,-1,49
 388.075195312 894.512695312 388.075195312 894.512695312 454.724609375 855.529296875 c 2,50,-1
 708.424804688 703.809570312 l 1,51,52
 804.099609375 640.592773438 804.099609375 640.592773438 847.637695312 578.430664062 c 128,-1,53
 891.174804688 516.267578125 891.174804688 516.267578125 891.174804688 429.871582031 c 128,-1,54
 891.174804688 343.475585938 891.174804688 343.475585938 851.9375 280.259765625 c 128,-1,55
 812.700195312 217.04296875 812.700195312 217.04296875 708.424804688 148.55859375 c 1,12,13
EndSplineSet
EndChar

StartChar: dieresis
Encoding: 106 168 108
Width: 593
VWidth: 1998
GlyphClass: 2
Flags: W
LayerCount: 2
Fore
SplineSet
95.6748046875 1102.95019531 m 1,0,-1
 95.6748046875 1254.52539062 l 1,1,-1
 255.849609375 1254.52539062 l 1,2,-1
 255.849609375 1102.95019531 l 1,3,-1
 95.6748046875 1102.95019531 l 1,0,-1
436.450195312 1102.95019531 m 1,4,-1
 436.450195312 1254.52539062 l 1,5,-1
 596.625 1254.52539062 l 1,6,-1
 596.625 1102.95019531 l 1,7,-1
 436.450195312 1102.95019531 l 1,4,-1
EndSplineSet
EndChar

StartChar: copyright
Encoding: 107 169 109
Width: 1266
VWidth: 1998
GlyphClass: 2
Flags: W
LayerCount: 2
Fore
SplineSet
903 726.700195312 m 1,0,1
 861.869626753 868.599609375 861.869626753 868.599609375 708.424804688 868.599609375 c 0,2,3
 596.625 868.599609375 596.625 868.599609375 534.275390625 793.349609375 c 128,-1,4
 471.924804688 718.099609375 471.924804688 718.099609375 471.924804688 590.174804688 c 128,-1,5
 471.924804688 462.25 471.924804688 462.25 529.974609375 391.299804688 c 128,-1,6
 588.025390625 320.349609375 588.025390625 320.349609375 681.550292969 320.349609375 c 128,-1,7
 775.075195312 320.349609375 775.075195312 320.349609375 826.674804688 361.200195312 c 128,-1,8
 878.275390625 402.049804688 878.275390625 402.049804688 905.150390625 506.325195312 c 1,9,-1
 1012.65039062 506.325195312 l 1,10,11
 1000.82519531 462.25 1000.82519531 462.25 992.762695312 430.537109375 c 128,-1,12
 984.700195312 398.825195312 984.700195312 398.825195312 970.724609375 374.637695312 c 0,13,14
 885.945425344 227.900390625 885.945425344 227.900390625 688 227.900390625 c 0,15,16
 539.650390625 227.900390625 539.650390625 227.900390625 450.962890625 326.262695312 c 128,-1,17
 362.275390625 424.625 362.275390625 424.625 362.275390625 594.475097656 c 128,-1,18
 362.275390625 764.325195312 362.275390625 764.325195312 455.262695312 862.6875 c 128,-1,19
 548.25 961.049804688 548.25 961.049804688 686.387695312 961.049804688 c 0,20,21
 962.801973488 961.049804688 962.801973488 961.049804688 1006.20019531 726.700195312 c 1,22,-1
 903 726.700195312 l 1,0,1
1053.44737992 201.413926347 m 128,-1,24
 1196.47460938 365.202852693 1196.47460938 365.202852693 1196.47460938 593.152512949 c 128,-1,25
 1196.47460938 821.102173205 1196.47460938 821.102173205 1053.16131274 984.063781913 c 128,-1,26
 909.848016095 1147.02539062 909.848016095 1147.02539062 687.463486254 1147.02539062 c 128,-1,27
 465.078956413 1147.02539062 465.078956413 1147.02539062 320.689380551 982.841194266 c 128,-1,28
 176.299804688 818.656997912 176.299804688 818.656997912 176.299804688 593.161177527 c 128,-1,29
 176.299804688 367.665357142 176.299804688 367.665357142 320.403309173 202.645178571 c 128,-1,30
 464.506813658 37.625 464.506813658 37.625 687.463482062 37.625 c 128,-1,23
 910.420150467 37.625 910.420150467 37.625 1053.44737992 201.413926347 c 128,-1,24
686.924804688 -30.099609375 m 128,-1,32
 556.849609375 -30.099609375 556.849609375 -30.099609375 446.662109375 19.8876953125 c 128,-1,33
 336.474609375 69.875 336.474609375 69.875 259.075195312 158.025390625 c 0,34,35
 95.6748046875 344.11810379 95.6748046875 344.11810379 95.6748046875 592.325195312 c 128,-1,36
 95.6748046875 840.53022521 95.6748046875 840.53022521 259.075195312 1026.625 c 0,37,38
 336.474609375 1114.77539062 336.474609375 1114.77539062 445.587890625 1166.91210938 c 128,-1,39
 554.700195312 1219.04980469 554.700195312 1219.04980469 685.850097656 1219.04980469 c 128,-1,40
 817 1219.04980469 817 1219.04980469 926.650390625 1166.91210938 c 128,-1,41
 1036.29980469 1114.77539062 1036.29980469 1114.77539062 1114.77539062 1026.625 c 128,-1,42
 1193.25 938.474609375 1193.25 938.474609375 1236.25 826.674804688 c 128,-1,43
 1279.25 714.875 1279.25 714.875 1279.25 592.325195312 c 128,-1,44
 1279.25 469.775390625 1279.25 469.775390625 1236.25 357.974609375 c 128,-1,45
 1193.25 246.174804688 1193.25 246.174804688 1114.77539062 158.025390625 c 128,-1,46
 1036.29980469 69.875 1036.29980469 69.875 926.650390625 19.8876953125 c 128,-1,31
 817 -30.099609375 817 -30.099609375 686.924804688 -30.099609375 c 128,-1,32
EndSplineSet
EndChar

StartChar: ordfeminine
Encoding: 108 170 110
Width: 632
VWidth: 1998
GlyphClass: 2
Flags: W
LayerCount: 2
Fore
SplineSet
137.599609375 879.565429688 m 4,0,1
 137.599609375 783.783203125 137.599609375 783.783203125 263.375 783.783203125 c 4,2,3
 328.950195312 783.783203125 328.950195312 783.783203125 384.849609375 824.224609375 c 132,-1,4
 440.75 864.666015625 440.75 864.666015625 440.75 926.392578125 c 6,5,-1
 440.75 1027.49609375 l 5,6,7
 419.25 1006.2109375 419.25 1006.2109375 387 993.97265625 c 132,-1,8
 354.75 981.733398438 354.75 981.733398438 271.974609375 972.155273438 c 4,9,10
 204.25 960.44921875 204.25 960.44921875 170.924804688 942.356445312 c 132,-1,11
 137.599609375 924.263671875 137.599609375 924.263671875 137.599609375 879.565429688 c 4,0,1
74.1748046875 531.555664062 m 5,12,-1
 74.1748046875 595.41015625 l 5,13,-1
 557.924804688 595.41015625 l 5,14,-1
 557.924804688 531.555664062 l 5,15,-1
 74.1748046875 531.555664062 l 5,12,-1
440.75 1126.47070312 m 4,16,17
 440.75 1211.61132812 440.75 1211.61132812 307.987304688 1211.61132812 c 132,-1,18
 175.224609375 1211.61132812 175.224609375 1211.61132812 155.875 1119.02148438 c 5,19,-1
 86 1119.02148438 l 5,20,21
 97.8251953125 1204.16210938 97.8251953125 1204.16210938 149.962890625 1242.47558594 c 132,-1,22
 202.099609375 1280.78710938 202.099609375 1280.78710938 306.375 1280.78710938 c 132,-1,23
 410.650390625 1280.78710938 410.650390625 1280.78710938 466.549804688 1242.47558594 c 132,-1,24
 522.450195312 1204.16210938 522.450195312 1204.16210938 522.450195312 1138.17773438 c 6,25,-1
 522.450195312 818.903320312 l 6,26,27
 522.450195312 775.268554688 522.450195312 775.268554688 562.224609375 772.076171875 c 4,28,29
 574.049804688 772.076171875 574.049804688 772.076171875 584.799804688 775.268554688 c 5,30,-1
 584.799804688 716.734375 l 5,31,-1
 580.5 716.734375 l 5,32,33
 573.515901969 714.607421875 573.515901969 714.607421875 535.083146297 714.607421875 c 132,-1,34
 496.650390625 714.607421875 496.650390625 714.607421875 475.6875 732.166992188 c 132,-1,35
 454.724609375 749.7265625 454.724609375 749.7265625 446.125 818.903320312 c 5,36,37
 381.625 755.047851562 381.625 755.047851562 335.9375 734.827148438 c 132,-1,38
 290.25 714.607421875 290.25 714.607421875 219.299804688 714.607421875 c 132,-1,39
 148.349609375 714.607421875 148.349609375 714.607421875 102.125 756.112304688 c 132,-1,40
 55.900390625 797.618164062 55.900390625 797.618164062 55.900390625 868.922851562 c 4,41,42
 55.900390625 1013.66113281 55.900390625 1013.66113281 234.349609375 1032.81738281 c 5,43,-1
 388.075195312 1053.03808594 l 6,44,45
 440.75 1060.48761789 440.75 1060.48761789 440.75 1126.47070312 c 4,16,17
EndSplineSet
EndChar

StartChar: guillemotleft
Encoding: 109 171 111
Width: 955
VWidth: 1998
GlyphClass: 2
Flags: W
LayerCount: 2
Fore
SplineSet
178.450195312 420.325195312 m 1,0,-1
 178.450195312 578.349609375 l 1,1,-1
 424.625 775.075195312 l 1,2,-1
 424.625 652.525390625 l 1,3,-1
 234.349609375 498.799804688 l 1,4,-1
 424.625 346.150390625 l 1,5,-1
 424.625 220.375 l 1,6,-1
 178.450195312 420.325195312 l 1,0,-1
532.125 420.325195312 m 1,7,-1
 532.125 578.349609375 l 1,8,-1
 778.299804688 775.075195312 l 1,9,-1
 778.299804688 652.525390625 l 1,10,-1
 588.025390625 498.799804688 l 1,11,-1
 778.299804688 346.150390625 l 1,12,-1
 778.299804688 220.375 l 1,13,-1
 532.125 420.325195312 l 1,7,-1
EndSplineSet
EndChar

StartChar: logicalnot
Encoding: 110 172 112
Width: 1004
VWidth: 1998
GlyphClass: 2
Flags: W
LayerCount: 2
Fore
SplineSet
778.299804688 302.075195312 m 1,0,-1
 782.599609375 574.049804688 l 1,1,-1
 125.775390625 574.049804688 l 1,2,-1
 125.775390625 652.525390625 l 1,3,-1
 878.275390625 652.525390625 l 1,4,-1
 878.275390625 302.075195312 l 1,5,-1
 778.299804688 302.075195312 l 1,0,-1
EndSplineSet
EndChar

StartChar: uni00AD
Encoding: 111 173 113
Width: 571
VWidth: 1998
GlyphClass: 2
Flags: W
LayerCount: 2
Fore
SplineSet
90.2998046875 427.849609375 m 1,0,-1
 90.2998046875 570.825195312 l 1,1,-1
 488.049804688 570.825195312 l 1,2,-1
 488.049804688 427.849609375 l 1,3,-1
 90.2998046875 427.849609375 l 1,0,-1
EndSplineSet
EndChar

StartChar: registered
Encoding: 112 174 114
Width: 1280
VWidth: 1998
GlyphClass: 2
Flags: W
LayerCount: 2
Fore
SplineSet
734.224609375 852.474609375 m 2,0,-1
 496.650390625 852.474609375 l 1,1,-1
 496.650390625 629.950195312 l 1,2,-1
 714.875 629.950195312 l 2,3,4
 856.775390625 629.950195312 856.775390625 629.950195312 856.775390625 744.974609375 c 0,5,6
 860 852.474609375 860 852.474609375 734.224609375 852.474609375 c 2,0,-1
726.700195312 942.775390625 m 2,7,8
 968.575195312 942.775390625 968.575195312 942.775390625 968.575195312 748.200195312 c 0,9,10
 968.575195312 696.599609375 968.575195312 696.599609375 948.6875 661.662109375 c 128,-1,11
 928.799804688 626.724609375 928.799804688 626.724609375 876.125 588.025390625 c 1,12,13
 920.200195312 566.525390625 920.200195312 566.525390625 935.25 538.575195312 c 128,-1,14
 950.299804688 510.625 950.299804688 510.625 954.599609375 457.950195312 c 1,15,-1
 961.049804688 336.474609375 l 1,16,17
 965.349609375 306.375 965.349609375 306.375 971.262695312 293.474609375 c 128,-1,18
 977.174804688 280.575195312 977.174804688 280.575195312 994.375 267.674804688 c 1,19,-1
 994.375 246.174804688 l 1,20,-1
 868.599609375 246.174804688 l 1,21,22
 848.174804688 298.16966386 848.174804688 298.16966386 848.174804688 419.447136618 c 128,-1,23
 848.174804688 540.724609375 848.174804688 540.724609375 726.700195312 540.724609375 c 2,24,-1
 496.650390625 540.724609375 l 1,25,-1
 496.650390625 246.174804688 l 1,26,-1
 388.075195312 246.174804688 l 1,27,-1
 388.075195312 942.775390625 l 1,28,-1
 726.700195312 942.775390625 l 2,7,8
1057.95889938 202.305662503 m 128,-1,30
 1202.92480469 366.986325005 1202.92480469 366.986325005 1202.92480469 593.158788282 c 128,-1,31
 1202.92480469 819.331251559 1202.92480469 819.331251559 1057.67052267 983.178321089 c 128,-1,32
 912.416240641 1147.02539062 912.416240641 1147.02539062 691.225097656 1147.02539062 c 128,-1,33
 470.033954671 1147.02539062 470.033954671 1147.02539062 325.854379679 984.390584374 c 128,-1,34
 181.674804688 821.755778128 181.674804688 821.755778128 181.674804688 593.150196874 c 128,-1,35
 181.674804688 364.544615619 181.674804688 364.544615619 325.566002965 201.08480781 c 128,-1,36
 469.457201241 37.625 469.457201241 37.625 691.225097656 37.625 c 128,-1,29
 912.992994071 37.625 912.992994071 37.625 1057.95889938 202.305662503 c 128,-1,30
692.299804688 -30.099609375 m 128,-1,38
 562.224609375 -30.099609375 562.224609375 -30.099609375 452.037109375 19.8876953125 c 128,-1,39
 341.849609375 69.875 341.849609375 69.875 263.912109375 158.025390625 c 0,40,41
 99.974609375 343.443123654 99.974609375 343.443123654 99.974609375 592.325195312 c 128,-1,42
 99.974609375 841.205212823 99.974609375 841.205212823 267.00882596 1030.12750876 c 128,-1,43
 434.043042546 1219.04980469 434.043042546 1219.04980469 692.299804688 1219.04980469 c 0,44,45
 822.375 1219.04980469 822.375 1219.04980469 932.5625 1166.91210938 c 128,-1,46
 1042.75 1114.77539062 1042.75 1114.77539062 1121.76269531 1026.625 c 128,-1,47
 1200.77539062 938.474609375 1200.77539062 938.474609375 1241.08789062 826.674804688 c 128,-1,48
 1281.40039062 714.875 1281.40039062 714.875 1281.40039062 592.325195312 c 128,-1,49
 1281.40039062 469.775390625 1281.40039062 469.775390625 1241.08789062 357.974609375 c 128,-1,50
 1200.77539062 246.174804688 1200.77539062 246.174804688 1121.76269531 158.025390625 c 128,-1,51
 1042.75 69.875 1042.75 69.875 932.5625 19.8876953125 c 128,-1,37
 822.375 -30.099609375 822.375 -30.099609375 692.299804688 -30.099609375 c 128,-1,38
EndSplineSet
EndChar

StartChar: macron
Encoding: 113 175 115
Width: 606
VWidth: 1998
GlyphClass: 2
Flags: W
LayerCount: 2
Fore
SplineSet
95.6748046875 1140.57519531 m 1,0,-1
 95.6748046875 1223.34960938 l 1,1,-1
 610.599609375 1223.34960938 l 1,2,-1
 610.599609375 1140.57519531 l 1,3,-1
 95.6748046875 1140.57519531 l 1,0,-1
EndSplineSet
EndChar

StartChar: degree
Encoding: 114 176 116
Width: 583
VWidth: 1998
GlyphClass: 2
Flags: W
LayerCount: 2
Fore
SplineSet
218.942030168 1141.35660671 m 128,-1,1
 164.474609375 1081.9378228 164.474609375 1081.9378228 164.474609375 1005.95638156 c 128,-1,2
 164.474609375 929.974940326 164.474609375 929.974940326 217.72895479 867.03727485 c 128,-1,3
 270.983300205 804.099609375 270.983300205 804.099609375 343.007808167 804.099609375 c 128,-1,4
 415.032316129 804.099609375 415.032316129 804.099609375 470.891158064 865.900835361 c 128,-1,5
 526.75 927.702061347 526.75 927.702061347 526.75 1002.4375 c 128,-1,6
 526.75 1077.17293866 526.75 1077.17293866 470.891158066 1138.97416464 c 128,-1,7
 415.032316131 1200.77539062 415.032316131 1200.77539062 344.220883546 1200.77539062 c 128,-1,0
 273.409450962 1200.77539062 273.409450962 1200.77539062 218.942030168 1141.35660671 c 128,-1,1
171.861272236 824.747852958 m 128,-1,9
 104.275390625 896.995705916 104.275390625 896.995705916 104.275390625 1005.0441853 c 128,-1,10
 104.275390625 1113.09266468 104.275390625 1113.09266468 173.869041345 1183.80902765 c 128,-1,11
 243.462692065 1254.52539062 243.462692065 1254.52539062 346.150390625 1254.52539062 c 0,12,13
 503.676074045 1254.52539062 503.676074045 1254.52539062 566.525390625 1102.95019531 c 0,14,15
 584.799804688 1058.875 584.799804688 1058.875 584.799804688 1002.97460938 c 0,16,17
 584.799804688 892.745457964 584.799804688 892.745457964 513.546892528 822.622728982 c 128,-1,18
 442.293980369 752.5 442.293980369 752.5 340.870567108 752.5 c 128,-1,8
 239.447153847 752.5 239.447153847 752.5 171.861272236 824.747852958 c 128,-1,9
EndSplineSet
EndChar

StartChar: plusminus
Encoding: 115 177 117
Width: 882
VWidth: 1998
GlyphClass: 2
Flags: W
LayerCount: 2
Fore
SplineSet
125.775390625 69.875 m 1,0,-1
 125.775390625 151.575195312 l 1,1,-1
 878.275390625 151.575195312 l 1,2,-1
 878.275390625 69.875 l 1,3,-1
 125.775390625 69.875 l 1,0,-1
552.549804688 574.049804688 m 1,4,-1
 552.549804688 294.549804688 l 1,5,-1
 454.724609375 294.549804688 l 1,6,-1
 454.724609375 574.049804688 l 1,7,-1
 125.775390625 574.049804688 l 1,8,-1
 125.775390625 656.825195312 l 1,9,-1
 454.724609375 656.825195312 l 1,10,-1
 454.724609375 934.174804688 l 1,11,-1
 552.549804688 934.174804688 l 1,12,-1
 552.549804688 656.825195312 l 1,13,-1
 878.275390625 656.825195312 l 1,14,-1
 878.275390625 574.049804688 l 1,15,-1
 552.549804688 574.049804688 l 1,4,-1
EndSplineSet
EndChar

StartChar: uni00B2
Encoding: 116 178 118
Width: 567
VWidth: 1998
GlyphClass: 2
Flags: W
LayerCount: 2
Fore
SplineSet
39.775390625 518.150390625 m 1,0,1
 47.2998046875 613.825195312 47.2998046875 613.825195312 86.537109375 681.012695312 c 128,-1,2
 125.775390625 748.200195312 125.775390625 748.200195312 211.775390625 796.575195312 c 1,3,-1
 316.049804688 856.775390625 l 1,4,5
 364.424804688 886.875 364.424804688 886.875 394.525390625 905.6875 c 128,-1,6
 424.625 924.5 424.625 924.5 447.737304688 952.085537644 c 0,7,8
 470.849609375 979.671075288 470.849609375 979.671075288 470.849609375 1048.83553764 c 128,-1,9
 470.849609375 1118 470.849609375 1118 429.462890625 1155.625 c 128,-1,10
 388.075195312 1193.25 388.075195312 1193.25 309.0625 1193.25 c 128,-1,11
 230.049804688 1193.25 230.049804688 1193.25 190.8125 1148.09960938 c 128,-1,12
 151.575195312 1102.95019531 151.575195312 1102.95019531 146.200195312 1006.20019531 c 1,13,-1
 64.5 1006.20019531 l 1,14,15
 76.3251953125 1148.09960938 76.3251953125 1148.09960938 140.287109375 1211.52539062 c 128,-1,16
 204.25 1274.95019531 204.25 1274.95019531 316.587402344 1274.95019531 c 128,-1,17
 428.924804688 1274.95019531 428.924804688 1274.95019531 495.575195312 1209.91210938 c 128,-1,18
 562.224609375 1144.875 562.224609375 1144.875 562.224609375 1047.42377459 c 0,19,20
 562.224609375 949.972549175 562.224609375 949.972549175 530.512207031 914.1239699 c 0,21,22
 472.368407543 848.396606116 472.368407543 848.396606116 364.424804688 794.424804688 c 1,23,-1
 285.950195312 752.5 l 2,24,25
 230.049804688 722.400390625 230.049804688 722.400390625 198.875 689.612304688 c 128,-1,26
 167.700195312 656.825195312 167.700195312 656.825195312 137.599609375 604.150390625 c 1,27,-1
 562.224609375 604.150390625 l 1,28,-1
 562.224609375 518.150390625 l 1,29,-1
 39.775390625 518.150390625 l 1,0,1
EndSplineSet
EndChar

StartChar: uni00B3
Encoding: 117 179 119
Width: 571
VWidth: 1998
GlyphClass: 2
Flags: W
LayerCount: 2
Fore
SplineSet
446.125 1077.15039062 m 0,0,1
 446.125 1193.25 446.125 1193.25 302.075195312 1193.25 c 0,2,3
 227.900390625 1193.25 227.900390625 1193.25 189.737304688 1158.84960938 c 128,-1,4
 151.575195312 1124.45019531 151.575195312 1124.45019531 146.200195312 1047.04980469 c 1,5,-1
 64.5 1047.04980469 l 1,6,7
 82.775390625 1274.95019531 82.775390625 1274.95019531 310.674804688 1274.95019531 c 0,8,9
 419.25 1274.95019531 419.25 1274.95019531 481.599609375 1222.8125 c 128,-1,10
 543.950195312 1170.67480469 543.950195312 1170.67480469 543.950195312 1099.72509765 c 128,-1,11
 543.950195312 1028.77539062 543.950195312 1028.77539062 516 991.6875 c 128,-1,12
 488.049804688 954.599609375 488.049804688 954.599609375 413.875 928.799804688 c 1,13,14
 508.474609375 894.400390625 508.474609375 894.400390625 539.650390625 855.700195312 c 128,-1,15
 570.825195312 817 570.825195312 817 570.825195312 748.200195312 c 0,16,17
 570.825195312 632.099609375 570.825195312 632.099609375 497.724609375 565.450195312 c 128,-1,18
 424.625 498.799804688 424.625 498.799804688 302.075195312 498.799804688 c 0,19,20
 128.746126544 498.799804688 128.746126544 498.799804688 75.787109375 626.1875 c 0,21,22
 55.900390625 674.025390625 55.900390625 674.025390625 44.0751953125 744.974609375 c 1,23,-1
 137.599609375 744.974609375 l 1,24,25
 145.125 654.674804688 145.125 654.674804688 182.75 616.512695312 c 128,-1,26
 220.375 578.349609375 220.375 578.349609375 302.075195312 578.349609375 c 128,-1,27
 383.775390625 578.349609375 383.775390625 578.349609375 430 620.275390625 c 128,-1,28
 476.224609375 662.200195312 476.224609375 662.200195312 476.224609375 737.450195312 c 128,-1,29
 476.224609375 812.700195312 476.224609375 812.700195312 430 845.487304688 c 128,-1,30
 383.775390625 878.275390625 383.775390625 878.275390625 285.950195312 878.275390625 c 2,31,-1
 260.150390625 878.275390625 l 1,32,-1
 260.150390625 950.299804688 l 1,33,-1
 290.25 950.299804688 l 2,34,35
 446.125 950.299804688 446.125 950.299804688 446.125 1077.15039062 c 0,0,1
EndSplineSet
EndChar

StartChar: acute
Encoding: 118 180 120
Width: 385
VWidth: 1998
GlyphClass: 2
Flags: W
LayerCount: 2
Fore
SplineSet
178.450195312 1064.25 m 1,0,-1
 94.599609375 1064.25 l 1,1,-1
 230.049804688 1293.22460938 l 1,2,-1
 383.775390625 1293.22460938 l 1,3,-1
 178.450195312 1064.25 l 1,0,-1
EndSplineSet
EndChar

StartChar: uni00B5
Encoding: 119 181 121
Width: 829
VWidth: 1998
GlyphClass: 2
Flags: W
LayerCount: 2
Fore
SplineSet
255.849609375 316.049804688 m 2,0,1
 255.849609375 99.974609375 255.849609375 99.974609375 446.125 99.974609375 c 0,2,3
 566.525390625 99.974609375 566.525390625 99.974609375 637.474609375 188.125 c 128,-1,4
 708.424804688 276.275390625 708.424804688 276.275390625 708.424804688 420.325195312 c 2,5,-1
 708.424804688 930.950195312 l 1,6,-1
 830.974609375 930.950195312 l 1,7,-1
 830.974609375 11.8251953125 l 1,8,-1
 714.875 11.8251953125 l 1,9,-1
 714.875 190.275390625 l 1,10,11
 615.027004631 19.1073985644 615.027004631 19.1073985644 505.25 -3.7626953125 c 0,12,13
 466.549804688 -11.8251953125 466.549804688 -11.8251953125 417.637207031 -11.8251953125 c 128,-1,14
 368.724609375 -11.8251953125 368.724609375 -11.8251953125 335.400390625 3.224609375 c 128,-1,15
 302.075195312 18.275390625 302.075195312 18.275390625 255.849609375 69.875 c 1,16,-1
 255.849609375 -357.974609375 l 1,17,-1
 130.075195312 -357.974609375 l 1,18,-1
 130.075195312 930.950195312 l 1,19,-1
 255.849609375 930.950195312 l 1,20,-1
 255.849609375 316.049804688 l 2,0,1
EndSplineSet
EndChar

StartChar: paragraph
Encoding: 120 182 122
Width: 959
VWidth: 1998
GlyphClass: 2
Flags: W
LayerCount: 2
Fore
SplineSet
864.299804688 -297.775390625 m 1,0,-1
 864.299804688 1196.47460938 l 1,1,-1
 634.25 1196.47460938 l 1,2,-1
 634.25 -297.775390625 l 1,3,-1
 532.125 -297.775390625 l 1,4,-1
 532.125 629.950195312 l 1,5,6
 346.150390625 641.775390625 346.150390625 641.775390625 255.3125 731 c 128,-1,7
 164.474609375 820.224609375 164.474609375 820.224609375 164.474609375 966.424804688 c 0,8,9
 164.474609375 1112.625 164.474609375 1112.625 263.375 1197.01269531 c 128,-1,10
 362.275390625 1281.40039062 362.275390625 1281.40039062 552.549804688 1281.40039062 c 2,11,-1
 964.275390625 1281.40039062 l 1,12,-1
 964.275390625 -297.775390625 l 1,13,-1
 864.299804688 -297.775390625 l 1,0,-1
EndSplineSet
EndChar

StartChar: OE
Encoding: 121 338 123
Width: 1721
VWidth: 1998
GlyphClass: 2
Flags: W
LayerCount: 2
Fore
SplineSet
903 869.225585938 m 2,0,1
 903 997.171559206 903 997.171559206 816.226014552 1083.33773273 c 0,2,3
 729.452029104 1169.50390625 729.452029104 1169.50390625 592.325195312 1169.50390625 c 0,4,5
 410.650390625 1169.50390625 410.650390625 1169.50390625 317.662109375 1023.05273438 c 128,-1,6
 224.674804688 876.6015625 224.674804688 876.6015625 224.674804688 618.467773438 c 0,7,8
 224.674804688 102.200195312 224.674804688 102.200195312 596.625 102.200195312 c 0,9,10
 738.525390625 102.200195312 738.525390625 102.200195312 820.762695312 186.489257812 c 128,-1,11
 903 270.77734375 903 270.77734375 903 405.638671875 c 2,12,-1
 903 869.225585938 l 2,0,1
912.674804688 11.58984375 m 1,13,-1
 912.674804688 172.791992188 l 1,14,15
 790.004150097 8.57427389517 790.004150097 8.57427389517 671.337890625 -11.0625 c 0,16,17
 629.950195312 -17.912109375 629.950195312 -17.912109375 543.950195312 -17.912109375 c 128,-1,18
 457.950195312 -17.912109375 457.950195312 -17.912109375 367.112304688 25.2861328125 c 128,-1,19
 276.275390625 68.484375 276.275390625 68.484375 211.237304688 151.192382812 c 0,20,21
 74.1748046875 325.497487695 74.1748046875 325.497487695 74.1748046875 622.787833422 c 0,22,23
 74.1748046875 920.078179148 74.1748046875 920.078179148 214.042912911 1104.31985129 c 0,24,25
 353.911021135 1288.56152344 353.911021135 1288.56152344 584.799804688 1288.56152344 c 0,26,27
 700.690284933 1288.56152344 700.690284933 1288.56152344 752.394947154 1258.00732422 c 128,-1,28
 804.099609375 1227.453125 804.099609375 1227.453125 840.112304688 1188.46875 c 128,-1,29
 876.125 1149.48535156 876.125 1149.48535156 916.974609375 1092.59179688 c 1,30,-1
 916.974609375 1255.90039062 l 1,31,-1
 1646.90039062 1255.90039062 l 1,32,-1
 1646.90039062 1124.19921875 l 1,33,-1
 1047.04980469 1124.19921875 l 1,34,-1
 1047.04980469 716.453125 l 1,35,-1
 1621.09960938 716.453125 l 1,36,-1
 1621.09960938 584.752929688 l 1,37,-1
 1047.04980469 584.752929688 l 1,38,-1
 1047.04980469 143.291015625 l 1,39,-1
 1651.20019531 143.291015625 l 1,40,-1
 1651.20019531 11.58984375 l 1,41,-1
 912.674804688 11.58984375 l 1,13,-1
EndSplineSet
EndChar

StartChar: oe
Encoding: 122 339 124
Width: 1566
VWidth: 1998
GlyphClass: 2
Flags: W
LayerCount: 2
Fore
SplineSet
305.299804688 741.75 m 128,-1,1
 230.049804688 640.700195312 230.049804688 640.700195312 230.049804688 477.967780547 c 128,-1,2
 230.049804688 315.235365782 230.049804688 315.235365782 303.380656248 207.604987579 c 128,-1,3
 376.711507808 99.974609375 376.711507808 99.974609375 503.176665062 99.974609375 c 128,-1,4
 629.641822317 99.974609375 629.641822317 99.974609375 703.970813502 200.928526348 c 128,-1,5
 778.299804688 301.882443321 778.299804688 301.882443321 778.299804688 469.791448427 c 128,-1,6
 778.299804688 637.700453533 778.299804688 637.700453533 705.974904401 740.25012911 c 128,-1,7
 633.650004113 842.799804688 633.650004113 842.799804688 507.099904401 842.799804688 c 128,-1,0
 380.549804688 842.799804688 380.549804688 842.799804688 305.299804688 741.75 c 128,-1,1
1439.42480469 532.125 m 1,8,9
 1413.02827421 842.799804688 1413.02827421 842.799804688 1174.4375 842.799804688 c 0,10,11
 1059.95019531 842.799804688 1059.95019531 842.799804688 986.3125 758.412109375 c 128,-1,12
 912.674804688 674.025390625 912.674804688 674.025390625 908.375 532.125 c 1,13,-1
 1439.42480469 532.125 l 1,8,9
908.375 432.150390625 m 1,14,15
 922.55390773 99.974609375 922.55390773 99.974609375 1177.125 99.974609375 c 0,16,17
 1271.72460938 99.974609375 1271.72460938 99.974609375 1342.13769531 151.037109375 c 128,-1,18
 1412.54980469 202.099609375 1412.54980469 202.099609375 1426.52539062 282.724609375 c 1,19,-1
 1553.375 282.724609375 l 1,20,21
 1518.97460938 136.525390625 1518.97460938 136.525390625 1421.15039062 62.349609375 c 128,-1,22
 1323.32519531 -11.8251953125 1323.32519531 -11.8251953125 1191.83473816 -11.8251953125 c 128,-1,23
 1060.344281 -11.8251953125 1060.344281 -11.8251953125 1001.55983581 19.8872070312 c 128,-1,24
 942.775390625 51.599609375 942.775390625 51.599609375 905.6875 87.0751953125 c 128,-1,25
 868.599609375 122.549804688 868.599609375 122.549804688 826.674804688 178.450195312 c 1,26,27
 770.775390625 74.1748046875 770.775390625 74.1748046875 698.75 32.25 c 128,-1,28
 626.724609375 -9.6748046875 626.724609375 -9.6748046875 522.987304688 -10.75 c 0,29,30
 326.383321709 -12.7877209679 326.383321709 -12.7877209679 213.178965542 119.660765494 c 128,-1,31
 99.974609375 252.109251955 99.974609375 252.109251955 99.974609375 469.450957573 c 128,-1,32
 99.974609375 686.792663191 99.974609375 686.792663191 210.932407694 821.771331595 c 128,-1,33
 321.890206012 956.75 321.890206012 956.75 502.025390625 956.75 c 0,34,35
 613.825195312 956.75 613.825195312 956.75 692.299804688 910.525390625 c 128,-1,36
 770.775390625 864.299804688 770.775390625 864.299804688 842.799804688 756.799804688 c 1,37,38
 947.608586367 912.516797025 947.608586367 912.516797025 1082.52539062 945.462890625 c 0,39,40
 1128.75 956.75 1128.75 956.75 1201.85009765 956.75 c 0,41,42
 1366.10799723 956.75 1366.10799723 956.75 1459.79978648 832.528762794 c 128,-1,43
 1553.49157572 708.307525587 1553.49157572 708.307525587 1569.5 432.150390625 c 1,44,-1
 908.375 432.150390625 l 1,14,15
EndSplineSet
EndChar

StartChar: circumflex
Encoding: 123 710 125
Width: 553
VWidth: 1998
GlyphClass: 2
Flags: W
LayerCount: 2
Fore
SplineSet
446.125 1054.25 m 5,0,-1
 327.875 1234.84960938 l 5,1,-1
 204.25 1054.25 l 5,2,-1
 95.6748046875 1054.25 l 5,3,-1
 253.700195312 1286.45019531 l 5,4,-1
 398.825195312 1286.45019531 l 5,5,-1
 554.700195312 1054.25 l 5,6,-1
 446.125 1054.25 l 5,0,-1
EndSplineSet
EndChar

StartChar: ring
Encoding: 124 730 126
Width: 665
VWidth: 4096
GlyphClass: 2
Flags: W
LayerCount: 2
Fore
SplineSet
419.25 2940.125 m 128,-1,1
 264.450195312 2940.125 264.450195312 2940.125 264.450195312 2782.09960938 c 128,-1,2
 264.450195312 2624.07519531 264.450195312 2624.07519531 419.25 2624.07519531 c 128,-1,3
 574.049804688 2624.07519531 574.049804688 2624.07519531 574.049804688 2782.09960938 c 128,-1,0
 574.049804688 2940.125 574.049804688 2940.125 419.25 2940.125 c 128,-1,1
421.400390625 2538.07519531 m 128,-1,5
 306.375 2538.07519531 306.375 2538.07519531 242.412109375 2600.96289062 c 128,-1,6
 178.450195312 2663.84960938 178.450195312 2663.84960938 178.450195312 2779.95019531 c 128,-1,7
 178.450195312 2896.04980469 178.450195312 2896.04980469 242.412109375 2961.08789062 c 128,-1,8
 306.375 3026.125 306.375 3026.125 421.400390625 3026.125 c 128,-1,9
 536.424804688 3026.125 536.424804688 3026.125 598.237304688 2961.08789062 c 128,-1,10
 660.049804688 2896.04980469 660.049804688 2896.04980469 660.049804688 2779.95019531 c 128,-1,11
 660.049804688 2663.84960938 660.049804688 2663.84960938 598.237304688 2600.96289062 c 128,-1,4
 536.424804688 2538.07519531 536.424804688 2538.07519531 421.400390625 2538.07519531 c 128,-1,5
EndSplineSet
EndChar

StartChar: tilde
Encoding: 125 732 127
Width: 571
VWidth: 1998
GlyphClass: 2
Flags: W
LayerCount: 2
Fore
SplineSet
413.875 1188.95019531 m 0,0,1
 492.025517379 1188.95019531 492.025517379 1188.95019531 502.025390625 1274.95019531 c 1,2,-1
 562.224609375 1274.95019531 l 1,3,4
 532.125 1098.65039062 532.125 1098.65039062 406.349609375 1098.65039062 c 0,5,6
 383.988320316 1098.65039062 383.988320316 1098.65039062 311.75 1121.22460938 c 1,7,-1
 264.450195312 1140.57519531 l 1,8,9
 191.017208266 1166.375 191.017208266 1166.375 155.875 1166.375 c 0,10,11
 98.2164471375 1166.375 98.2164471375 1166.375 67.724609375 1088.97460938 c 1,12,-1
 7.525390625 1088.97460938 l 1,13,14
 21.5 1179.27539062 21.5 1179.27539062 62.8876953125 1216.90039062 c 128,-1,15
 104.275390625 1254.52539062 104.275390625 1254.52539062 170.279765648 1254.52539062 c 0,16,17
 236.284140671 1254.52539062 236.284140671 1254.52539062 282.724609375 1228.72460938 c 1,18,19
 312.825195312 1216.90039062 312.825195312 1216.90039062 348.299804688 1202.92480469 c 128,-1,20
 383.775390625 1188.95019531 383.775390625 1188.95019531 413.875 1188.95019531 c 0,0,1
EndSplineSet
EndChar

StartChar: anusvara
Encoding: 126 3330 128
Width: 768
VWidth: 1998
GlyphClass: 2
Flags: W
LayerCount: 2
Fore
SplineSet
301.169180667 472.865412396 m 128,-1,1
 244.025390625 405.006215417 244.025390625 405.006215417 244.025390625 313.988928904 c 128,-1,2
 244.025390625 222.97164239 244.025390625 222.97164239 299.742421477 154.485821195 c 128,-1,3
 355.459452328 86 355.459452328 86 445.422923103 86 c 128,-1,4
 535.386393879 86 535.386393879 86 594.493001627 153.0626098 c 128,-1,5
 653.599609375 220.125219601 653.599609375 220.125219601 653.599609375 308.565626715 c 128,-1,6
 653.599609375 397.00603383 653.599609375 397.00603383 592.889619988 468.865321602 c 128,-1,7
 532.179630601 540.724609375 532.179630601 540.724609375 445.246300655 540.724609375 c 128,-1,0
 358.312970709 540.724609375 358.312970709 540.724609375 301.169180667 472.865412396 c 128,-1,1
212.26491102 74.8684636621 m 128,-1,9
 123.625 179.836536699 123.625 179.836536699 123.625 313.115778115 c 128,-1,10
 123.625 446.395019531 123.625 446.395019531 215.116921667 551.610107422 c 128,-1,11
 306.608843335 656.825195312 306.608843335 656.825195312 446.125 656.825195312 c 128,-1,12
 585.641156665 656.825195312 585.641156665 656.825195312 677.133078333 551.610107422 c 128,-1,13
 768.625 446.395019531 768.625 446.395019531 768.625 311.75 c 128,-1,14
 768.625 176.971679689 768.625 176.971679689 676.593315972 73.4360351568 c 128,-1,15
 584.561631944 -30.099609375 584.561631944 -30.099609375 442.733226992 -30.099609375 c 128,-1,8
 300.90482204 -30.099609375 300.90482204 -30.099609375 212.26491102 74.8684636621 c 128,-1,9
EndSplineSet
EndChar

StartChar: visarga
Encoding: 127 3331 129
Width: 523
VWidth: 1998
GlyphClass: 2
Flags: W
LayerCount: 2
Fore
SplineSet
321.424804688 316.049804688 m 128,-1,1
 281.650390625 316.049804688 281.650390625 316.049804688 253.700195312 283.262695312 c 128,-1,2
 225.75 250.474609375 225.75 250.474609375 225.75 207.474609375 c 128,-1,3
 225.75 164.474609375 225.75 164.474609375 253.700195312 132.224609375 c 128,-1,4
 281.650390625 99.974609375 281.650390625 99.974609375 323.575195312 99.974609375 c 128,-1,5
 365.5 99.974609375 365.5 99.974609375 395.599609375 132.224609375 c 128,-1,6
 425.700195312 164.474609375 425.700195312 164.474609375 425.700195312 206.399902344 c 128,-1,7
 425.700195312 248.325195312 425.700195312 248.325195312 393.450195312 282.1875 c 128,-1,0
 361.200195312 316.049804688 361.200195312 316.049804688 321.424804688 316.049804688 c 128,-1,1
321.424804688 770.775390625 m 128,-1,9
 281.650390625 770.775390625 281.650390625 770.775390625 253.700195312 739.599609375 c 128,-1,10
 225.75 708.424804688 225.75 708.424804688 225.75 663.274902344 c 128,-1,11
 225.75 618.125 225.75 618.125 253.700195312 586.412109375 c 128,-1,12
 281.650390625 554.700195312 281.650390625 554.700195312 323.575195312 554.700195312 c 128,-1,13
 365.5 554.700195312 365.5 554.700195312 395.599609375 588.5625 c 128,-1,14
 425.700195312 622.424804688 425.700195312 622.424804688 425.700195312 662.200195312 c 128,-1,15
 425.700195312 701.974609375 425.700195312 701.974609375 393.450195312 736.375 c 128,-1,8
 361.200195312 770.775390625 361.200195312 770.775390625 321.424804688 770.775390625 c 128,-1,9
179.670459291 67.0017756025 m 128,-1,17
 123.625 126.47816058 123.625 126.47816058 123.625 208.549804688 c 0,18,19
 123.625 330.525156417 123.625 330.525156417 243.487304688 391.299804688 c 0,20,21
 281.650390625 410.650390625 281.650390625 410.650390625 323.575195312 410.650390625 c 0,22,23
 403.124999998 410.650390625 403.124999998 410.650390625 463.325195311 350.449137355 c 128,-1,24
 523.525390625 290.247884085 523.525390625 290.247884085 523.525390625 209.2660658 c 128,-1,25
 523.525390625 128.284247516 523.525390625 128.284247516 467.790374205 67.9048190705 c 128,-1,26
 412.055357785 7.525390625 412.055357785 7.525390625 323.885638183 7.525390625 c 128,-1,16
 235.715918581 7.525390625 235.715918581 7.525390625 179.670459291 67.0017756025 c 128,-1,17
180.683667452 522.80158029 m 128,-1,28
 123.625 583.353160581 123.625 583.353160581 123.625 663.8125 c 128,-1,29
 123.625 744.271839419 123.625 744.271839419 180.177063372 804.285822054 c 128,-1,30
 236.729126743 864.299804688 236.729126743 864.299804688 323.895988159 864.299804688 c 128,-1,31
 411.062849575 864.299804688 411.062849575 864.299804688 467.2941201 803.382778585 c 128,-1,32
 523.525390625 742.465752483 523.525390625 742.465752483 523.525390625 663.8125 c 128,-1,33
 523.525390625 585.159247517 523.525390625 585.159247517 466.797865995 523.704623759 c 128,-1,34
 410.070341366 462.25 410.070341366 462.25 323.906338135 462.25 c 128,-1,27
 237.742334904 462.25 237.742334904 462.25 180.683667452 522.80158029 c 128,-1,28
EndSplineSet
EndChar

StartChar: ml_a
Encoding: 128 3333 130
Width: 2095
VWidth: 1998
GlyphClass: 2
Flags: W
LayerCount: 2
Fore
SplineSet
881.5 132.224609375 m 128,-1,1
 922.349609375 169.849609375 922.349609375 169.849609375 922.349609375 224.137207031 c 0,2,3
 922.349609375 314.974446622 922.349609375 314.974446622 862.150390625 345.075195312 c 0,4,5
 817.164897192 367.566239323 817.164897192 367.566239323 724.549804688 362.275390625 c 1,6,-1
 724.549804688 462.25 l 1,7,-1
 762.174804688 462.25 l 2,8,9
 822.375 462.25 822.375 462.25 868.0625 497.1875 c 128,-1,10
 913.75 532.125 913.75 532.125 913.75 594.475097656 c 128,-1,11
 913.75 656.825195312 913.75 656.825195312 877.200195312 697.674804688 c 128,-1,12
 840.650390625 738.525390625 840.650390625 738.525390625 787.974609375 760.025390625 c 1,13,14
 692.299804688 704.125 692.299804688 704.125 641.237304688 608.987304688 c 128,-1,15
 590.174804688 513.849609375 590.174804688 513.849609375 590.174804688 406.349609375 c 0,16,17
 590.174804688 208.666277043 590.174804688 208.666277043 685.3125 125.237304688 c 0,18,19
 720.25 94.599609375 720.25 94.599609375 780.450195312 94.599609375 c 128,-1,0
 840.650390625 94.599609375 840.650390625 94.599609375 881.5 132.224609375 c 128,-1,1
1979.07519531 341.849609375 m 0,20,21
 1979.07519531 446.125 1979.07519531 446.125 1939.29980469 543.950195312 c 1,22,23
 1880.82111326 580.5 1880.82111326 580.5 1814.92325194 580.5 c 128,-1,24
 1749.02539062 580.5 1749.02539062 580.5 1714.08789062 558.462890625 c 128,-1,25
 1679.15039062 536.424804688 1679.15039062 536.424804688 1656.03710938 501.487304688 c 0,26,27
 1610.34960938 432.424221077 1610.34960938 432.424221077 1610.34960938 333.889002898 c 128,-1,28
 1610.34960938 235.35378472 1610.34960938 235.35378472 1661.42945429 164.976697047 c 128,-1,29
 1712.5092992 94.599609375 1712.5092992 94.599609375 1800.625 94.599609375 c 0,30,31
 1927.20668829 94.599609375 1927.20668829 94.599609375 1967.78710938 256.924804688 c 0,32,33
 1979.07519531 302.075195312 1979.07519531 302.075195312 1979.07519531 341.849609375 c 0,20,21
1004.04980469 920.200195312 m 0,34,35
 1203.86561584 920.200195312 1203.86561584 920.200195312 1298.59960938 775.075195312 c 1,36,37
 1357.15288079 883.397151676 1357.15288079 883.397151676 1528.65039062 912.674804688 c 0,38,39
 1572.72460938 920.200195312 1572.72460938 920.200195312 1623.25 920.200195312 c 0,40,41
 1818.03698997 920.200195312 1818.03698997 920.200195312 1956.60589733 756.014358621 c 128,-1,42
 2095.17480469 591.82852193 2095.17480469 591.82852193 2095.17480469 376.25 c 0,43,44
 2095.17480469 219.54840376 2095.17480469 219.54840376 2017.70703243 102.786897192 c 128,-1,45
 1940.23926016 -13.974609375 1940.23926016 -13.974609375 1796.5579116 -13.974609375 c 128,-1,46
 1652.87656303 -13.974609375 1652.87656303 -13.974609375 1571.95097683 88.3063021126 c 128,-1,47
 1491.02539062 190.5872136 1491.02539062 190.5872136 1491.02539062 330.748028234 c 128,-1,48
 1491.02539062 470.908842867 1491.02539062 470.908842867 1571.83268945 581.604323778 c 128,-1,49
 1652.63998829 692.299804688 1652.63998829 692.299804688 1788.79980469 692.299804688 c 0,50,51
 1828.57519531 692.299804688 1828.57519531 692.299804688 1870.5 682.625 c 1,52,53
 1779.39404297 804.099609375 1779.39404297 804.099609375 1611.95147075 804.099609375 c 128,-1,54
 1444.50889853 804.099609375 1444.50889853 804.099609375 1383.52539062 706.8125 c 0,55,56
 1360.95019531 670.799804688 1360.95019531 670.799804688 1360.95019531 622.424804688 c 2,57,-1
 1360.95019531 0 l 1,58,-1
 1226.57519531 0 l 1,59,-1
 1226.57519531 606.299804688 l 2,60,61
 1226.57519531 762.753657231 1226.57519531 762.753657231 1079.29980469 801.412109375 c 0,62,63
 1036.29980469 812.700195312 1036.29980469 812.700195312 1005.125 812.700195312 c 128,-1,64
 973.950195312 812.700195312 973.950195312 812.700195312 957.287109375 808.400390625 c 128,-1,65
 940.625 804.099609375 940.625 804.099609375 922.349609375 800.875 c 1,66,67
 970.724609375 766.474609375 970.724609375 766.474609375 1011.57519531 714.337890625 c 128,-1,68
 1052.42480469 662.200195312 1052.42480469 662.200195312 1052.42480469 601.462402344 c 128,-1,69
 1052.42480469 540.724609375 1052.42480469 540.724609375 1024.47460938 501.487304688 c 128,-1,70
 996.525390625 462.25 996.525390625 462.25 950.299804688 424.625 c 1,71,72
 1062.09960938 354.75 1062.09960938 354.75 1062.09960938 236.678849036 c 128,-1,73
 1062.09960938 118.607698073 1062.09960938 118.607698073 983.969584558 52.3165443488 c 128,-1,74
 905.839559736 -13.974609375 905.839559736 -13.974609375 802.832377524 -13.974609375 c 0,75,76
 624.876706324 -13.974609375 624.876706324 -13.974609375 541.262695312 119.325195312 c 0,77,78
 469.775390625 233.289263327 469.775390625 233.289263327 469.775390625 410.650390625 c 0,79,80
 469.775390625 526.75 469.775390625 526.75 520.837890625 626.724609375 c 128,-1,81
 571.900390625 726.700195312 571.900390625 726.700195312 653.599609375 800.875 c 1,82,83
 639.625 805.174804688 639.625 805.174804688 627.799804688 803.025390625 c 128,-1,84
 615.974609375 800.875 615.974609375 800.875 597.700195312 800.875 c 0,85,86
 434.707083335 800.875 434.707083335 800.875 342.05373698 699.182753417 c 128,-1,87
 249.400390625 597.490506833 249.400390625 597.490506833 249.400390625 424.878065917 c 128,-1,88
 249.400390625 252.265625 249.400390625 252.265625 341.849609375 129 c 0,89,90
 374.099609375 86 374.099609375 86 413.875 55.900390625 c 1,91,-1
 332.174804688 -13.974609375 l 1,92,93
 227.900390625 64.5 227.900390625 64.5 175.762695312 185.4375 c 128,-1,94
 123.625 306.375 123.625 306.375 123.625 423.549804688 c 0,95,96
 123.625 639.526455966 123.625 639.526455966 252.267130534 779.863325639 c 128,-1,97
 380.909261067 920.200195312 380.909261067 920.200195312 599.849609375 920.200195312 c 0,98,99
 712.726033486 920.200195312 712.726033486 920.200195312 787.974609375 868.599609375 c 1,100,101
 887.950195312 920.200195312 887.950195312 920.200195312 1004.04980469 920.200195312 c 0,34,35
EndSplineSet
EndChar

StartChar: ml_aa
Encoding: 129 3334 131
Width: 2362
VWidth: 1998
GlyphClass: 2
Flags: W
LayerCount: 2
Fore
SplineSet
881.5 132.224609375 m 128,-1,1
 922.349609375 169.849609375 922.349609375 169.849609375 922.349609375 224.137207031 c 0,2,3
 922.349609375 316.297782231 922.349609375 316.297782231 860 345.075195312 c 0,4,5
 811.916508099 367.266413109 811.916508099 367.266413109 724.549804688 362.275390625 c 1,6,-1
 724.549804688 462.25 l 1,7,-1
 762.174804688 462.25 l 2,8,9
 822.375 462.25 822.375 462.25 868.0625 497.1875 c 128,-1,10
 913.75 532.125 913.75 532.125 913.75 594.475097656 c 128,-1,11
 913.75 656.825195312 913.75 656.825195312 875.049804688 697.674804688 c 128,-1,12
 836.349609375 738.525390625 836.349609375 738.525390625 787.974609375 760.025390625 c 1,13,14
 693.375 708.424804688 693.375 708.424804688 641.775390625 611.137695312 c 128,-1,15
 590.174804688 513.849609375 590.174804688 513.849609375 590.174804688 406.349609375 c 0,16,17
 590.174804688 202.054607525 590.174804688 202.054607525 683.162109375 125.237304688 c 0,18,19
 720.25 94.599609375 720.25 94.599609375 780.450195312 94.599609375 c 128,-1,0
 840.650390625 94.599609375 840.650390625 94.599609375 881.5 132.224609375 c 128,-1,1
1004.04980469 920.200195312 m 0,20,21
 1198.29325132 920.200195312 1198.29325132 920.200195312 1298.59960938 775.075195312 c 1,22,23
 1342.67480469 853.549804688 1342.67480469 853.549804688 1426.52539062 889.025390625 c 128,-1,24
 1510.375 924.5 1510.375 924.5 1608.73730469 924.5 c 128,-1,25
 1707.09960938 924.5 1707.09960938 924.5 1802.77694925 870.083349359 c 128,-1,26
 1898.45428912 815.666698718 1898.45428912 815.666698718 1967.11035156 706.141601562 c 1,27,28
 2135.39484682 690.471385404 2135.39484682 690.471385404 2249.1222281 562.796713171 c 128,-1,29
 2362.84960938 435.122040939 2362.84960938 435.122040939 2362.84960938 223.162686436 c 128,-1,30
 2362.84960938 11.2033319329 2362.84960938 11.2033319329 2246.21289062 -138.137695312 c 0,31,32
 2188.70019531 -211.775390625 2188.70019531 -211.775390625 2101.08789062 -259.075195312 c 128,-1,33
 2013.47460938 -306.375 2013.47460938 -306.375 1929.08740235 -306.375 c 0,34,35
 1783.42585103 -306.375 1783.42585103 -306.375 1670.54980469 -241.875 c 1,36,-1
 1693.125 -148.349609375 l 1,37,38
 1775.98788795 -202.099609375 1775.98788795 -202.099609375 1872.69413929 -202.099609375 c 0,39,40
 2052.87944247 -202.099609375 2052.87944247 -202.099609375 2144.97731889 -72.217383716 c 128,-1,41
 2237.07519531 57.6648419431 2237.07519531 57.6648419431 2237.07519531 218.804253869 c 128,-1,42
 2237.07519531 379.943665795 2237.07519531 379.943665795 2158.0625 486.4375 c 0,43,44
 2107.39942758 554.721524651 2107.39942758 554.721524651 2026.02441406 581.33203125 c 1,45,46
 2060.77539062 478.168072507 2060.77539062 478.168072507 2060.77539062 389.584036254 c 0,47,48
 2060.77539062 220.993491587 2060.77539062 220.993491587 1993.20419534 101.359050481 c 128,-1,49
 1925.63300006 -18.275390625 1925.63300006 -18.275390625 1787.57793238 -18.275390625 c 128,-1,50
 1649.52286471 -18.275390625 1649.52286471 -18.275390625 1574.0363347 75.5100306252 c 128,-1,51
 1498.54980469 169.295451875 1498.54980469 169.295451875 1498.54980469 280.835225938 c 128,-1,52
 1498.54980469 392.375 1498.54980469 392.375 1532.41210938 464.400390625 c 0,53,54
 1603.2341874 615.033125701 1603.2341874 615.033125701 1750.63769531 676.712890625 c 0,55,56
 1790.43652344 693.366210938 1790.43652344 693.366210938 1834.23828125 701.274414062 c 1,57,58
 1743.54462255 808.400390625 1743.54462255 808.400390625 1596.72235868 808.400390625 c 128,-1,59
 1449.9000948 808.400390625 1449.9000948 808.400390625 1383.52539062 702.512695312 c 0,60,61
 1360.95019531 666.5 1360.95019531 666.5 1360.95019531 622.424804688 c 2,62,-1
 1360.95019531 0 l 1,63,-1
 1226.57519531 0 l 1,64,-1
 1226.57519531 606.299804688 l 2,65,66
 1226.57519531 762.753657231 1226.57519531 762.753657231 1079.29980469 801.412109375 c 0,67,68
 1036.29980469 812.700195312 1036.29980469 812.700195312 994.912597657 812.700195312 c 128,-1,69
 953.525390625 812.700195312 953.525390625 812.700195312 922.349609375 800.875 c 1,70,71
 970.724609375 766.474609375 970.724609375 766.474609375 1011.57519531 714.337890625 c 128,-1,72
 1052.42480469 662.200195312 1052.42480469 662.200195312 1052.42480469 600.924804688 c 0,73,74
 1052.42480469 507.748946342 1052.42480469 507.748946342 950.299804688 424.625 c 1,75,76
 1062.09960938 354.75 1062.09960938 354.75 1062.09960938 236.678849036 c 128,-1,77
 1062.09960938 118.607698073 1062.09960938 118.607698073 983.969584558 52.3165443488 c 128,-1,78
 905.839559736 -13.974609375 905.839559736 -13.974609375 802.832377524 -13.974609375 c 0,79,80
 624.876706324 -13.974609375 624.876706324 -13.974609375 541.262695312 119.325195312 c 0,81,82
 469.775390625 233.289263327 469.775390625 233.289263327 469.775390625 410.650390625 c 0,83,84
 469.775390625 526.75 469.775390625 526.75 520.837890625 626.724609375 c 128,-1,85
 571.900390625 726.700195312 571.900390625 726.700195312 653.599609375 800.875 c 1,86,87
 639.625 805.174804688 639.625 805.174804688 627.799804688 803.025390625 c 128,-1,88
 615.974609375 800.875 615.974609375 800.875 597.700195312 800.875 c 0,89,90
 433.06431809 800.875 433.06431809 800.875 341.232354357 696.724982772 c 128,-1,91
 249.400390625 592.574965543 249.400390625 592.574965543 249.400390625 427.849609375 c 0,92,93
 249.400390625 329.535831501 249.400390625 329.535831501 277.350097656 250.76791575 c 128,-1,94
 305.299804688 172 305.299804688 172 337.549804688 129 c 128,-1,95
 369.799804688 86 369.799804688 86 413.875 55.900390625 c 1,96,-1
 332.174804688 -13.974609375 l 1,97,98
 227.900390625 64.5 227.900390625 64.5 175.762695312 185.4375 c 128,-1,99
 123.625 306.375 123.625 306.375 123.625 423.549804688 c 0,100,101
 123.625 639.526455966 123.625 639.526455966 252.267130534 779.863325639 c 128,-1,102
 380.909261067 920.200195312 380.909261067 920.200195312 599.849609375 920.200195312 c 0,103,104
 704.12658686 920.200195312 704.12658686 920.200195312 787.974609375 868.599609375 c 1,105,106
 887.950195312 920.200195312 887.950195312 920.200195312 1004.04980469 920.200195312 c 0,20,21
1897.22460938 595.775390625 m 1,107,108
 1789.23931441 587.941098183 1789.23931441 587.941098183 1706.2446572 506.024467975 c 128,-1,109
 1623.25 424.107837767 1623.25 424.107837767 1623.25 295.538442317 c 128,-1,110
 1623.25 166.969046867 1623.25 166.969046867 1706.02539062 112.337890625 c 0,111,112
 1732.90039062 94.599609375 1732.90039062 94.599609375 1779.66259765 94.599609375 c 0,113,114
 1867.00840087 94.599609375 1867.00840087 94.599609375 1909.20019531 195.112304688 c 0,115,116
 1939.29980469 266.823461874 1939.29980469 266.823461874 1939.29980469 381.433329465 c 128,-1,117
 1939.29980469 496.043197057 1939.29980469 496.043197057 1897.22460938 595.775390625 c 1,107,108
EndSplineSet
EndChar

StartChar: ml_i
Encoding: 130 3335 132
Width: 1507
VWidth: 1998
GlyphClass: 2
Flags: W
LayerCount: 2
Fore
SplineSet
512.775390625 409.574707031 m 0,0,1
 512.775390625 584.799804688 512.775390625 584.799804688 392.662845714 584.799804688 c 0,2,3
 332.174804688 584.799804688 332.174804688 584.799804688 297.237304688 540.724609375 c 128,-1,4
 262.299804688 496.650390625 262.299804688 496.650390625 262.299804688 440.75 c 128,-1,5
 262.299804688 384.849609375 262.299804688 384.849609375 292.400390625 335.400390625 c 128,-1,6
 322.5 285.950195312 322.5 285.950195312 383.774902344 285.950195312 c 128,-1,7
 445.049804688 285.950195312 445.049804688 285.950195312 478.912109375 325.1875 c 128,-1,8
 512.775390625 364.424804688 512.775390625 364.424804688 512.775390625 409.574707031 c 0,0,1
858.924804688 790.125 m 1,9,10
 962.986142579 920.200195312 962.986142579 920.200195312 1110.47460938 920.200195312 c 0,11,12
 1310.45339666 920.200195312 1310.45339666 920.200195312 1408.80189364 798.645679121 c 128,-1,13
 1507.15039062 677.09116293 1507.15039062 677.09116293 1507.15039062 460.479943662 c 128,-1,14
 1507.15039062 243.868724395 1507.15039062 243.868724395 1400.73470526 121.934362197 c 128,-1,15
 1294.3190199 -1.27897692437e-13 1294.3190199 -1.27897692437e-13 1075 0 c 2,16,-1
 432.150390625 0 l 2,17,18
 368.228036011 0 368.228036011 0 346.439213318 -9.1376953125 c 0,19,20
 302.075195312 -27.7428712364 302.075195312 -27.7428712364 302.075195312 -86 c 0,21,22
 302.075195312 -172 302.075195312 -172 432.150390625 -172 c 2,23,-1
 1483.5 -172 l 1,24,-1
 1483.5 -290.25 l 1,25,-1
 406.349609375 -290.25 l 2,26,27
 164.474609375 -290.25 164.474609375 -290.25 164.474609375 -90.2998046875 c 0,28,29
 164.474609375 1.40946863644 164.474609375 1.40946863644 232.569202422 54.9923319742 c 128,-1,30
 300.663795469 108.575195312 300.663795469 108.575195312 406.349609375 108.575195312 c 2,31,-1
 1036.29980469 108.575195312 l 2,32,33
 1208.29980469 108.575195312 1208.29980469 108.575195312 1286.77539062 205.325195312 c 128,-1,34
 1365.25 302.075195312 1365.25 302.075195312 1365.25 470.849609375 c 0,35,36
 1365.25 689.171814947 1365.25 689.171814947 1227.11230469 774.537109375 c 0,37,38
 1179.27539062 804.099609375 1179.27539062 804.099609375 1107.25 804.099609375 c 0,39,40
 933.099609375 804.099609375 933.099609375 804.099609375 933.099609375 634.25 c 2,41,-1
 933.099609375 190.275390625 l 1,42,-1
 786.900390625 190.275390625 l 1,43,-1
 786.900390625 634.25 l 2,44,45
 786.900390625 727.090851443 786.900390625 727.090851443 689.612304688 771.3125 c 0,46,47
 617.480323664 804.099609375 617.480323664 804.099609375 511.91496652 804.099609375 c 128,-1,48
 406.349609375 804.099609375 406.349609375 804.099609375 332.174804688 745.512695312 c 128,-1,49
 258 686.924804688 258 686.924804688 241.875 574.049804688 c 1,50,51
 267.743236531 692.299804688 267.743236531 692.299804688 426.775390625 692.299804688 c 0,52,53
 526.486579991 692.299804688 526.486579991 692.299804688 582.51819234 613.397887789 c 128,-1,54
 638.549804688 534.49597089 638.549804688 534.49597089 638.549804688 426.993197284 c 128,-1,55
 638.549804688 319.490423678 638.549804688 319.490423678 564.920615627 243.595309495 c 128,-1,56
 491.291426566 167.700195312 491.291426566 167.700195312 370.180449765 167.700195312 c 128,-1,57
 249.069472965 167.700195312 249.069472965 167.700195312 186.347236482 269.623644149 c 128,-1,58
 123.625 371.547092986 123.625 371.547092986 123.625 486.235948837 c 0,59,60
 123.625 690.625761211 123.625 690.625761211 229.320613342 805.412978261 c 128,-1,61
 335.016226684 920.200195312 335.016226684 920.200195312 547.957058673 920.200195312 c 128,-1,62
 760.897890662 920.200195312 760.897890662 920.200195312 858.924804688 790.125 c 1,9,10
EndSplineSet
EndChar

StartChar: ml_ii
Encoding: 131 3336 133
Width: 2666
VWidth: 1998
GlyphClass: 2
Flags: W
LayerCount: 2
Fore
SplineSet
2340.8125 800.875 m 0,0,1
 2177.95019531 800.875 2177.95019531 800.875 2177.95019531 688 c 2,2,-1
 2177.95019531 488.049804688 l 1,3,-1
 2043.57519531 484.825195312 l 1,4,-1
 2043.57519531 670.799804688 l 2,5,6
 2043.57519531 800.875 2043.57519531 800.875 1889.84960938 800.875 c 0,7,8
 1795.84641225 800.875 1795.84641225 800.875 1760.61070613 726.994264089 c 128,-1,9
 1725.375 653.113528177 1725.375 653.113528177 1725.375 573.806764089 c 128,-1,10
 1725.375 494.5 1725.375 494.5 1753.32519531 446.125 c 1,11,-1
 1641.52539062 446.125 l 1,12,13
 1607.125 516.947819823 1607.125 516.947819823 1607.125 604.150390625 c 0,14,15
 1607.125 746.049804688 1607.125 746.049804688 1689.36230469 833.125 c 128,-1,16
 1771.59960938 920.200195312 1771.59960938 920.200195312 1913.5 920.200195312 c 0,17,18
 1978 920.200195312 1978 920.200195312 2021.53710938 898.162109375 c 128,-1,19
 2065.07519531 876.125 2065.07519531 876.125 2105.92480469 826.674804688 c 1,20,21
 2161.82519531 878.275390625 2161.82519531 878.275390625 2212.88769531 899.237304688 c 128,-1,22
 2263.95019531 920.200195312 2263.95019531 920.200195312 2344.03759765 920.200195312 c 128,-1,23
 2424.125 920.200195312 2424.125 920.200195312 2487.01269531 881.5 c 128,-1,24
 2549.90039062 842.799804688 2549.90039062 842.799804688 2589.13769531 778.837890625 c 0,25,26
 2666 653.540416017 2666 653.540416017 2666 488.049804688 c 0,27,28
 2666 127.904127038 2666 127.904127038 2441.86230469 20.962890625 c 0,29,30
 2359.625 -18.275390625 2359.625 -18.275390625 2269.32519531 -18.275390625 c 0,31,32
 2108.87772127 -18.275390625 2108.87772127 -18.275390625 2011.18886063 53.6496579379 c 128,-1,33
 1913.5 125.574706501 1913.5 125.574706501 1913.5 255.849609375 c 1,34,-1
 2043.57519531 255.849609375 l 1,35,36
 2070.97301333 95.6748046875 2070.97301333 95.6748046875 2230.53967546 95.6748046875 c 128,-1,37
 2390.10633759 95.6748046875 2390.10633759 95.6748046875 2467.66210938 210.162109375 c 0,38,39
 2528.40039062 299.822714434 2528.40039062 299.822714434 2528.40039062 444.447118221 c 128,-1,40
 2528.40039062 589.071522007 2528.40039062 589.071522007 2496.15039062 663.798456316 c 0,41,42
 2436.9920888 800.875 2436.9920888 800.875 2340.8125 800.875 c 0,0,1
512.775390625 409.574707031 m 0,43,44
 512.775390625 584.799804688 512.775390625 584.799804688 392.662845714 584.799804688 c 0,45,46
 332.174804688 584.799804688 332.174804688 584.799804688 297.237304688 540.724609375 c 128,-1,47
 262.299804688 496.650390625 262.299804688 496.650390625 262.299804688 440.75 c 128,-1,48
 262.299804688 384.849609375 262.299804688 384.849609375 292.400390625 335.400390625 c 128,-1,49
 322.5 285.950195312 322.5 285.950195312 383.774902344 285.950195312 c 128,-1,50
 445.049804688 285.950195312 445.049804688 285.950195312 478.912109375 325.1875 c 128,-1,51
 512.775390625 364.424804688 512.775390625 364.424804688 512.775390625 409.574707031 c 0,43,44
858.924804688 790.125 m 1,52,53
 962.986142579 920.200195312 962.986142579 920.200195312 1110.47460938 920.200195312 c 0,54,55
 1310.45339666 920.200195312 1310.45339666 920.200195312 1408.80189364 798.645679121 c 128,-1,56
 1507.15039062 677.09116293 1507.15039062 677.09116293 1507.15039062 460.479943662 c 128,-1,57
 1507.15039062 243.868724395 1507.15039062 243.868724395 1400.73470526 121.934362197 c 128,-1,58
 1294.3190199 -1.27897692437e-13 1294.3190199 -1.27897692437e-13 1075 0 c 2,59,-1
 432.150390625 0 l 2,60,61
 368.228036011 0 368.228036011 0 346.439213318 -9.1376953125 c 0,62,63
 302.075195312 -27.7428712364 302.075195312 -27.7428712364 302.075195312 -86 c 0,64,65
 302.075195312 -172 302.075195312 -172 432.150390625 -172 c 2,66,-1
 1483.5 -172 l 1,67,-1
 1483.5 -290.25 l 1,68,-1
 406.349609375 -290.25 l 2,69,70
 164.474609375 -290.25 164.474609375 -290.25 164.474609375 -90.2998046875 c 0,71,72
 164.474609375 1.40946863644 164.474609375 1.40946863644 232.569202422 54.9923319742 c 128,-1,73
 300.663795469 108.575195312 300.663795469 108.575195312 406.349609375 108.575195312 c 2,74,-1
 1036.29980469 108.575195312 l 2,75,76
 1208.29980469 108.575195312 1208.29980469 108.575195312 1286.77539062 205.325195312 c 128,-1,77
 1365.25 302.075195312 1365.25 302.075195312 1365.25 470.849609375 c 0,78,79
 1365.25 689.171814947 1365.25 689.171814947 1227.11230469 774.537109375 c 0,80,81
 1179.27539062 804.099609375 1179.27539062 804.099609375 1107.25 804.099609375 c 0,82,83
 933.099609375 804.099609375 933.099609375 804.099609375 933.099609375 634.25 c 2,84,-1
 933.099609375 190.275390625 l 1,85,-1
 786.900390625 190.275390625 l 1,86,-1
 786.900390625 634.25 l 2,87,88
 786.900390625 727.090851443 786.900390625 727.090851443 689.612304688 771.3125 c 0,89,90
 617.480323664 804.099609375 617.480323664 804.099609375 511.91496652 804.099609375 c 128,-1,91
 406.349609375 804.099609375 406.349609375 804.099609375 332.174804688 745.512695312 c 128,-1,92
 258 686.924804688 258 686.924804688 241.875 574.049804688 c 1,93,94
 267.743236531 692.299804688 267.743236531 692.299804688 426.775390625 692.299804688 c 0,95,96
 526.486579991 692.299804688 526.486579991 692.299804688 582.51819234 613.397887789 c 128,-1,97
 638.549804688 534.49597089 638.549804688 534.49597089 638.549804688 426.993197284 c 128,-1,98
 638.549804688 319.490423678 638.549804688 319.490423678 564.920615627 243.595309495 c 128,-1,99
 491.291426566 167.700195312 491.291426566 167.700195312 370.180449765 167.700195312 c 128,-1,100
 249.069472965 167.700195312 249.069472965 167.700195312 186.347236482 269.623644149 c 128,-1,101
 123.625 371.547092986 123.625 371.547092986 123.625 486.235948837 c 0,102,103
 123.625 690.625761211 123.625 690.625761211 229.320613342 805.412978261 c 128,-1,104
 335.016226684 920.200195312 335.016226684 920.200195312 547.957058673 920.200195312 c 128,-1,105
 760.897890662 920.200195312 760.897890662 920.200195312 858.924804688 790.125 c 1,52,53
EndSplineSet
EndChar

StartChar: ml_u
Encoding: 132 3337 134
Width: 1107
VWidth: 1998
GlyphClass: 2
Flags: W
LayerCount: 2
Fore
SplineSet
266.599609375 600.924804688 m 1,0,1
 316.942374093 686.924804688 316.942374093 686.924804688 422.474609375 686.924804688 c 0,2,3
 580.907265272 686.924804688 580.907265272 686.924804688 639.625 527.287109375 c 0,4,5
 656.825195312 480.525390625 656.825195312 480.525390625 656.825195312 424.625 c 0,6,7
 656.825195312 304.224609375 656.825195312 304.224609375 580.5 235.962890625 c 128,-1,8
 504.174804688 167.700195312 504.174804688 167.700195312 388.075195312 167.700195312 c 0,9,10
 202.880519587 167.700195312 202.880519587 167.700195312 140.825195312 365.5 c 0,11,12
 123.625 420.325195312 123.625 420.325195312 123.625 502.5625 c 128,-1,13
 123.625 584.799804688 123.625 584.799804688 159.099609375 666.5 c 128,-1,14
 194.575195312 748.200195312 194.575195312 748.200195312 258.537109375 804.637695312 c 0,15,16
 389.50874256 920.200195312 389.50874256 920.200195312 604.495604357 920.200195312 c 0,17,18
 819.482466154 920.200195312 819.482466154 920.200195312 963.366233077 790.129688275 c 0,19,20
 1107.25 660.059181238 1107.25 660.059181238 1107.25 436.450195312 c 0,21,22
 1107.25 0 1107.25 0 672.950195312 0 c 2,23,-1
 413.875 0 l 2,24,25
 310.952003351 0 310.952003351 0 292.9375 -37.087890625 c 0,26,27
 283.799804688 -55.900390625 283.799804688 -55.900390625 283.799804688 -98.900390625 c 128,-1,28
 283.799804688 -141.900390625 283.799804688 -141.900390625 320.887695312 -156.950195312 c 128,-1,29
 357.974609375 -172 357.974609375 -172 413.875 -172 c 2,30,-1
 1084.67480469 -172 l 1,31,-1
 1084.67480469 -290.25 l 1,32,-1
 384.849609375 -290.25 l 2,33,34
 280.575195312 -290.25 280.575195312 -290.25 211.237304688 -244.025390625 c 128,-1,35
 141.900390625 -197.799804688 141.900390625 -197.799804688 141.900390625 -99.8865175855 c 0,36,37
 141.900390625 -1.97323048294 141.900390625 -1.97323048294 212.145313268 53.3009824145 c 0,38,39
 282.390235911 108.575195312 282.390235911 108.575195312 384.849609375 108.575195312 c 2,40,-1
 638.549804688 108.575195312 l 2,41,42
 966.424804688 108.575195312 966.424804688 108.575195312 963.200195312 436.450195312 c 0,43,44
 963.200195312 607.361830001 963.200195312 607.361830001 856.825182108 705.730719688 c 0,45,46
 750.450168904 804.099609375 750.450168904 804.099609375 578.349609375 804.099609375 c 0,47,48
 477.386095664 804.099609375 477.386095664 804.099609375 385.353173456 747.729672237 c 0,49,50
 293.320251247 691.359735098 293.320251247 691.359735098 266.599609375 600.924804688 c 1,0,1
514.924804688 432.150390625 m 128,-1,52
 514.924804688 492.349609375 514.924804688 492.349609375 485.900390625 538.575195312 c 128,-1,53
 456.875 584.799804688 456.875 584.799804688 392.375 584.799804688 c 128,-1,54
 327.875 584.799804688 327.875 584.799804688 295.087890625 538.575195312 c 128,-1,55
 262.299804688 492.349609375 262.299804688 492.349609375 262.299804688 434.299804688 c 128,-1,56
 262.299804688 376.25 262.299804688 376.25 293.474609375 329.487304688 c 128,-1,57
 324.650390625 282.724609375 324.650390625 282.724609375 388.612792969 282.724609375 c 128,-1,58
 452.575195312 282.724609375 452.575195312 282.724609375 483.75 327.337890625 c 128,-1,51
 514.924804688 371.950195312 514.924804688 371.950195312 514.924804688 432.150390625 c 128,-1,52
EndSplineSet
EndChar

StartChar: ml_uu
Encoding: 133 3338 135
Width: 2266
VWidth: 1998
GlyphClass: 2
Flags: W
LayerCount: 2
Fore
SplineSet
1940.91259765 800.875 m 0,0,1
 1774.82519531 800.875 1774.82519531 800.875 1774.82519531 688 c 2,2,-1
 1774.82519531 488.049804688 l 1,3,-1
 1644.75 484.825195312 l 1,4,-1
 1644.75 670.799804688 l 2,5,6
 1644.75 740.674804688 1644.75 740.674804688 1600.13769531 770.775390625 c 128,-1,7
 1555.52539062 800.875 1555.52539062 800.875 1495.32519531 800.875 c 0,8,9
 1393.79660756 800.875 1393.79660756 800.875 1356.11230469 721.862304688 c 0,10,11
 1326.54980469 659.874964418 1326.54980469 659.874964418 1326.54980469 577.187482209 c 128,-1,12
 1326.54980469 494.5 1326.54980469 494.5 1349.125 446.125 c 1,13,-1
 1240.54980469 446.125 l 1,14,15
 1209.375 510.310479325 1209.375 510.310479325 1209.375 604.150390625 c 0,16,17
 1209.375 746.049804688 1209.375 746.049804688 1289.46289062 833.125 c 128,-1,18
 1369.54980469 920.200195312 1369.54980469 920.200195312 1513.59960938 920.200195312 c 0,19,20
 1578.09960938 920.200195312 1578.09960938 920.200195312 1620.5625 898.162109375 c 128,-1,21
 1663.02539062 876.125 1663.02539062 876.125 1702.79980469 826.674804688 c 1,22,23
 1758.70019531 878.275390625 1758.70019531 878.275390625 1809.22460938 899.237304688 c 128,-1,24
 1859.75 920.200195312 1859.75 920.200195312 1940.375 920.200195312 c 0,25,26
 2098.41626526 920.200195312 2098.41626526 920.200195312 2188.70019531 778.837890625 c 0,27,28
 2266.09960938 657.644803794 2266.09960938 657.644803794 2266.09960938 488.049804688 c 0,29,30
 2266.09960938 128.929661801 2266.09960938 128.929661801 2039.8125 20.962890625 c 0,31,32
 1957.57519531 -18.275390625 1957.57519531 -18.275390625 1867.27490235 -18.275390625 c 0,33,34
 1704.90220408 -18.275390625 1704.90220408 -18.275390625 1609.25090673 55.38719458 c 128,-1,35
 1513.59960938 129.049779785 1513.59960938 129.049779785 1513.59960938 255.849609375 c 1,36,-1
 1644.75 255.849609375 l 1,37,38
 1672.14781802 95.6748046875 1672.14781802 95.6748046875 1837.17480469 95.6748046875 c 0,39,40
 2125.27539062 95.6748046875 2125.27539062 95.6748046875 2125.27539062 470.849609375 c 0,41,42
 2125.27539062 690.031337407 2125.27539062 690.031337407 2026.375 769.700195312 c 0,43,44
 1987.67480469 800.875 1987.67480469 800.875 1940.91259765 800.875 c 0,0,1
266.599609375 600.924804688 m 1,45,46
 316.942374093 686.924804688 316.942374093 686.924804688 422.474609375 686.924804688 c 0,47,48
 580.907265272 686.924804688 580.907265272 686.924804688 639.625 527.287109375 c 0,49,50
 656.825195312 480.525390625 656.825195312 480.525390625 656.825195312 424.625 c 0,51,52
 656.825195312 304.224609375 656.825195312 304.224609375 580.5 235.962890625 c 128,-1,53
 504.174804688 167.700195312 504.174804688 167.700195312 388.075195312 167.700195312 c 0,54,55
 202.880519587 167.700195312 202.880519587 167.700195312 140.825195312 365.5 c 0,56,57
 123.625 420.325195312 123.625 420.325195312 123.625 502.5625 c 128,-1,58
 123.625 584.799804688 123.625 584.799804688 159.099609375 666.5 c 128,-1,59
 194.575195312 748.200195312 194.575195312 748.200195312 258.537109375 804.637695312 c 0,60,61
 389.50874256 920.200195312 389.50874256 920.200195312 604.495604357 920.200195312 c 128,-1,62
 819.482466154 920.200195312 819.482466154 920.200195312 963.366233077 790.129688275 c 128,-1,63
 1107.25 660.059181238 1107.25 660.059181238 1107.25 436.450195312 c 0,64,65
 1107.25 0 1107.25 0 672.950195312 0 c 2,66,-1
 413.875 0 l 2,67,68
 310.952003351 0 310.952003351 0 292.9375 -37.087890625 c 0,69,70
 283.799804688 -55.900390625 283.799804688 -55.900390625 283.799804688 -98.900390625 c 128,-1,71
 283.799804688 -141.900390625 283.799804688 -141.900390625 320.887695312 -156.950195312 c 128,-1,72
 357.974609375 -172 357.974609375 -172 413.875 -172 c 2,73,-1
 1084.67480469 -172 l 1,74,-1
 1084.67480469 -290.25 l 1,75,-1
 384.849609375 -290.25 l 2,76,77
 280.575195312 -290.25 280.575195312 -290.25 211.237304688 -244.025390625 c 128,-1,78
 141.900390625 -197.799804688 141.900390625 -197.799804688 141.900390625 -99.8865175855 c 128,-1,79
 141.900390625 -1.97323048294 141.900390625 -1.97323048294 212.145313268 53.3009824145 c 128,-1,80
 282.390235911 108.575195312 282.390235911 108.575195312 384.849609375 108.575195312 c 2,81,-1
 638.549804688 108.575195312 l 2,82,83
 966.424804688 108.575195312 966.424804688 108.575195312 963.200195312 436.450195312 c 0,84,85
 963.200195312 607.361830001 963.200195312 607.361830001 856.825182108 705.730719688 c 128,-1,86
 750.450168904 804.099609375 750.450168904 804.099609375 578.349609375 804.099609375 c 0,87,88
 477.386095664 804.099609375 477.386095664 804.099609375 385.353173456 747.729672237 c 128,-1,89
 293.320251247 691.359735098 293.320251247 691.359735098 266.599609375 600.924804688 c 1,45,46
514.924804688 432.150390625 m 128,-1,91
 514.924804688 492.349609375 514.924804688 492.349609375 485.900390625 538.575195312 c 128,-1,92
 456.875 584.799804688 456.875 584.799804688 392.375 584.799804688 c 128,-1,93
 327.875 584.799804688 327.875 584.799804688 295.087890625 538.575195312 c 128,-1,94
 262.299804688 492.349609375 262.299804688 492.349609375 262.299804688 434.299804688 c 128,-1,95
 262.299804688 376.25 262.299804688 376.25 293.474609375 329.487304688 c 128,-1,96
 324.650390625 282.724609375 324.650390625 282.724609375 388.612792969 282.724609375 c 128,-1,97
 452.575195312 282.724609375 452.575195312 282.724609375 483.75 327.337890625 c 128,-1,90
 514.924804688 371.950195312 514.924804688 371.950195312 514.924804688 432.150390625 c 128,-1,91
EndSplineSet
EndChar

StartChar: ml_r
Encoding: 134 3339 136
Width: 1339
VWidth: 1998
GlyphClass: 2
Flags: W
LayerCount: 2
Fore
SplineSet
1267.96289062 318.200195312 m 128,-1,1
 1196.47460938 211.775390625 1196.47460938 211.775390625 1066.40039062 167.700195312 c 1,2,3
 1181.05925501 136.937007584 1181.05925501 136.937007584 1224.24202985 100.718503792 c 0,4,5
 1305.04980469 32.9429448957 1305.04980469 32.9429448957 1305.04980469 -78.9287183913 c 128,-1,6
 1305.04980469 -190.800381678 1305.04980469 -190.800381678 1202.92480469 -270.362304688 c 0,7,8
 1131.2834786 -326.176670297 1131.2834786 -326.176670297 997.613717351 -353.363237493 c 128,-1,9
 863.943956098 -380.549804688 863.943956098 -380.549804688 760.384575705 -380.549804688 c 128,-1,10
 656.825195312 -380.549804688 656.825195312 -380.549804688 556.849609375 -371.412109375 c 128,-1,11
 456.875 -362.275390625 456.875 -362.275390625 368.724609375 -328.412109375 c 128,-1,12
 280.575195312 -294.549804688 280.575195312 -294.549804688 221.450195312 -235.424804688 c 128,-1,13
 162.325195312 -176.299804688 162.325195312 -176.299804688 162.325195312 -81.4772446996 c 128,-1,14
 162.325195312 13.3453152888 162.325195312 13.3453152888 226.890576753 75.6838858105 c 128,-1,15
 291.455958193 138.022456332 291.455958193 138.022456332 396.674804688 167.700195312 c 1,16,17
 275.944818524 200.277271464 275.944818524 200.277271464 199.784909262 313.931715661 c 128,-1,18
 123.625 427.586159857 123.625 427.586159857 123.625 570.825195312 c 0,19,20
 123.625 803.655018997 123.625 803.655018997 288.099609375 890.637695312 c 0,21,22
 344 920.200195312 344 920.200195312 406.887695312 920.200195312 c 0,23,24
 526.703612357 920.200195312 526.703612357 920.200195312 597.700195312 841.1875 c 128,-1,25
 668.650390625 762.226429888 668.650390625 762.226429888 668.650390625 656.697675148 c 128,-1,26
 668.650390625 551.168920408 668.650390625 551.168920408 606.094164796 469.62205786 c 128,-1,27
 543.537938968 388.075195312 543.537938968 388.075195312 430 388.075195312 c 0,28,29
 365.5 388.075195312 365.5 388.075195312 313.900390625 427.3125 c 128,-1,30
 262.299804688 466.549804688 262.299804688 466.549804688 241.875 528.900390625 c 1,31,32
 241.875 227.900390625 241.875 227.900390625 731 227.900390625 c 0,33,34
 1057.38202984 227.900390625 1057.38202984 227.900390625 1169.0625 369.799804688 c 0,35,36
 1214.75 427.849609375 1214.75 427.849609375 1214.75 528.900390625 c 1,37,38
 1200.77539062 461.174804688 1200.77539062 461.174804688 1144.875 424.625 c 128,-1,39
 1088.97460938 388.075195312 1088.97460938 388.075195312 1026.625 388.075195312 c 0,40,41
 916.196078616 388.075195312 916.196078616 388.075195312 851.548234621 467.730110954 c 128,-1,42
 786.900390625 547.385026596 786.900390625 547.385026596 786.900390625 663.917610954 c 128,-1,43
 786.900390625 780.450195312 786.900390625 780.450195312 863.762695312 850.325195312 c 128,-1,44
 940.625 920.200195312 940.625 920.200195312 1063.05809768 920.200195312 c 128,-1,45
 1185.49119535 920.200195312 1185.49119535 920.200195312 1262.47069533 805.323787561 c 128,-1,46
 1339.45019531 690.447379809 1339.45019531 690.447379809 1339.45019531 557.536189905 c 128,-1,0
 1339.45019531 424.625 1339.45019531 424.625 1267.96289062 318.200195312 c 128,-1,1
1170.67480469 656.825195312 m 128,-1,48
 1170.67480469 712.724609375 1170.67480469 712.724609375 1135.73730469 756.799804688 c 128,-1,49
 1100.79980469 800.875 1100.79980469 800.875 1042.75 800.875 c 128,-1,50
 984.700195312 800.875 984.700195312 800.875 947.612304688 757.875 c 128,-1,51
 910.525390625 714.875 910.525390625 714.875 910.525390625 657.899902344 c 128,-1,52
 910.525390625 600.924804688 910.525390625 600.924804688 947.612304688 553.625 c 128,-1,53
 984.700195312 506.325195312 984.700195312 506.325195312 1044.90039062 506.325195312 c 128,-1,54
 1105.09960938 506.325195312 1105.09960938 506.325195312 1137.88769531 553.625 c 128,-1,47
 1170.67480469 600.924804688 1170.67480469 600.924804688 1170.67480469 656.825195312 c 128,-1,48
505.787109375 553.625 m 128,-1,56
 540.724609375 600.924804688 540.724609375 600.924804688 540.724609375 658.975097656 c 128,-1,57
 540.724609375 717.025390625 540.724609375 717.025390625 507.400390625 758.950195312 c 128,-1,58
 474.075195312 800.875 474.075195312 800.875 413.875 800.875 c 128,-1,59
 353.674804688 800.875 353.674804688 800.875 317.125 757.875 c 128,-1,60
 280.575195312 714.875 280.575195312 714.875 280.575195312 658.169113184 c 128,-1,61
 280.575195312 601.463226367 280.575195312 601.463226367 315.975117463 553.89421084 c 128,-1,62
 351.375039613 506.325195312 351.375039613 506.325195312 411.112324494 506.325195312 c 128,-1,55
 470.849609375 506.325195312 470.849609375 506.325195312 505.787109375 553.625 c 128,-1,56
1166.375 -69.875 m 128,-1,64
 1166.375 -5.375 1166.375 -5.375 1114.77539062 27.412109375 c 128,-1,65
 1063.17480469 60.2001953125 1063.17480469 60.2001953125 991.6875 77.400390625 c 0,66,67
 915.731224016 95.6748046875 915.731224016 95.6748046875 757.337890625 95.6748046875 c 2,68,69
 757.337890625 95.6748046875 757.337890625 95.6748046875 688.806640625 95.6748046875 c 128,-1,70
 620.275390625 95.6748046875 620.275390625 95.6748046875 539.643814135 88.0358952115 c 128,-1,71
 459.012237645 80.3969857355 459.012237645 80.3969857355 378.393814135 40.6398812531 c 128,-1,72
 297.775390625 0.88277677065 297.775390625 0.88277677065 297.775390625 -66.7461116147 c 128,-1,73
 297.775390625 -134.375 297.775390625 -134.375 348.837890625 -169.3125 c 128,-1,74
 399.900390625 -204.25 399.900390625 -204.25 470.3125 -221.450195312 c 128,-1,75
 540.724609375 -238.650390625 540.724609375 -238.650390625 613.825195312 -244.5625 c 128,-1,76
 686.924804688 -250.474609375 686.924804688 -250.474609375 731 -250.474609375 c 128,-1,77
 775.075195312 -250.474609375 775.075195312 -250.474609375 849.787109375 -244.5625 c 128,-1,78
 924.5 -238.650390625 924.5 -238.650390625 995.450195312 -221.450195312 c 128,-1,79
 1066.40039062 -204.25 1066.40039062 -204.25 1116.38769531 -169.3125 c 128,-1,63
 1166.375 -134.375 1166.375 -134.375 1166.375 -69.875 c 128,-1,64
EndSplineSet
EndChar

